<svg width="24" height="24" viewBox="0 0 24 24" fill="none" xmlns="http://www.w3.org/2000/svg">
<path d="M13.6119 11.9419L23.7224 1.82945C24.1097 1.39364 24.0895 0.730901 23.6758 0.319886C23.2625 -0.0913876 22.5999 -0.108253 22.1663 0.281855L12.0558 10.3943L1.94528 0.281855C1.50864 -0.0800417 0.86837 -0.0499868 0.467325 0.351167C0.0662798 0.752321 0.0361992 1.39272 0.398026 1.82941L10.5085 11.9419L0.398026 22.0543C0.15977 22.2515 0.0156554 22.5401 0.00124316 22.8493C-0.0134752 23.1584 0.103047 23.4593 0.321671 23.6783C0.540609 23.8969 0.841413 24.0135 1.15053 23.9988C1.45961 23.9843 1.74816 23.8402 1.94532 23.6019L12.0558 13.4894L22.1664 23.6019C22.603 23.9638 23.2433 23.9337 23.6443 23.5326C24.0454 23.1314 24.0754 22.491 23.7136 22.0543L13.6119 11.9419Z" fill="#E22547"/>
</svg>
