<?xml version="1.0" encoding="utf-8"?><svg xmlns="http://www.w3.org/2000/svg" xmlns:xlink="http://www.w3.org/1999/xlink"><symbol viewBox="0 0 12 8" id="check" xmlns="http://www.w3.org/2000/svg"><path d="M10.421.294L4.812 5.852 1.565 2.608a.929.929 0 00-1.292-.01.88.88 0 00-.01 1.265L4.17 7.746c.06.05.127.093.199.127.029.023.06.043.093.06A.932.932 0 004.804 8a.913.913 0 00.341-.068.65.65 0 00.11-.071.789.789 0 00.182-.115l6.27-6.209A.875.875 0 0011.73.255a.917.917 0 00-1.309.04z"/></symbol><symbol viewBox="0 0 24 24" id="close" xmlns="http://www.w3.org/2000/svg"><path d="M13.612 11.942l10.11-10.113A1.099 1.099 0 0022.166.282l-10.11 10.112L1.946.282A1.099 1.099 0 00.397 1.829l10.11 10.113L.399 22.054a1.098 1.098 0 101.547 1.548l10.11-10.113 10.111 10.113a1.098 1.098 0 001.548-1.548L13.612 11.942z"/></symbol><symbol viewBox="0 0 11 20" id="left" xmlns="http://www.w3.org/2000/svg"><path fill-rule="evenodd" clip-rule="evenodd" d="M9.637.22a.802.802 0 011.126.02.83.83 0 01.02 1.143l-8.644 8.77 8.644 8.464a.83.83 0 01-.02 1.142.802.802 0 01-1.126.02L0 10.153 9.637.221z"/></symbol><symbol viewBox="0 0 17 17" id="phone" xmlns="http://www.w3.org/2000/svg"><path fill-rule="evenodd" clip-rule="evenodd" d="M13.34 10.876l3.127 1.737c.449.249.645.777.469 1.26-.897 2.448-3.522 3.741-5.993 2.84C5.884 14.865 2.134 11.115.288 6.056-.614 3.587.678.961 3.128.064c.482-.176 1.01.02 1.26.469L6.125 3.66a1.275 1.275 0 01-.164 1.486L4.5 6.788c1.039 2.529 3.182 4.672 5.711 5.71l1.642-1.459a1.274 1.274 0 011.486-.164z"/></symbol><symbol viewBox="0 0 62 53" id="reviews" xmlns="http://www.w3.org/2000/svg"><path d="M18.79 0H8.774C3.948 0 0 4.444 0 9.875v20.323c0 5.431 3.948 9.875 8.773 9.875H18.79a1.3 1.3 0 011.22 1.43c-.352 5.418-5.189 7.619-6.249 7.619-1.148 0-2.297 2.585 0 3.878 12.472 0 13.724-12.901 13.798-17.154 0-.018.005-.036.005-.054V9.875c0-5.43-3.947-9.874-8.773-9.874V0zm34.436 0H43.21c-4.826 0-8.774 4.444-8.774 9.875v20.323c0 5.431 3.948 9.875 8.774 9.875h10.016a1.3 1.3 0 011.22 1.43c-.352 5.418-5.188 7.619-6.248 7.619-1.149 0-2.297 2.585 0 3.878 12.471 0 13.723-12.901 13.798-17.154 0-.018.005-.036.005-.054V9.875c0-5.43-3.948-9.874-8.773-9.874V0z"/></symbol><symbol viewBox="0 0 11 20" id="right" xmlns="http://www.w3.org/2000/svg"><path fill-rule="evenodd" clip-rule="evenodd" d="M1.363.22A.802.802 0 00.237.24a.83.83 0 00-.02 1.143l8.644 8.77-8.644 8.464a.831.831 0 00.02 1.142.802.802 0 001.126.02L11 10.153 1.363.221z"/></symbol><symbol viewBox="0 0 30 28" id="tg" xmlns="http://www.w3.org/2000/svg"><path d="M29.324 2.22l-5.35 21.994a1.66 1.66 0 01-2.37 1.077l-6.766-3.484-3.2 5.221c-.87 1.423-3.073.806-3.073-.858v-5.818c0-.45.189-.878.514-1.192L22.265 6.604c-.01-.157-.179-.293-.346-.178L6.184 17.349.898 14.63c-1.238-.638-1.186-2.428.094-2.982L27.059.316C28.307-.23 29.65.89 29.325 2.22z"/></symbol><symbol viewBox="0 0 30 30" id="wa" xmlns="http://www.w3.org/2000/svg"><path fill-rule="evenodd" clip-rule="evenodd" d="M15.313 0C7.195 0 .626 6.565.626 14.687c0 3.063.934 5.896 2.593 8.33a.735.735 0 01.092.632L1.819 28.64l4.888-1.687a.734.734 0 01.631.08 14.6 14.6 0 007.975 2.341C23.435 29.375 30 22.81 30 14.688S23.435 0 15.313 0zM9.301 6.403l2.673 4.417-1.113 1.102a.734.734 0 00-.115.884c1.699 2.94 3.711 5.23 6.53 6.471a.732.732 0 00.814-.149l1.182-1.182 4.314 2.697c-.477 1.075-1.1 1.715-1.813 2.088-.825.432-1.833.514-2.983.275-2.3-.477-5.08-2.285-7.344-4.601-2.264-2.316-4.016-5.133-4.463-7.424-.223-1.146-.125-2.133.298-2.915.364-.673.983-1.25 2.02-1.663z"/></symbol></svg>