<svg width="17" height="17" viewBox="0 0 17 17" fill="none" xmlns="http://www.w3.org/2000/svg">
<path fill-rule="evenodd" clip-rule="evenodd" d="M13.3404 10.8755C14.3824 11.4545 15.425 12.0337 16.467 12.6128C16.9155 12.8618 17.1122 13.3902 16.9357 13.8721C16.0392 16.3213 13.4135 17.6141 10.943 16.7124C5.88412 14.8659 2.13429 11.1159 0.287615 6.05703C-0.61411 3.58652 0.678718 0.960822 3.12788 0.064348C3.60982 -0.112227 4.13823 0.0845076 4.38786 0.533016C4.96634 1.57503 5.54551 2.61764 6.12456 3.65959C6.396 4.14842 6.3322 4.72865 5.96067 5.14608C5.47412 5.69358 4.98767 6.24097 4.50112 6.7879C5.5397 9.317 7.68294 11.4603 10.2121 12.4989C10.759 12.0123 11.3064 11.5259 11.8539 11.0393C12.2719 10.6678 12.8517 10.604 13.3404 10.8754L13.3404 10.8755Z" fill="white"/>
</svg>
