<svg width="62" height="53" viewBox="0 0 62 53" fill="none" xmlns="http://www.w3.org/2000/svg">
<path d="M18.7908 0H8.7733C3.94779 0 0 4.44369 0 9.87486V30.1981C0 35.6293 3.94816 40.073 8.7733 40.073H18.7899C19.1446 40.0929 19.4754 40.2571 19.706 40.5273C19.9366 40.7976 20.0467 41.1503 20.0105 41.5036C19.6579 46.9207 14.821 49.1219 13.7615 49.1219C12.6129 49.1219 11.4644 51.7071 13.7615 53C26.233 53 27.4846 40.0985 27.5593 35.8463C27.5593 35.8278 27.5645 35.8104 27.5645 35.7919V9.87539C27.5645 4.44459 23.6167 0.000528098 18.7912 0.000528098L18.7908 0Z" fill="#E22547"/>
<path d="M53.2261 0H43.2086C38.3831 0 34.4349 4.44369 34.4349 9.87486V30.1981C34.4349 35.6293 38.3831 40.073 43.2086 40.073H53.2252C53.5799 40.0929 53.9107 40.2571 54.1413 40.5273C54.3719 40.7976 54.4816 41.1503 54.4458 41.5036C54.0932 46.9207 49.2566 49.1219 48.1968 49.1219C47.0482 49.1219 45.9001 51.7071 48.1968 53C60.6683 53 61.9199 40.0985 61.9946 35.8463C61.995 35.8278 61.9998 35.8104 61.9998 35.7919V9.87539C61.9998 4.44459 58.0517 0.000528098 53.2265 0.000528098L53.2261 0Z" fill="#E22547"/>
</svg>
