<svg width="30" height="30" viewBox="0 0 30 30" fill="none" xmlns="http://www.w3.org/2000/svg">
<path fill-rule="evenodd" clip-rule="evenodd" d="M15.3131 9.12947e-05C7.19512 9.12947e-05 0.625854 6.56542 0.625854 14.6873C0.625854 17.7504 1.55994 20.5834 3.21914 23.0178C3.34412 23.2032 3.37794 23.4355 3.31083 23.6489L1.81915 28.6402L6.70732 26.9534V26.9536C6.91888 26.8829 7.15118 26.9126 7.33841 27.0338C9.62792 28.5193 12.369 29.3745 15.3128 29.3745C23.4347 29.3745 30.0001 22.8092 30.0001 14.6872C30.0001 6.56533 23.4347 0 15.3128 0L15.3131 9.12947e-05ZM9.30058 6.40268L11.974 10.8203L10.8608 11.9219L10.8611 11.9222C10.628 12.1571 10.5811 12.519 10.7463 12.8056C12.445 15.7469 14.4574 18.0352 17.2752 19.2771C17.5516 19.4 17.8748 19.3409 18.09 19.128L19.2717 17.9463L23.5861 20.6428C23.1085 21.718 22.4856 22.3581 21.7733 22.731C20.9481 23.1631 19.9402 23.2448 18.79 23.0063C16.4895 22.5294 13.7107 20.7214 11.4464 18.405C9.18196 16.0889 7.42952 13.2723 6.98287 10.9808C6.75953 9.83509 6.85814 8.84848 7.28126 8.06632C7.64547 7.39274 8.26425 6.8162 9.30082 6.40253L9.30058 6.40268Z" fill="#04D700"/>
</svg>
