<svg width="676" height="530" viewBox="0 0 676 530" fill="none" xmlns="http://www.w3.org/2000/svg">
<path d="M303.027 8.89461C294.281 7.04268 285.065 5.36923 275.538 4.00817C241.779 39.2619 157.572 141.118 155.542 282.156C155.586 305.428 157.215 322.898 158.197 331.511C158.442 333.474 158.688 335.46 158.955 337.424C158.955 337.424 158.643 335.349 158.197 331.511C156.122 314.598 155.296 298.131 155.542 282.156C155.519 270.241 155.899 256.809 156.992 242.283C156.992 242.283 130.931 251.208 113.46 286.105C113.46 286.105 119.15 235.589 159.58 216.579C160.673 207.877 162.057 198.908 163.753 189.76L160.919 189.983C152.016 190.652 143.448 193.642 136.085 198.662L110.046 216.334L134.233 189.224C138.785 184.114 144.608 180.321 151.101 178.179L167.211 172.914C168.639 166.555 170.245 160.106 172.008 153.613L148.335 152.029L111.764 169.344L136.509 145.447C140.681 142.1 145.858 140.27 151.191 140.27H175.891C178.345 132.35 181.089 124.384 184.124 116.396L160.116 114.79L125.487 126.526L148.312 108.207C152.485 104.861 157.661 103.031 162.994 103.031H189.523C193.205 94.396 197.266 85.7834 201.751 77.2377L179.639 75.7651L145.01 87.5015L167.836 69.1829C172.008 65.836 177.185 64.0064 182.517 64.0064H209.069C213.822 55.84 218.998 47.7853 224.621 39.842L224.42 40.1098L199.787 38.4809L165.158 50.2173L187.984 31.8988C192.156 28.5519 197.333 26.7223 202.665 26.7223H234.438C241.199 18.1543 248.54 9.76475 256.483 1.66532C234.104 -0.432053 210.408 -0.744436 186.69 1.86612C146.996 32.7912 10.2649 165.082 93.312 470.785C93.312 470.785 -41.0761 213.679 155.14 7.17651C149.473 8.49294 143.827 9.96561 138.249 11.6837C120.176 17.2395 103.397 25.6736 88.3587 36.4282C91.884 39.0834 96.2795 43.0773 97.0828 46.8481C97.0828 46.8481 88.8048 42.698 82.6689 40.6676C75.8413 46.0003 69.4153 51.8238 63.4355 58.0936C67.8757 60.6149 73.2977 64.0287 74.5026 65.6575C76.5553 68.4019 78.9427 81.7449 78.9427 81.7449C78.9427 81.7449 70.3078 70.5663 63.2125 68.402C60.8027 67.6657 58.3706 66.8847 56.2063 66.1484C50.7844 72.5744 45.8087 79.402 41.3239 86.5866C47.0136 91.0045 54.5775 97.3413 56.0501 100.889C58.4375 106.713 62.2084 125.522 62.2084 125.522C62.2084 125.522 43.0643 99.6172 34.831 97.8545C32.4213 102.406 30.2123 107.047 28.1818 111.822C26.8877 114.879 25.6382 117.98 24.411 121.149C28.6281 125.634 35.5003 133.398 39.4943 137.95C41.5916 140.337 43.1535 143.171 44.046 146.228L50.5613 168.295L39.3827 153.256C35.0764 147.455 29.0967 143.082 22.2468 140.739L18.0073 139.289C15.0175 148.593 12.34 158.344 9.99724 168.607L21.5774 179.563C23.7417 181.616 25.4598 184.115 26.5754 186.881L37.8878 214.839L21.8897 194.557C19.3907 191.388 15.9769 189.023 12.1168 187.818L6.47183 186.033C4.57526 196.721 3.03564 207.922 1.94233 219.614L18.2082 235.88C22.1352 239.807 24.9689 244.671 26.4639 250.003L36.1697 284.967L17.5611 257.679C13.2101 251.32 7.29732 246.165 0.402759 242.729C-1.35993 285.547 2.54487 334.568 14.4597 390.572C24.6342 438.365 54.1535 479.867 96.0787 504.968C96.3018 505.102 96.5473 505.236 96.7704 505.37C159.134 542.565 296.356 526.589 296.356 526.589C71.3565 238.959 303.049 8.76067 303.049 8.76067" fill="#161616"/>
<path d="M327.17 364.198C313.314 339.231 304.567 302.795 304.567 262.186C304.567 190.027 332.146 130.988 367.02 126.258C371.906 121.26 377.351 115.481 378.533 113.406C380.117 110.64 437.416 117.69 470.773 122.064C462.116 97.9214 450.268 75.3412 433.4 54.6798C392.769 4.87834 341.004 5.21302 299.815 54.6798C293.567 62.1768 288.212 70.5217 283.281 78.9558C254.699 127.909 243.364 181.995 240.397 237.531C235.979 320.779 245.283 402.085 294.259 472.95C336.541 534.13 397.923 532.993 440.45 472.079C452.566 454.72 461.87 436.379 469.144 417.191C439.469 436.446 412.783 441.534 412.783 441.534C346.024 451.463 330.673 390.616 327.148 364.221" fill="#161616"/>
<path d="M582.758 386.02C590.01 395.012 606.543 407.641 640.034 401.327C650.7 397.422 659.268 391.755 665.158 383.633C668.684 378.746 671.25 372.99 672.744 366.207C675.065 355.608 674.976 345.59 670.067 336.442C668.929 334.345 667.546 332.27 665.872 330.261C665.694 330.061 665.537 329.86 665.359 329.681C664.176 328.409 662.994 327.696 660.874 327.785C646.728 328.298 632.582 328.499 618.414 328.856C601.501 329.28 584.61 329.704 567.697 330.15C550.784 330.596 533.894 330.998 516.981 331.332C515.754 331.355 514.504 331.399 513.277 331.466C512.652 331.489 512.05 331.511 511.425 331.556C507.721 331.734 503.995 331.935 500.291 331.89C495.963 331.823 491.634 331.399 487.35 330.15C486.234 329.815 485.029 329.704 483.802 329.659C483.2 329.659 482.575 329.659 481.973 329.659C481.37 329.659 480.745 329.704 480.143 329.726C469.812 330.128 459.482 330.752 449.129 331.02C447.79 331.042 446.429 330.886 445.09 330.596C443.751 330.306 442.413 329.882 441.141 329.414C439.289 328.722 437.772 326.758 436.968 324.616C436.5 323.322 436.299 321.961 436.433 320.756C436.812 317.454 439.289 316.182 442.033 315.468C444.577 314.821 447.21 314.219 449.82 314.219C456.023 314.196 462.204 314.219 468.407 314.263C474.476 314.308 480.522 314.375 486.591 314.442C489.603 314.486 492.616 314.553 495.628 314.665C495.806 314.665 496.007 314.665 496.186 314.665C499.198 314.754 502.21 314.866 505.222 314.955C505.289 314.732 505.356 314.531 505.401 314.33C505.579 313.75 505.713 313.304 505.825 312.858C508.279 303.018 510.622 293.133 513.21 283.338C515.932 272.963 518.721 268.099 525.214 266.113C527.579 265.377 530.435 265.042 533.961 264.93C534.831 264.908 535.768 264.886 536.727 264.908C540.654 264.908 544.604 264.975 548.531 265.02C556.407 265.131 564.283 265.332 572.137 265.6C576.064 265.734 580.014 265.868 583.941 266.024C588.849 266.225 593.758 266.515 598.667 266.894C603.576 267.273 608.462 267.764 613.349 268.322C621.671 269.281 627.227 274.145 629.726 282.223C630.663 285.235 631.555 288.314 632.136 291.415C632.493 293.312 632.85 295.209 633.184 297.105C634.211 302.817 635.17 308.596 636.241 314.643C642.332 314.531 648.424 314.397 654.537 314.286C660.539 314.174 666.586 314.04 672.744 313.929C673.392 307.369 674.083 300.965 674.708 294.628C675.065 290.813 675.422 287.02 675.69 283.227C675.957 279.3 675.935 275.306 675.69 271.356C675.6 270.04 675.511 268.724 675.377 267.407C675.176 265.377 674.819 263.48 674.262 261.717C671.919 254.064 666.385 248.843 658.107 246.099C653.31 244.492 648.335 243.354 643.381 242.35C625.643 238.78 607.882 235.433 590.143 231.819C589.809 231.752 589.452 231.618 589.095 231.439C588.582 231.172 588.046 230.792 587.6 230.346C587.31 230.056 587.02 229.744 586.797 229.431C586.685 229.275 586.574 229.119 586.484 228.963C585.949 227.981 585.413 227.022 584.855 226.04C579.322 216.111 573.989 206.07 568.389 196.186C566.559 192.95 564.663 189.737 562.543 186.77C557.88 180.232 552.078 174.788 543.243 172.445C549.245 170.705 555.247 168.964 561.293 167.202C560.178 163.966 558.861 161.021 557.969 158.054C557.679 157.072 557.411 156.068 557.233 155.064C555.938 148.08 552.435 144.398 545.675 144.265C545.228 144.265 544.76 144.265 544.269 144.265C543.867 144.265 543.399 144.198 542.93 144.086C542.239 143.908 541.614 143.595 541.19 143.171C541.123 143.104 541.011 143.037 540.967 142.97C539.606 141.141 537.642 139.958 535.478 139.311C535.121 139.2 534.742 139.11 534.385 139.021C533.269 138.776 532.109 138.664 530.971 138.642C528.673 138.597 526.441 138.999 524.634 139.646C523.385 140.092 521.934 140.36 520.551 140.338C520.082 140.338 519.636 140.293 519.19 140.226C490.875 135.719 462.561 131.145 434.269 126.481C432.394 126.169 430.609 125.277 428.78 124.63C428.356 124.473 427.932 124.317 427.486 124.228C425.745 123.782 423.849 123.112 422.064 122.845C421.082 122.711 420.145 122.688 419.275 122.911C416.374 123.67 413.585 123.692 410.818 123.425C409.167 123.268 407.494 123.023 405.82 122.755C399.64 121.841 393.481 120.881 387.278 120.1C386.163 119.966 384.668 120.212 383.865 120.881C371.169 131.413 358.54 142.056 345.933 152.721C345.264 153.279 344.505 154.194 344.461 154.975C344.193 159.571 344.126 164.19 343.992 168.741C345.71 169.321 347.071 169.79 348.923 170.415C346.647 171.53 344.929 172.512 343.077 173.271C338.079 175.346 335.067 178.827 333.372 184.115C328.507 199.421 323.152 214.571 318.065 229.811C317.195 232.399 316.548 235.054 315.789 237.865C315.789 238.245 315.789 238.624 315.789 239.003C327.414 237.865 338.883 237.687 350.262 238.2C353.274 238.334 356.286 238.512 359.299 238.736C359.343 238.736 359.366 238.736 359.41 238.736C362.422 238.959 365.457 239.249 368.469 239.561H368.581C371.57 239.896 374.56 240.253 377.55 240.632H377.729C380.741 241.056 383.753 241.48 386.765 241.949C397.007 243.533 407.092 245.987 417.311 247.794C419.721 248.218 422.153 248.508 424.63 248.732C425.857 248.843 427.106 248.955 428.378 249.089C429.627 249.2 430.899 249.334 432.193 249.468C432.216 248.508 432.238 247.772 432.26 247.147C432.26 246.835 432.26 246.545 432.283 246.277C432.283 246.009 432.283 245.742 432.327 245.496C432.528 241.569 433.978 240.141 437.883 240.32C449.486 240.9 461.111 241.636 472.713 242.127C473.271 242.149 473.806 242.194 474.342 242.239C478.023 242.64 480.746 243.979 481.08 247.973C507.565 249.022 533.671 249.557 559.709 251.208C566.247 251.61 572.784 252.101 579.3 252.614C589.095 253.395 598.89 254.287 608.663 255.18C618.458 256.072 628.231 256.987 638.026 257.835C639.365 253.596 639.7 252.525 642.333 252.614C643.002 252.636 643.805 252.726 644.809 252.859C645.144 252.904 645.501 252.949 645.88 253.016C648.089 253.328 650.276 253.685 652.462 254.042C654.649 254.377 656.858 254.689 659.067 254.89C661.454 255.113 662.927 256.095 663.797 257.991C663.931 258.259 664.042 258.549 664.132 258.861C664.6 260.267 665.181 261.651 665.471 263.079C666.252 266.849 665.114 268.924 661.878 269.17C661.41 269.214 660.919 269.214 660.361 269.17C657.416 268.969 654.471 268.701 651.525 268.367C650.053 268.21 648.58 268.032 647.107 267.831C645.635 267.653 644.184 267.429 642.712 267.229C642.533 267.206 642.355 267.139 642.176 267.072C641.351 266.738 640.414 265.979 639.99 265.265C639.856 265.042 639.767 264.841 639.767 264.663C639.61 262.632 638.919 261.494 637.848 260.87C637.312 260.557 636.687 260.356 635.996 260.245C635.304 260.133 634.568 260.089 633.765 260.089C632.872 260.089 631.979 259.999 631.087 259.91C630.194 259.821 629.302 259.709 628.409 259.642C618.146 258.75 607.882 257.746 597.596 256.831C587.332 255.894 577.046 255.046 566.76 254.466C548.955 253.462 531.082 253.239 513.255 252.882C510.711 252.837 508.168 252.77 505.602 252.726C503.66 252.681 501.697 252.659 499.756 252.636C493.91 252.592 488.064 252.636 482.285 252.636C482.062 253.373 481.839 254.042 481.616 254.667C480.567 257.411 479.228 258.884 476.975 259.531H476.93C475.948 259.799 474.788 259.932 473.405 259.932C473.048 259.932 472.691 259.932 472.311 259.91C462.583 259.508 452.877 258.75 443.171 258.616C438.865 258.549 435.384 257.768 433.688 254.578C433.443 254.131 433.242 253.618 433.064 253.06C427.508 252.435 422.488 252.034 417.49 251.253C416.954 251.164 416.486 251.141 416.084 251.164C416.039 251.164 415.995 251.164 415.95 251.186C415.615 251.231 415.303 251.32 415.057 251.476C414.834 251.61 414.656 251.811 414.5 252.056C414.254 252.413 414.053 252.882 413.897 253.506C413.786 253.93 413.674 254.354 413.54 254.778C413.094 256.251 412.558 257.701 412.068 259.196C410.617 258.973 409.479 258.772 408.341 258.594C389.978 255.559 371.66 252.056 353.207 249.669C352.516 249.58 351.802 249.512 351.11 249.423C339.664 248.107 328.061 248.107 316.526 247.504C316.28 247.504 316.035 247.504 315.789 247.504C315.901 265.421 316.905 285.993 319.939 305.182C321.992 313.616 324.647 321.314 327.972 326.424L343.948 334.88C340.623 341.819 338.325 348.803 337.165 355.831C336.83 357.438 336.718 358.911 336.718 358.911C335.268 371.316 337.499 383.789 344.372 396.284C354.033 413.822 368.648 425.67 389.041 427.544C407.806 429.24 425.031 423.751 439.958 411.925C442.926 409.582 445.492 406.994 447.701 404.183C447.701 404.183 447.768 404.093 447.812 404.049C448.013 403.781 448.214 403.491 448.415 403.223C448.883 402.576 449.329 401.929 449.753 401.26C449.932 400.992 450.11 400.724 450.289 400.434C450.824 399.564 451.293 398.672 451.762 397.779C451.895 397.511 452.029 397.221 452.163 396.931C452.542 396.106 452.922 395.258 453.256 394.387C453.323 394.209 453.413 394.031 453.48 393.852C453.859 392.826 454.171 391.777 454.461 390.706C454.528 390.438 454.595 390.17 454.662 389.903C454.93 388.787 455.198 387.649 455.376 386.489C456.469 379.706 457.585 372.945 458.678 366.162C459.415 366.028 459.995 365.872 460.553 365.805C460.731 365.783 460.91 365.761 461.088 365.761C478.715 364.801 496.32 363.864 513.946 362.927C531.573 361.99 549.178 361.03 566.805 360.049C567.742 360.004 568.456 360.115 569.014 360.45C569.571 360.785 569.995 361.343 570.397 362.213C572.874 367.657 575.417 373.057 577.961 378.479C578.073 378.724 578.251 379.126 578.519 379.661C579.21 381.134 581.821 385.128 581.977 385.262C582.044 385.306 582.736 386.154 582.758 386.154M464.68 303.866C461.735 304.691 458.835 305.004 455.934 304.803C455.822 304.803 455.711 304.781 455.599 304.758C454.617 304.669 453.636 304.535 452.676 304.334C450.869 303.955 449.084 303.42 447.344 302.639C439.423 299.136 435.719 291.081 437.883 282.736C439.311 277.269 442.435 273.186 446.697 270.866C447.455 270.464 448.236 270.085 449.062 269.795C449.553 269.616 450.066 269.46 450.579 269.326C452.676 268.791 454.93 268.59 457.34 268.768C458.188 268.835 459.013 269.036 459.839 269.17C460.865 269.326 461.824 269.549 462.762 269.795C464.591 270.308 466.198 270.999 467.626 271.825C468.34 272.227 468.987 272.695 469.589 273.164C470.482 273.855 471.218 274.636 471.91 275.462C476.863 281.375 476.729 290.054 473.494 296.659C473.048 297.574 472.512 298.422 471.91 299.18C470.102 301.456 467.648 303.04 464.68 303.866M411.621 318.882C411.8 319.194 411.956 319.529 412.157 319.908C412.358 320.288 412.581 320.734 412.871 321.292C406.423 320.243 400.465 319.373 394.575 318.213C394.463 318.19 394.351 318.146 394.218 318.101C393.861 317.945 393.504 317.633 393.191 317.276C392.767 316.785 392.41 316.205 392.21 315.691C389.711 308.931 387.1 302.215 384.757 295.387C383.976 293.111 383.218 290.835 382.504 288.537C379.224 278.028 376.68 267.251 366.929 260.044C373.601 258.594 379.023 259.062 383.396 261.517C384.378 262.052 385.293 262.722 386.163 263.458C386.609 263.837 387.033 264.239 387.435 264.663C388.662 265.934 389.8 267.429 390.826 269.17C391.161 269.75 391.496 270.352 391.808 270.977C392.321 271.981 392.812 273.008 393.28 274.034C394.686 277.135 395.913 280.348 396.828 283.606C399.84 294.472 404.191 304.714 409.346 314.643C410.082 316.071 410.84 317.476 411.599 318.882M412.135 388.809C407.159 400.836 397.23 406.481 384.065 405.254C374.94 404.383 367.71 400.278 362.69 392.714C353.185 378.367 351.422 363.038 358.428 347.197C362.4 338.205 369.094 332.671 376.814 330.953C377.461 330.819 378.086 330.663 378.733 330.574C379 330.529 379.291 330.529 379.558 330.507C380.228 330.44 380.875 330.373 381.544 330.351C381.834 330.351 382.147 330.351 382.437 330.373C383.084 330.373 383.753 330.373 384.422 330.462C384.757 330.484 385.092 330.551 385.426 330.618C386.074 330.708 386.698 330.775 387.345 330.908C387.725 330.998 388.126 331.109 388.506 331.199C389.108 331.355 389.688 331.489 390.291 331.667C390.759 331.823 391.205 332.002 391.674 332.18C392.21 332.381 392.723 332.537 393.258 332.783C393.838 333.028 394.418 333.341 395.021 333.631C395.423 333.831 395.824 334.01 396.226 334.233C397.208 334.768 398.212 335.371 399.171 336.04C399.885 336.531 400.577 337.022 401.224 337.535C411.086 345.189 415.013 356.01 415.615 368.371C415.749 370.893 415.548 373.414 415.37 376.002C415.303 376.872 415.258 377.742 415.214 378.613C415.102 378.992 414.99 379.394 414.857 379.795C414.009 382.785 413.25 385.886 412.045 388.787M581.018 229.141C581.018 229.141 581.085 229.275 581.085 229.364C581.152 229.61 581.152 229.922 581.263 230.502C543.533 225.214 505.892 219.859 467.938 217.628C464.011 217.405 460.106 217.204 456.179 217.048C437.303 216.289 418.337 216.356 399.238 217.695C398.926 203.75 398.636 190.027 398.345 176.194C398.234 171.575 398.145 166.956 398.033 162.293C400.153 162.338 402.206 162.382 404.236 162.427C406.244 162.472 408.23 162.516 410.216 162.538C438.575 163.029 466.689 165.751 494.691 169.589C497.234 169.946 499.778 170.303 502.322 170.66C509.952 171.754 517.583 172.936 525.192 174.163C527.736 174.565 530.279 174.989 532.801 175.413C535.188 175.814 537.575 176.283 539.94 176.863C542.306 177.443 544.626 178.157 546.88 179.027C547.616 179.317 548.33 179.652 549.044 180.054C551.186 181.236 553.194 182.91 554.577 184.762C564.863 198.662 573.298 213.679 580.995 229.141M380.808 158.455C377.349 159.593 373.913 160.82 370.499 162.092C367.086 163.364 363.672 164.636 360.258 165.885C359.946 165.997 359.656 166.108 359.388 166.198C359.343 166.198 359.276 166.22 359.232 166.242C359.008 166.332 358.785 166.399 358.585 166.465C358.54 166.465 358.473 166.51 358.428 166.51C358.228 166.577 358.027 166.644 357.826 166.689L357.714 166.733C357.491 166.8 357.268 166.845 357.045 166.889C356.13 167.09 355.305 167.157 354.368 167.068C353.096 166.956 351.623 166.599 349.392 165.975C352.226 164.346 355.015 162.739 357.781 161.155C359.923 159.928 362.043 158.701 364.163 157.474C365.144 156.893 366.149 156.336 367.13 155.778C370.009 154.127 372.865 152.476 375.743 150.824C376.078 150.646 376.39 150.445 376.725 150.267C377.171 150.021 377.706 149.932 378.309 149.999C378.487 150.021 378.688 150.088 378.889 150.133C379.09 150.177 379.268 150.244 379.469 150.311C380.652 150.757 381.812 151.628 382.571 152.743C382.771 153.033 382.927 153.346 383.061 153.68C383.597 155.064 383.708 156.224 383.017 157.117C382.615 157.652 381.901 158.098 380.83 158.455M366.773 212.719C366.773 212.965 366.729 213.188 366.684 213.389C366.572 214.013 366.372 214.482 366.015 214.817C365.568 215.263 364.877 215.486 363.895 215.553C362.69 215.642 361.485 215.754 360.28 215.865C359.923 215.91 359.544 215.932 359.187 215.977C358.295 216.066 357.424 216.155 356.51 216.267C356.264 216.289 355.996 216.334 355.729 216.356C354.144 216.535 352.538 216.713 350.887 216.914C350.463 216.959 350.017 217.003 349.593 217.048C349.615 215.285 349.66 213.522 349.704 211.782C350.039 210.22 350.351 208.658 350.664 207.119C352.025 200.537 353.341 194.133 354.658 187.752C354.702 187.528 354.747 187.305 354.791 187.082C355.684 182.731 356.554 178.38 357.491 174.029C357.938 171.954 359.388 170.259 361.24 169.321C362.355 168.764 363.627 168.451 364.899 168.518C367.398 168.607 367.777 170.437 367.867 172.244C367.867 172.267 367.867 172.311 367.867 172.334C368.179 178.537 368.692 184.739 368.491 190.92C368.246 198.194 367.264 205.445 366.729 212.719M422.488 125.321C425.21 125.834 427.262 127.084 428.534 128.891C429.784 130.699 430.23 133.019 429.739 135.674C429.494 136.901 429.092 137.995 428.534 138.932C427.128 141.275 424.786 142.658 422.064 142.68C421.506 142.68 420.948 142.636 420.39 142.524C420.056 142.457 419.743 142.39 419.431 142.301C414.767 141.029 412.023 137.058 412.804 132.595C413.25 130.051 414.5 127.999 416.24 126.705C417.958 125.41 420.167 124.853 422.532 125.299M432.907 134.469C432.952 133.711 432.952 132.907 432.907 132.06C436.901 132.707 440.851 133.421 444.733 134.112C449.932 135.027 455.041 135.897 460.173 136.522C461.467 136.678 462.739 136.812 464.033 136.946C470.928 137.593 475.145 139.914 476.261 147.009C476.595 149.129 477.666 151.137 478.581 153.77C471.932 152.676 465.818 151.695 459.883 150.713C460.776 149.508 462.293 148.192 463.052 146.697C463.23 146.362 463.364 146.005 463.431 145.626C463.476 145.38 463.498 145.112 463.52 144.845C463.632 142.97 462.94 140.717 461.869 139.267C461.735 139.088 461.579 138.932 461.423 138.776C461.4 138.753 461.378 138.731 461.356 138.709C461.334 138.686 461.289 138.664 461.267 138.642C460.977 138.374 460.664 138.129 460.307 137.928C459.906 137.682 459.459 137.459 458.991 137.281C457.741 136.79 456.313 136.544 454.863 136.522C452.676 136.5 450.467 137.013 448.95 138.039C445.916 140.114 445.246 142.703 446.942 147.254C447.187 147.901 447.478 148.593 447.812 149.329C446.83 149.173 445.849 149.017 444.889 148.861C442.011 148.392 439.222 147.946 436.455 147.478C435.206 147.277 433.956 147.076 432.684 146.875C431.167 146.63 429.605 146.362 427.954 146.094C426.928 145.938 425.879 145.759 424.763 145.581C429.984 143.238 432.573 139.802 432.885 134.469M483.177 158.254C483.78 158.277 484.405 158.344 485.052 158.433C495.851 159.95 506.672 161.267 517.494 162.561C525.75 163.543 534.028 164.502 542.283 165.506C542.373 165.506 542.462 165.528 542.573 165.551C543.6 165.685 544.604 165.885 545.608 166.042C541.882 167.358 538.356 169.076 534.541 169.902C534.162 169.991 533.782 170.058 533.381 170.125C532.6 170.259 531.819 170.326 531.015 170.37C529.811 170.415 528.561 170.37 527.267 170.125C518.565 168.652 509.841 167.336 501.117 166.086C492.393 164.837 483.646 163.632 474.922 162.36C473.829 162.204 472.758 162.003 471.062 161.735C471.664 161.401 472.244 161.088 472.825 160.798C476.305 159.058 479.496 158.121 483.155 158.299M533.135 141.409C534.362 141.609 535.411 141.966 536.304 142.457C537.196 142.948 537.888 143.595 538.423 144.376C539.472 145.938 539.807 148.013 539.36 150.579C539.16 151.762 538.803 152.81 538.312 153.703C537.084 155.956 535.054 157.25 532.555 157.34C532.064 157.34 531.551 157.34 531.015 157.25C529.52 157.027 528.115 156.269 526.999 155.242C525.504 153.859 524.478 151.962 524.322 150.021C524.277 149.53 524.299 149.062 524.366 148.571C524.656 146.764 525.348 145.202 526.33 143.997C527.981 141.989 530.435 140.985 533.135 141.409M541.346 155.332C541.904 154.484 542.306 153.524 542.663 152.52C542.841 152.029 543.02 151.516 543.198 151.003C543.377 150.49 543.555 149.977 543.778 149.463C545.474 149.731 547.348 149.954 549.178 150.378C549.78 150.512 550.561 151.07 550.762 151.605C552.012 155.153 553.105 158.768 554.466 162.962C548.352 161.958 542.796 161.066 537.017 160.106C538.088 158.946 539.36 157.853 540.409 156.626C540.766 156.224 541.078 155.778 541.368 155.332M425.723 150.735C439.847 152.565 453.926 154.394 468.117 156.246C464.97 158.589 461.735 159.772 458.411 160.263C457.964 160.33 457.518 160.396 457.05 160.441C456.269 160.508 455.51 160.575 454.729 160.597C454.26 160.597 453.814 160.597 453.346 160.597C451.628 160.597 449.887 160.463 448.147 160.285C441.654 159.682 435.161 159.125 428.668 158.611C419.565 157.875 410.483 157.206 401.38 156.581C398.613 156.38 397.698 155.376 397.676 152.81C397.676 152.119 397.609 151.405 397.542 150.668C397.431 149.553 397.274 148.37 397.141 147.009C406.735 148.258 416.262 149.486 425.767 150.735M521.042 158.723C519.48 158.478 517.918 158.21 516.378 157.964C513.835 157.563 511.336 157.139 508.859 156.737C506.784 156.403 504.709 156.068 502.701 155.733C503.504 154.684 505.066 153.435 505.735 151.895C505.825 151.672 505.914 151.449 505.959 151.226C506.382 149.441 505.825 146.964 504.776 145.402C503.727 143.863 501.184 143.104 498.618 143.082C496.632 143.082 494.624 143.528 493.307 144.443C490.318 146.518 490.318 149.53 493.575 155.265C493.062 155.175 492.571 155.108 492.08 155.041C489.693 154.662 487.528 154.372 485.431 153.881C484.695 153.703 483.758 152.899 483.512 152.163C482.106 147.991 480.879 143.751 479.496 139.222C492.348 141.319 504.865 143.35 517.606 145.447C516.222 150.467 517.338 154.729 521.019 158.745M410.216 144.198C402.161 142.881 394.842 141.699 387.301 140.471C387.1 138.017 386.899 135.563 386.676 133.064C386.475 130.565 386.252 128.021 386.029 125.388C387.479 125.634 388.93 125.857 390.358 126.102C395.579 126.95 400.688 127.798 406.021 128.668C403.388 134.715 405.776 139.467 410.193 144.22M384.534 168.607C384.735 172.691 384.913 176.774 385.114 180.879C385.694 193.151 386.297 205.49 386.899 218.074C385.07 218.074 383.575 218.074 381.589 218.074C381.968 205.602 382.325 193.263 382.682 180.946C382.794 176.841 382.928 172.758 383.039 168.652C383.53 168.652 384.043 168.652 384.534 168.63M351.534 153.725C356.933 149.329 362.222 144.822 367.532 140.293C370.901 137.415 374.27 134.536 377.662 131.658C378.443 130.989 379.268 130.364 380.473 129.382C381.098 133.22 381.7 136.678 382.147 140.159C382.147 140.271 382.191 140.404 382.191 140.516C382.191 140.65 382.191 140.828 382.124 141.007C381.99 141.364 381.745 141.743 381.455 142.033C381.299 142.189 381.165 142.301 381.009 142.39C372.798 147.232 364.542 152.029 356.286 156.826C354.055 158.121 351.802 159.437 349.57 160.731C349.414 160.82 349.169 160.731 348.946 160.709C348.299 157.808 349.057 155.733 351.534 153.725M342.787 215.598C342.386 217.539 341.538 218.454 339.619 218.878C335.223 219.882 330.895 221.086 325.986 222.358C327.57 217.137 328.931 212.385 330.471 207.677C332.546 201.362 334.911 195.137 336.852 188.8C339.262 180.924 345.889 177.956 352.739 174.208C350.396 183.958 348.187 193.151 345.956 202.344C344.885 206.762 343.702 211.135 342.81 215.575M652.975 277.358C653.6 277.247 654.225 277.202 654.85 277.225C654.872 277.225 654.917 277.225 654.961 277.225C655.653 277.269 656.367 277.403 657.059 277.626C658.844 278.184 660.584 279.322 662.124 281.04C663.217 282.267 664.065 283.74 664.645 285.458C665.582 288.314 665.761 291.795 665.069 295.878C664.868 296.525 664.556 297.998 663.931 299.314C662.057 303.263 658.933 305.495 654.872 305.985C654.381 306.052 653.868 306.097 653.355 306.097C651.146 306.119 649.472 305.338 648.134 304.089C646.795 302.862 645.791 301.166 644.921 299.426C643.336 296.19 643.069 292.107 643.894 288.292C644.184 287.02 644.586 285.77 645.099 284.61C645.278 284.208 645.456 283.829 645.657 283.472C646.26 282.356 646.951 281.33 647.777 280.438C648.178 279.991 648.58 279.612 649.026 279.277C649.428 278.943 649.829 278.653 650.253 278.407C651.124 277.894 652.038 277.559 652.975 277.358" fill="#820000"/>
<path d="M621.115 279.679C620.356 278.541 619.419 277.582 618.348 276.778C616.429 275.35 614.064 274.391 611.32 273.967C608.821 273.588 606.277 273.364 603.734 273.275C595.21 272.985 586.687 272.695 578.186 272.427C575.888 272.361 573.567 272.294 571.269 272.227C564.776 272.026 558.283 271.847 551.79 271.713C545.275 271.58 538.715 271.847 532.222 272.45C527.291 272.918 523.944 275.975 522.494 280.817C522.204 281.821 521.891 282.847 521.579 283.851C521.289 284.856 520.977 285.882 520.687 286.886C520.24 288.403 519.839 289.943 519.459 291.482C519.326 291.995 519.192 292.509 519.08 293.022C518.902 293.781 518.723 294.539 518.567 295.298C517.206 301.322 515.956 307.391 514.595 313.683C552.571 313.148 590.034 312.635 627.943 312.099C627.139 307.391 626.426 302.728 625.667 298.109C624.908 293.49 624.105 288.939 623.168 284.387C622.789 282.557 622.097 280.995 621.182 279.634" fill="#A11D28"/>
<path d="M389.623 358.085C385.83 357.46 382.907 359.647 382.193 363.641C381.256 368.884 383.911 373.213 388.552 374.061C392.144 374.708 394.844 372.588 395.625 368.527C396.696 362.905 394.398 358.888 389.623 358.107" fill="#A11D28"/>
<path d="M675.691 271.267C675.602 269.951 675.512 268.634 675.378 267.318C675.178 265.287 674.821 263.391 674.263 261.628C671.92 253.975 666.386 248.754 658.109 246.009C653.311 244.403 648.336 243.265 643.382 242.261C625.644 238.713 607.861 235.344 590.145 231.729C589.81 231.662 589.453 231.529 589.096 231.35C588.561 231.082 588.047 230.703 587.601 230.279C587.311 229.989 587.021 229.677 586.798 229.364C586.686 229.208 586.575 229.052 586.486 228.896C585.95 227.936 585.414 226.955 584.857 225.973C579.323 216.044 573.99 206.003 568.39 196.119C566.56 192.883 564.664 189.67 562.544 186.703C557.881 180.165 552.08 174.721 543.244 172.378C549.246 170.638 555.248 168.898 561.295 167.135C560.179 163.9 558.863 160.954 557.97 157.987C557.68 157.005 557.412 156.001 557.234 155.019C555.94 148.035 552.437 144.354 545.676 144.22C545.23 144.22 544.761 144.22 544.27 144.22C543.869 144.22 543.4 144.153 542.932 144.041C542.24 143.863 541.615 143.551 541.191 143.149C541.124 143.082 541.013 143.015 540.968 142.948C539.607 141.118 537.643 139.936 535.479 139.289C535.122 139.177 534.743 139.088 534.386 138.999C533.27 138.753 532.11 138.619 530.972 138.619C528.696 138.575 526.443 138.977 524.635 139.624C523.386 140.07 521.935 140.338 520.552 140.315C520.083 140.315 519.637 140.271 519.213 140.204C490.899 135.697 462.584 131.122 434.292 126.459C432.418 126.147 430.633 125.254 428.803 124.607C428.379 124.451 427.955 124.295 427.509 124.206C425.746 123.759 423.872 123.09 422.087 122.822C421.105 122.688 420.168 122.666 419.298 122.889C416.397 123.648 413.608 123.67 410.842 123.402C409.19 123.246 407.517 123.001 405.844 122.755C399.663 121.841 393.505 120.881 387.302 120.1C386.186 119.966 384.691 120.212 383.866 120.881C381.568 122.8 379.269 124.719 376.971 126.638C376.458 128.623 375.811 131.011 375.119 133.778C375.989 133.019 376.882 132.283 377.752 131.524C378.533 130.855 379.359 130.23 380.586 129.248C381.211 133.086 381.813 136.544 382.259 140.025C382.259 140.137 382.304 140.271 382.304 140.382C382.304 140.538 382.304 140.695 382.237 140.873C382.103 141.23 381.858 141.609 381.568 141.877C381.411 142.033 381.278 142.145 381.121 142.234C377.975 144.086 374.829 145.916 371.683 147.745C371.215 149.709 370.746 151.784 370.278 153.926C372.129 152.855 373.959 151.806 375.811 150.757C376.146 150.579 376.458 150.378 376.793 150.2C377.239 149.954 377.797 149.865 378.377 149.932C378.555 149.932 378.756 150.021 378.957 150.066C379.158 150.11 379.336 150.177 379.537 150.244C380.72 150.691 381.88 151.561 382.639 152.676C382.839 152.966 382.996 153.279 383.13 153.613C383.665 154.997 383.777 156.135 383.085 157.05C382.661 157.585 381.969 158.031 380.898 158.388C377.44 159.526 374.004 160.753 370.59 162.025C369.854 162.293 369.117 162.561 368.381 162.851C367.957 164.948 367.533 167.113 367.109 169.321C367.756 170.035 367.912 171.106 367.979 172.2C367.979 172.222 367.979 172.267 367.979 172.289C368.292 178.47 368.827 184.695 368.604 190.875C368.359 198.149 367.377 205.401 366.841 212.675C366.841 212.92 366.797 213.143 366.752 213.366C366.641 213.991 366.417 214.46 366.083 214.794C365.636 215.241 364.945 215.464 363.963 215.531C362.847 215.62 361.71 215.709 360.594 215.821C359.947 223.251 359.456 230.904 359.233 238.713H359.3C359.3 238.713 359.367 238.713 359.411 238.713C362.424 238.936 365.458 239.226 368.47 239.539H368.582C371.572 239.873 374.562 240.231 377.551 240.61C377.618 240.61 377.663 240.61 377.73 240.632C380.742 241.034 383.777 241.458 386.766 241.926C397.008 243.51 407.093 245.965 417.312 247.772C419.722 248.196 422.154 248.486 424.631 248.732C425.858 248.843 427.107 248.955 428.379 249.089C429.629 249.2 430.901 249.334 432.195 249.468C432.217 248.508 432.239 247.772 432.239 247.147C432.239 246.835 432.239 246.545 432.262 246.277C432.262 246.009 432.262 245.742 432.284 245.496C432.485 241.569 433.935 240.141 437.84 240.32C449.442 240.9 461.045 241.636 472.67 242.127C473.227 242.149 473.763 242.194 474.298 242.239C477.98 242.64 480.702 243.979 481.037 247.973C507.522 249.022 533.627 249.557 559.644 251.208C566.181 251.61 572.719 252.101 579.256 252.614C589.051 253.395 598.847 254.287 608.619 255.18C618.415 256.072 628.187 256.987 637.983 257.835C639.321 253.596 639.656 252.525 642.289 252.636C642.958 252.659 643.762 252.748 644.766 252.882C645.1 252.926 645.457 252.971 645.837 253.038C648.046 253.35 650.232 253.707 652.419 254.064C654.605 254.399 656.814 254.711 659.023 254.912C661.411 255.135 662.883 256.117 663.754 258.014C663.888 258.281 663.999 258.571 664.088 258.884C664.557 260.29 665.137 261.673 665.427 263.101C666.208 266.872 665.07 268.947 661.835 269.192C661.366 269.237 660.875 269.237 660.317 269.192C657.372 268.991 654.427 268.724 651.482 268.389C650.009 268.233 648.537 268.054 647.064 267.853C645.591 267.653 644.141 267.452 642.668 267.251C642.49 267.229 642.311 267.162 642.133 267.095C641.307 266.76 640.37 266.001 639.946 265.287C639.812 265.064 639.723 264.864 639.723 264.685C639.567 262.655 638.875 261.517 637.804 260.892C637.269 260.579 636.644 260.379 635.952 260.267C635.261 260.156 634.524 260.111 633.721 260.111C632.829 260.111 631.936 260.022 631.043 259.932C630.151 259.843 629.259 259.732 628.344 259.665C618.08 258.772 607.816 257.768 597.53 256.853C587.266 255.916 576.98 255.068 566.694 254.488C548.889 253.484 531.039 253.261 513.189 252.904C510.645 252.859 508.079 252.793 505.536 252.748C503.595 252.703 501.631 252.681 499.69 252.659C493.844 252.614 487.998 252.659 482.219 252.659C481.996 253.395 481.773 254.064 481.55 254.689C480.501 257.433 479.162 258.906 476.909 259.553H476.864C475.883 259.821 474.722 259.955 473.339 259.955C472.982 259.955 472.625 259.955 472.223 259.932C462.517 259.531 452.789 258.772 443.083 258.638C438.755 258.571 435.296 257.79 433.6 254.6C433.355 254.153 433.154 253.64 432.976 253.082C427.42 252.458 422.399 252.078 417.401 251.275C416.866 251.186 416.397 251.164 415.996 251.186C415.951 251.186 415.907 251.186 415.862 251.186C415.527 251.231 415.215 251.32 414.969 251.476C414.746 251.61 414.568 251.811 414.389 252.056C414.144 252.413 413.943 252.882 413.787 253.506C413.675 253.93 413.564 254.354 413.43 254.778C412.984 256.251 412.448 257.701 411.957 259.218C410.507 258.973 409.369 258.795 408.231 258.616C391.809 255.916 375.432 252.815 358.965 250.494C359.01 277.47 362.156 305.941 370.813 333.117C372.687 332.136 374.651 331.377 376.704 330.931C377.351 330.797 377.975 330.641 378.622 330.552C378.89 330.507 379.18 330.507 379.47 330.485C380.14 330.418 380.787 330.351 381.456 330.328C381.746 330.328 382.059 330.328 382.349 330.351C383.018 330.351 383.665 330.351 384.334 330.44C384.669 330.462 385.004 330.529 385.338 330.596C385.985 330.685 386.61 330.752 387.257 330.886C387.637 330.975 388.038 331.087 388.418 331.199C389.02 331.355 389.6 331.466 390.203 331.667C390.671 331.823 391.117 332.002 391.586 332.18C392.121 332.381 392.635 332.537 393.17 332.783C393.75 333.028 394.33 333.34 394.933 333.653C395.334 333.854 395.736 334.032 396.138 334.255C397.119 334.791 398.124 335.393 399.083 336.063C399.797 336.554 400.466 337.044 401.136 337.558C410.998 345.211 414.903 356.032 415.527 368.393C415.661 370.915 415.46 373.436 415.304 376.024C415.259 376.895 415.193 377.765 415.148 378.635C415.036 379.037 414.925 379.416 414.791 379.817C413.943 382.807 413.184 385.909 411.98 388.809C410.485 392.402 408.543 395.436 406.223 397.868C412.783 405.499 420.213 412.728 428.535 419.444C432.418 417.325 436.189 414.826 439.803 411.97C442.771 409.627 445.337 407.039 447.546 404.227C447.546 404.227 447.613 404.138 447.657 404.071C447.858 403.803 448.059 403.536 448.26 403.245C448.728 402.598 449.174 401.951 449.598 401.282C449.777 401.014 449.955 400.746 450.134 400.456C450.669 399.586 451.138 398.694 451.607 397.801C451.74 397.533 451.874 397.244 452.008 396.953C452.387 396.128 452.767 395.28 453.101 394.41C453.168 394.231 453.258 394.053 453.325 393.874C453.704 392.848 454.016 391.799 454.306 390.728C454.373 390.46 454.44 390.193 454.507 389.925C454.775 388.809 455.043 387.671 455.221 386.511C456.314 379.728 457.43 372.967 458.523 366.184C459.26 366.051 459.84 365.894 460.398 365.828C460.576 365.805 460.755 365.783 460.933 365.761C478.56 364.801 496.165 363.864 513.791 362.927C531.396 361.99 549.023 361.03 566.65 360.049C567.587 360.004 568.301 360.115 568.859 360.45C569.416 360.785 569.84 361.343 570.242 362.213C572.719 367.657 575.285 373.057 577.806 378.479C577.917 378.724 578.096 379.126 578.364 379.661C579.055 381.134 581.666 385.128 581.822 385.262C581.889 385.306 582.603 386.154 582.603 386.154C589.877 395.146 606.388 407.775 639.879 401.461C650.545 397.556 659.113 391.888 665.003 383.744C668.528 378.858 671.094 373.101 672.589 366.318C674.91 355.72 674.821 345.702 669.912 336.554C668.774 334.456 667.391 332.381 665.717 330.373C665.539 330.172 665.383 329.971 665.204 329.793C664.021 328.521 662.839 327.807 660.719 327.896C646.573 328.41 632.427 328.61 618.258 328.967C601.346 329.391 584.455 329.837 567.542 330.261C550.629 330.685 533.739 331.109 516.826 331.444C515.599 331.466 514.349 331.511 513.122 331.578C512.497 331.6 511.895 331.623 511.27 331.667C507.566 331.846 503.84 332.046 500.136 332.002C495.808 331.935 491.479 331.511 487.195 330.261C486.057 329.927 484.874 329.793 483.647 329.77C483.045 329.77 482.42 329.77 481.818 329.77C481.215 329.77 480.59 329.815 479.988 329.837C469.635 330.239 459.304 330.886 448.974 331.132C447.635 331.154 446.274 330.998 444.935 330.708C443.574 330.418 442.258 329.994 440.986 329.525C439.134 328.833 437.617 326.892 436.813 324.728C436.345 323.434 436.144 322.073 436.278 320.868C436.657 317.566 439.134 316.294 441.878 315.58C444.422 314.933 447.055 314.33 449.665 314.33C455.868 314.308 462.049 314.33 468.252 314.375C474.321 314.42 480.367 314.486 486.436 314.553C489.448 314.598 492.461 314.687 495.473 314.777C495.651 314.777 495.852 314.777 496.031 314.777C499.043 314.866 502.055 314.977 505.067 315.067C505.134 314.844 505.201 314.643 505.246 314.442C505.424 313.862 505.558 313.416 505.67 312.969C508.124 303.129 510.489 293.267 513.055 283.45C515.777 273.074 518.566 268.21 525.059 266.225C527.424 265.488 530.28 265.154 533.806 265.042C534.676 265.02 535.613 265.02 536.573 265.02C540.5 265.02 544.449 265.087 548.376 265.131C556.252 265.243 564.128 265.444 571.982 265.711C575.909 265.845 579.859 265.979 583.786 266.135C588.694 266.336 593.603 266.626 598.512 267.005C603.421 267.385 608.307 267.876 613.194 268.433C621.516 269.393 627.072 274.257 629.571 282.334C630.508 285.369 631.4 288.426 631.981 291.527C632.338 293.424 632.695 295.32 633.029 297.217C634.056 302.929 635.015 308.708 636.064 314.754C642.155 314.643 648.246 314.509 654.36 314.397C660.362 314.286 666.409 314.152 672.567 314.04C673.214 307.48 673.906 301.077 674.53 294.74C674.91 290.925 675.245 287.131 675.512 283.338C675.78 279.411 675.758 275.417 675.512 271.468M534.52 169.991C534.14 170.08 533.761 170.147 533.36 170.214C532.579 170.348 531.798 170.415 530.994 170.459C529.79 170.504 528.54 170.459 527.246 170.214C518.544 168.741 509.82 167.425 501.096 166.175C492.371 164.926 483.625 163.721 474.901 162.449C473.807 162.293 472.737 162.092 471.041 161.824C471.643 161.49 472.223 161.177 472.803 160.887C476.284 159.125 479.475 158.21 483.134 158.388C483.737 158.411 484.361 158.478 485.008 158.567C495.807 160.084 506.629 161.401 517.451 162.695C525.706 163.676 533.984 164.636 542.24 165.64C542.329 165.64 542.441 165.662 542.53 165.685C543.556 165.818 544.56 166.019 545.564 166.175C541.838 167.492 538.313 169.21 534.497 170.035M540.343 156.715C540.7 156.313 541.013 155.867 541.303 155.421C541.861 154.573 542.262 153.613 542.619 152.609C542.798 152.119 542.976 151.605 543.155 151.092C543.333 150.579 543.512 150.066 543.735 149.553C545.43 149.82 547.305 150.043 549.112 150.467C549.715 150.601 550.495 151.159 550.696 151.695C551.946 155.242 553.039 158.857 554.4 163.029C548.287 162.025 542.708 161.133 536.952 160.196C538.045 159.035 539.295 157.942 540.343 156.715M524.323 148.66C524.613 146.853 525.305 145.291 526.286 144.086C527.937 142.078 530.392 141.074 533.092 141.498C534.319 141.699 535.368 142.056 536.26 142.546C537.13 143.037 537.844 143.684 538.38 144.465C539.429 146.005 539.763 148.102 539.317 150.646C539.116 151.828 538.759 152.877 538.268 153.77C537.063 156.023 535.011 157.317 532.512 157.407C532.021 157.407 531.485 157.407 530.95 157.317C529.455 157.094 528.049 156.358 526.934 155.309C525.439 153.926 524.412 152.029 524.256 150.088C524.211 149.597 524.234 149.129 524.301 148.638M517.473 145.514C516.09 150.534 517.205 154.796 520.887 158.812C519.325 158.567 517.763 158.299 516.224 158.054C513.68 157.63 511.181 157.228 508.704 156.826C506.629 156.492 504.554 156.157 502.546 155.822C503.349 154.796 504.911 153.524 505.58 151.985C505.67 151.762 505.759 151.538 505.804 151.315C506.227 149.53 505.67 147.031 504.621 145.492C503.572 143.952 501.029 143.194 498.463 143.171C496.477 143.171 494.469 143.617 493.152 144.532C490.162 146.607 490.162 149.62 493.42 155.354C492.907 155.265 492.416 155.198 491.925 155.131C489.538 154.751 487.373 154.461 485.276 153.97C484.54 153.792 483.603 152.989 483.357 152.252C481.951 148.08 480.724 143.841 479.341 139.333C492.193 141.431 504.71 143.461 517.451 145.559M444.578 134.291C449.777 135.206 454.887 136.076 460.018 136.701C461.29 136.857 462.584 136.991 463.878 137.125C470.773 137.772 474.99 140.092 476.106 147.187C476.44 149.307 477.511 151.315 478.426 153.948C471.777 152.855 465.686 151.873 459.728 150.891C460.643 149.686 462.16 148.37 462.897 146.875C463.075 146.54 463.209 146.183 463.276 145.826C463.321 145.581 463.365 145.313 463.365 145.045C463.477 143.171 462.785 140.918 461.714 139.467C461.58 139.289 461.424 139.133 461.268 138.954C461.246 138.932 461.223 138.91 461.201 138.887C461.179 138.865 461.134 138.843 461.112 138.798C460.822 138.53 460.509 138.307 460.152 138.084C459.751 137.839 459.304 137.615 458.836 137.437C457.586 136.946 456.158 136.701 454.708 136.678C452.521 136.656 450.312 137.169 448.795 138.196C445.761 140.271 445.091 142.837 446.787 147.411C447.032 148.058 447.322 148.749 447.657 149.486C446.675 149.329 445.694 149.173 444.734 149.017C441.856 148.549 439.067 148.102 436.3 147.634C435.051 147.433 433.801 147.232 432.529 147.009C431.012 146.764 429.45 146.518 427.799 146.228C426.773 146.05 425.724 145.893 424.608 145.715C429.829 143.372 432.418 139.936 432.73 134.603C432.775 133.845 432.775 133.041 432.73 132.193C436.724 132.841 440.651 133.555 444.556 134.246M412.649 132.729C413.095 130.185 414.345 128.133 416.085 126.838C417.803 125.544 420.012 124.987 422.377 125.433C425.099 125.946 427.152 127.195 428.401 129.003C429.651 130.81 430.097 133.131 429.606 135.786C429.383 137.013 428.959 138.106 428.401 139.043C426.996 141.386 424.653 142.77 421.931 142.792C421.395 142.792 420.815 142.747 420.258 142.636C419.923 142.569 419.61 142.502 419.298 142.413C414.635 141.119 411.89 137.169 412.671 132.707M381.478 218.074C381.835 205.602 382.215 193.263 382.572 180.946C382.683 176.841 382.817 172.758 382.929 168.652C383.42 168.652 383.933 168.652 384.424 168.63C384.624 172.713 384.803 176.796 385.004 180.902C385.584 193.174 386.186 205.512 386.789 218.097C384.959 218.097 383.464 218.097 381.478 218.097M386.566 133.108C386.365 130.609 386.142 128.066 385.919 125.433C387.369 125.678 388.819 125.901 390.247 126.147C395.468 126.995 400.578 127.843 405.911 128.713C403.278 134.759 405.687 139.512 410.105 144.287C402.05 142.97 394.732 141.788 387.19 140.538C386.99 138.084 386.789 135.63 386.566 133.131M397.41 150.78C397.298 149.664 397.142 148.482 397.008 147.121C406.602 148.37 416.13 149.597 425.635 150.847C439.759 152.676 453.838 154.506 468.028 156.358C464.882 158.701 461.647 159.883 458.323 160.374C457.876 160.441 457.408 160.508 456.961 160.553C456.181 160.642 455.422 160.664 454.619 160.709C454.15 160.709 453.704 160.709 453.235 160.709C451.517 160.709 449.777 160.575 448.036 160.396C441.544 159.794 435.051 159.236 428.558 158.723C419.454 157.987 410.373 157.317 401.27 156.693C398.503 156.492 397.588 155.488 397.566 152.922C397.566 152.23 397.499 151.516 397.432 150.78M467.828 217.784C463.901 217.561 459.974 217.36 456.047 217.204C437.17 216.445 418.205 216.512 399.105 217.851C398.793 203.906 398.503 190.184 398.213 176.35C398.124 171.731 398.012 167.113 397.923 162.449C400.042 162.494 402.095 162.538 404.126 162.583C406.134 162.628 408.119 162.672 410.105 162.695C438.464 163.186 466.578 165.908 494.58 169.745C497.124 170.102 499.668 170.459 502.211 170.816C509.842 171.91 517.473 173.092 525.082 174.319C527.625 174.721 530.169 175.145 532.69 175.569C535.077 175.971 537.487 176.439 539.83 177.019C542.195 177.599 544.516 178.313 546.769 179.184C547.483 179.474 548.22 179.808 548.934 180.21C551.076 181.393 553.084 183.066 554.467 184.918C564.753 198.819 573.187 213.835 580.885 229.297C580.93 229.364 580.952 229.431 580.952 229.521C581.019 229.766 581.019 230.078 581.13 230.658C543.4 225.37 505.759 220.015 467.805 217.806M394.308 318.347C394.197 318.324 394.085 318.28 393.951 318.235C393.594 318.079 393.237 317.766 392.925 317.409C392.501 316.919 392.144 316.338 391.943 315.825C389.444 309.065 386.833 302.349 384.491 295.543C383.71 293.267 382.951 290.991 382.237 288.693C378.957 278.162 376.436 267.407 366.663 260.2C373.334 258.75 378.756 259.219 383.13 261.673C384.111 262.231 385.026 262.878 385.896 263.614C386.342 263.993 386.766 264.395 387.168 264.819C388.395 266.091 389.533 267.586 390.56 269.326C390.894 269.906 391.229 270.509 391.541 271.133C392.055 272.137 392.545 273.164 393.014 274.19C394.442 277.292 395.647 280.505 396.562 283.762C399.574 294.628 403.947 304.87 409.079 314.821C409.815 316.249 410.574 317.655 411.333 319.061C411.511 319.373 411.667 319.708 411.868 320.087C412.069 320.466 412.292 320.912 412.582 321.47C406.134 320.422 400.176 319.551 394.286 318.391M473.227 296.86C472.781 297.774 472.246 298.622 471.643 299.381C469.836 301.657 467.381 303.241 464.414 304.067C461.469 304.892 458.568 305.204 455.667 305.004C455.556 305.004 455.444 304.981 455.333 304.959C454.351 304.87 453.369 304.714 452.41 304.535C450.602 304.156 448.84 303.62 447.077 302.839C439.156 299.336 435.452 291.281 437.617 282.937C439.045 277.448 442.168 273.387 446.43 271.066C447.189 270.665 447.97 270.285 448.795 269.995C449.286 269.817 449.799 269.661 450.335 269.527C452.41 268.991 454.686 268.79 457.095 268.969C457.943 269.036 458.769 269.237 459.594 269.371C460.621 269.527 461.603 269.75 462.495 269.995C464.325 270.509 465.953 271.2 467.359 272.026C468.073 272.427 468.72 272.896 469.323 273.365C470.215 274.056 470.951 274.837 471.643 275.663C476.596 281.576 476.463 290.255 473.227 296.86M664.914 296.056C664.713 296.703 664.401 298.176 663.776 299.492C661.902 303.464 658.778 305.673 654.717 306.164C654.226 306.231 653.713 306.276 653.2 306.276C650.991 306.298 649.317 305.517 647.979 304.267C646.64 303.04 645.636 301.344 644.766 299.604C643.159 296.369 642.892 292.285 643.739 288.47C644.029 287.198 644.431 285.949 644.944 284.789C645.123 284.409 645.301 284.008 645.502 283.651C646.104 282.535 646.819 281.509 647.622 280.616C648.023 280.17 648.425 279.791 648.871 279.456C649.273 279.121 649.675 278.831 650.098 278.586C650.969 278.072 651.883 277.738 652.82 277.559C653.445 277.448 654.07 277.381 654.695 277.425C654.739 277.425 654.762 277.425 654.806 277.425C655.498 277.47 656.212 277.604 656.904 277.827C658.689 278.385 660.429 279.523 661.969 281.241C663.062 282.468 663.91 283.941 664.49 285.659C665.427 288.515 665.606 291.996 664.936 296.079" fill="#A11D28"/>
</svg>
