<svg width="46" height="35" viewBox="0 0 46 35" fill="none" xmlns="http://www.w3.org/2000/svg">
<path d="M20.9598 0.58738C20.379 0.465082 19.7672 0.354572 19.1345 0.264691C16.893 2.59277 11.3017 9.31914 11.1669 18.6329C11.1699 20.1697 11.278 21.3235 11.3432 21.8922C11.3595 22.0219 11.3758 22.153 11.3936 22.2827C11.3936 22.2827 11.3729 22.1457 11.3432 21.8922C11.2055 20.7753 11.1506 19.6879 11.1669 18.6329C11.1654 17.8461 11.1906 16.9591 11.2632 15.9998C11.2632 15.9998 9.53282 16.5892 8.37279 18.8937C8.37279 18.8937 8.75057 15.5578 11.4351 14.3024C11.5077 13.7277 11.5995 13.1354 11.7121 12.5313L11.524 12.546C10.9328 12.5902 10.3639 12.7877 9.87504 13.1192L8.14611 14.2862L9.75208 12.4959C10.0543 12.1585 10.441 11.908 10.8721 11.7666L11.9418 11.4188C12.0366 10.9989 12.1433 10.5731 12.2603 10.1443L10.6884 10.0397L8.26019 11.1831L9.90319 9.60499C10.1802 9.38397 10.5239 9.26314 10.878 9.26314H12.5181C12.681 8.74006 12.8633 8.21404 13.0648 7.68654L11.4706 7.58045L9.17132 8.35549L10.6869 7.14577C10.964 6.92475 11.3077 6.80393 11.6618 6.80393H13.4233C13.6677 6.2337 13.9374 5.66494 14.2352 5.1006L12.767 5.00336L10.4676 5.7784L11.9833 4.56868C12.2603 4.34766 12.604 4.22684 12.9581 4.22684H14.7211C15.0367 3.68755 15.3804 3.15563 15.7537 2.63108L15.7404 2.64876L14.1048 2.54119L11.8055 3.31624L13.3211 2.10652C13.5981 1.8855 13.9418 1.76468 14.2959 1.76468H16.4056C16.8545 1.19887 17.3419 0.644842 17.8693 0.109974C16.3834 -0.0285318 14.81 -0.0491608 13.2351 0.123235C10.5995 2.16546 1.52075 10.9016 7.03497 31.0896C7.03497 31.0896 -1.88823 14.1108 11.1403 0.47392C10.764 0.560855 10.3891 0.658106 10.0188 0.771563C8.81872 1.13846 7.70462 1.69543 6.70607 2.40564C6.94016 2.58098 7.23201 2.84473 7.28535 3.09374C7.28535 3.09374 6.7357 2.81968 6.32828 2.68559C5.87493 3.03775 5.44826 3.42233 5.05121 3.83637C5.34603 4.00287 5.70605 4.22831 5.78605 4.33587C5.92235 4.51711 6.08087 5.39825 6.08087 5.39825C6.08087 5.39825 5.50752 4.66004 5.0364 4.51711C4.87639 4.46849 4.71491 4.41691 4.5712 4.36829C4.21119 4.79265 3.88081 5.24353 3.58303 5.71799C3.96081 6.00973 4.46305 6.4282 4.56083 6.66248C4.71935 7.04705 4.96973 8.28918 4.96973 8.28918C4.96973 8.28918 3.69859 6.57849 3.15191 6.46209C2.9919 6.76267 2.84523 7.06915 2.71041 7.38447C2.62448 7.58634 2.54152 7.79115 2.46003 8.00039C2.74004 8.29655 3.19635 8.80932 3.46154 9.10991C3.6008 9.26757 3.70451 9.4547 3.76377 9.65656L4.19638 11.1138L3.45414 10.1207C3.1682 9.7376 2.77116 9.4488 2.31633 9.29409L2.03484 9.19831C1.83631 9.81275 1.65854 10.4567 1.50298 11.1344L2.27189 11.8579C2.41559 11.9935 2.52967 12.1585 2.60374 12.3412L3.35488 14.1875L2.29262 12.8481C2.12669 12.6389 1.90002 12.4827 1.64371 12.4031L1.26889 12.2852C1.14296 12.991 1.04073 13.7307 0.96814 14.5028L2.04817 15.5769C2.30892 15.8363 2.49708 16.1575 2.59634 16.5096L3.2408 18.8186L2.0052 17.0165C1.71631 16.5966 1.3237 16.2562 0.865915 16.0293C0.748875 18.8569 1.00815 22.0941 1.79928 25.7925C2.47485 28.9486 4.4349 31.6893 7.21868 33.3469C7.23349 33.3558 7.24979 33.3646 7.2646 33.3735C11.4055 35.8297 20.5168 34.7747 20.5168 34.7747C5.57715 15.7803 20.9613 0.578535 20.9613 0.578535" fill="white"/>
<path d="M22.564 24.0508C21.6439 22.402 21.0632 19.9958 21.0632 17.3141C21.0632 12.5489 22.8944 8.65014 25.21 8.33776C25.5344 8.00771 25.8959 7.62608 25.9744 7.48905C26.0796 7.30634 29.8842 7.77196 32.099 8.06076C31.5242 6.46647 30.7375 4.97532 29.6175 3.61089C26.9196 0.322113 23.4825 0.344215 20.7476 3.61089C20.3328 4.10597 19.9772 4.65705 19.6498 5.21402C17.752 8.4468 16.9994 12.0185 16.8023 15.6859C16.509 21.1834 17.1268 26.5528 20.3787 31.2325C23.1862 35.2727 27.2619 35.1976 30.0857 31.175C30.8901 30.0287 31.5079 28.8175 31.9909 27.5503C30.0205 28.8219 28.2486 29.1578 28.2486 29.1578C23.8159 29.8135 22.7966 25.7954 22.5625 24.0523" fill="white"/>
<path d="M39.5341 25.492C40.0156 26.0858 41.1134 26.9198 43.3372 26.5028C44.0454 26.245 44.6143 25.8707 45.0054 25.3344C45.2395 25.0117 45.4098 24.6315 45.5091 24.1836C45.6632 23.4837 45.6572 22.8221 45.3313 22.218C45.2558 22.0795 45.1639 21.9425 45.0528 21.8099C45.0409 21.7966 45.0306 21.7833 45.0187 21.7715C44.9402 21.6876 44.8617 21.6404 44.7209 21.6463C43.7816 21.6802 42.8424 21.6934 41.9016 21.717C40.7786 21.745 39.6571 21.773 38.5341 21.8025C37.4111 21.832 36.2896 21.8585 35.1666 21.8806C35.0851 21.8821 35.0022 21.885 34.9207 21.8894C34.8792 21.8909 34.8392 21.8924 34.7977 21.8953C34.5518 21.9071 34.3044 21.9204 34.0584 21.9174C33.771 21.913 33.4836 21.885 33.1992 21.8025C33.1251 21.7804 33.0451 21.773 32.9636 21.7701C32.9236 21.7701 32.8821 21.7701 32.8421 21.7701C32.8021 21.7701 32.7606 21.773 32.7206 21.7745C32.0347 21.801 31.3487 21.8423 30.6613 21.8599C30.5724 21.8614 30.482 21.8511 30.3932 21.832C30.3043 21.8128 30.2154 21.7848 30.1309 21.7539C30.008 21.7082 29.9072 21.5785 29.8539 21.4371C29.8228 21.3516 29.8094 21.2617 29.8183 21.1822C29.8435 20.9641 30.008 20.8801 30.1902 20.8329C30.3591 20.7902 30.5339 20.7504 30.7072 20.7504C31.1191 20.749 31.5295 20.7504 31.9413 20.7534C32.3443 20.7563 32.7458 20.7607 33.1488 20.7652C33.3488 20.7681 33.5488 20.7725 33.7488 20.7799C33.7606 20.7799 33.774 20.7799 33.7858 20.7799C33.9858 20.7858 34.1858 20.7932 34.3858 20.7991C34.3903 20.7843 34.3947 20.7711 34.3977 20.7578C34.4095 20.7195 34.4184 20.69 34.4258 20.6606C34.5888 20.0108 34.7444 19.358 34.9162 18.7112C35.097 18.026 35.2822 17.7048 35.7133 17.5736C35.8703 17.525 36.06 17.5029 36.294 17.4955C36.3518 17.4941 36.414 17.4926 36.4777 17.4941C36.7385 17.4941 37.0007 17.4985 37.2615 17.5014C37.7845 17.5088 38.3074 17.5221 38.8289 17.5397C39.0897 17.5486 39.3519 17.5574 39.6126 17.5677C39.9386 17.581 40.2645 17.6002 40.5904 17.6252C40.9164 17.6503 41.2408 17.6827 41.5653 17.7195C42.1179 17.7829 42.4868 18.1041 42.6527 18.6375C42.715 18.8364 42.7742 19.0397 42.8127 19.2445C42.8364 19.3698 42.8601 19.495 42.8824 19.6203C42.9505 19.9975 43.0142 20.3791 43.0853 20.7784C43.4898 20.7711 43.8942 20.7622 44.3002 20.7548C44.6987 20.7475 45.1002 20.7386 45.5091 20.7313C45.5521 20.2981 45.598 19.8752 45.6395 19.4567C45.6632 19.2048 45.6869 18.9543 45.7047 18.7038C45.7224 18.4445 45.721 18.1807 45.7047 17.9199C45.6987 17.833 45.6928 17.746 45.6839 17.6591C45.6706 17.525 45.6469 17.3998 45.6098 17.2834C45.4543 16.778 45.0869 16.4332 44.5372 16.2519C44.2187 16.1458 43.8883 16.0707 43.5594 16.0044C42.3816 15.7686 41.2023 15.5476 40.0245 15.3089C40.0023 15.3045 39.9786 15.2957 39.9549 15.2839C39.9208 15.2662 39.8853 15.2411 39.8556 15.2117C39.8364 15.1925 39.8171 15.1719 39.8023 15.1513C39.7949 15.1409 39.7875 15.1306 39.7815 15.1203C39.746 15.0555 39.7104 14.9921 39.6734 14.9273C39.306 14.2716 38.9519 13.6085 38.58 12.9558C38.4585 12.7421 38.3326 12.53 38.1919 12.334C37.8822 11.9023 37.497 11.5427 36.9104 11.388C37.3089 11.2731 37.7074 11.1582 38.1089 11.0418C38.0348 10.8281 37.9474 10.6336 37.8882 10.4376C37.8689 10.3728 37.8511 10.3065 37.8393 10.2402C37.7533 9.779 37.5207 9.53588 37.0718 9.52704C37.0422 9.52704 37.0111 9.52704 36.9785 9.52704C36.9518 9.52704 36.9207 9.52262 36.8896 9.51526C36.8437 9.50347 36.8022 9.48284 36.7741 9.45484C36.7696 9.45042 36.7622 9.446 36.7592 9.44158C36.6689 9.32076 36.5385 9.24266 36.3948 9.19993C36.3711 9.19256 36.3459 9.18667 36.3222 9.18078C36.2481 9.16457 36.1711 9.1572 36.0955 9.15573C35.9429 9.15278 35.7948 9.1793 35.6748 9.22203C35.5918 9.2515 35.4955 9.26918 35.4036 9.26771C35.3725 9.26771 35.3429 9.26476 35.3133 9.26034C33.4332 8.9627 31.5532 8.66064 29.6746 8.35269C29.5502 8.33206 29.4316 8.27312 29.3102 8.23039C29.282 8.22008 29.2539 8.20976 29.2242 8.20387C29.1087 8.1744 28.9827 8.13019 28.8642 8.11251C28.799 8.10367 28.7368 8.1022 28.679 8.11693C28.4864 8.16703 28.3012 8.16851 28.1175 8.15082C28.0079 8.14051 27.8968 8.1243 27.7857 8.10662C27.3753 8.04621 26.9664 7.98285 26.5545 7.93128C26.4805 7.92244 26.3812 7.93864 26.3279 7.98285C25.4849 8.67832 24.6463 9.38117 23.8093 10.0855C23.7648 10.1223 23.7145 10.1827 23.7115 10.2343C23.6937 10.5378 23.6893 10.8428 23.6804 11.1434C23.7945 11.1817 23.8848 11.2127 24.0078 11.2539C23.8567 11.3276 23.7426 11.3924 23.6196 11.4425C23.2878 11.5796 23.0878 11.8094 22.9752 12.1587C22.6522 13.1695 22.2966 14.1699 21.9588 15.1763C21.9011 15.3472 21.8581 15.5226 21.8077 15.7082C21.8077 15.7333 21.8077 15.7583 21.8077 15.7834C22.5796 15.7082 23.3411 15.6964 24.0967 15.7303C24.2967 15.7392 24.4967 15.751 24.6967 15.7657C24.6997 15.7657 24.7011 15.7657 24.7041 15.7657C24.9041 15.7804 25.1056 15.7996 25.3056 15.8202H25.313C25.5115 15.8423 25.7101 15.8659 25.9086 15.8909H25.9204C26.1204 15.9189 26.3204 15.9469 26.5205 15.9779C27.2005 16.0825 27.8701 16.2446 28.5487 16.3639C28.7087 16.3919 28.8701 16.4111 29.0346 16.4258C29.1161 16.4332 29.199 16.4405 29.2835 16.4494C29.3664 16.4568 29.4509 16.4656 29.5368 16.4744C29.5383 16.4111 29.5398 16.3625 29.5413 16.3212C29.5413 16.3006 29.5413 16.2814 29.5428 16.2637C29.5428 16.246 29.5428 16.2284 29.5457 16.2122C29.5591 15.9528 29.6553 15.8585 29.9146 15.8703C30.685 15.9086 31.4569 15.9572 32.2273 15.9897C32.2643 15.9911 32.2999 15.9941 32.3354 15.997C32.5799 16.0236 32.7606 16.112 32.7828 16.3757C34.5414 16.445 36.2748 16.4803 38.0037 16.5894C38.4378 16.6159 38.8719 16.6483 39.3045 16.6822C39.9549 16.7338 40.6053 16.7927 41.2542 16.8516C41.9046 16.9106 42.5535 16.971 43.2039 17.027C43.2927 16.747 43.315 16.6763 43.4898 16.6822C43.5342 16.6837 43.5876 16.6896 43.6542 16.6984C43.6765 16.7013 43.7002 16.7043 43.7253 16.7087C43.872 16.7293 44.0172 16.7529 44.1624 16.7765C44.3076 16.7986 44.4543 16.8192 44.6009 16.8325C44.7595 16.8472 44.8572 16.9121 44.915 17.0373C44.9239 17.055 44.9313 17.0741 44.9372 17.0948C44.9683 17.1876 45.0069 17.2789 45.0261 17.3733C45.078 17.6223 45.0024 17.7593 44.7876 17.7755C44.7565 17.7785 44.7239 17.7785 44.6869 17.7755C44.4913 17.7622 44.2957 17.7446 44.1002 17.7225C44.0024 17.7121 43.9046 17.7004 43.8068 17.6871C43.709 17.6753 43.6127 17.6606 43.515 17.6473C43.5031 17.6458 43.4913 17.6414 43.4794 17.637C43.4246 17.6149 43.3624 17.5648 43.3342 17.5176C43.3253 17.5029 43.3194 17.4896 43.3194 17.4779C43.309 17.3438 43.2631 17.2686 43.192 17.2274C43.1564 17.2067 43.115 17.1935 43.069 17.1861C43.0231 17.1788 42.9742 17.1758 42.9209 17.1758C42.8616 17.1758 42.8024 17.1699 42.7431 17.164C42.6838 17.1581 42.6246 17.1508 42.5653 17.1463C41.8838 17.0874 41.2023 17.0211 40.5193 16.9607C39.8378 16.8988 39.1549 16.8428 38.4719 16.8045C37.2896 16.7382 36.1029 16.7235 34.9192 16.6999C34.7503 16.6969 34.5814 16.6925 34.411 16.6896C34.2821 16.6866 34.1518 16.6851 34.0229 16.6837C33.6347 16.6807 33.2466 16.6837 32.8628 16.6837C32.848 16.7323 32.8332 16.7765 32.8184 16.8178C32.7488 16.999 32.6599 17.0962 32.5102 17.139H32.5073C32.4421 17.1566 32.3651 17.1655 32.2732 17.1655C32.2495 17.1655 32.2258 17.1655 32.2006 17.164C31.5547 17.1375 30.9102 17.0874 30.2657 17.0786C29.9798 17.0741 29.7487 17.0226 29.6361 16.8119C29.6198 16.7824 29.6065 16.7485 29.5946 16.7117C29.2257 16.6704 28.8924 16.6439 28.5605 16.5923C28.525 16.5864 28.4938 16.5849 28.4672 16.5864C28.4642 16.5864 28.4612 16.5864 28.4583 16.5879C28.4361 16.5908 28.4153 16.5967 28.399 16.607C28.3842 16.6159 28.3724 16.6292 28.362 16.6454C28.3457 16.6689 28.3324 16.6999 28.322 16.7411C28.3146 16.7691 28.3072 16.7971 28.2983 16.8251C28.2686 16.9224 28.2331 17.0181 28.2005 17.1169C28.1042 17.1021 28.0286 17.0889 27.9531 17.0771C26.7338 16.8767 25.5175 16.6454 24.2922 16.4877C24.2463 16.4818 24.1989 16.4774 24.153 16.4715C23.393 16.3845 22.6226 16.3845 21.8566 16.3448C21.8403 16.3448 21.824 16.3448 21.8077 16.3448C21.8151 17.528 21.8818 18.8865 22.0833 20.1537C22.2196 20.7106 22.3959 21.219 22.6166 21.5564L23.6774 22.1149C23.4567 22.5731 23.3041 23.0343 23.227 23.4984C23.2048 23.6045 23.1974 23.7018 23.1974 23.7018C23.1011 24.521 23.2493 25.3447 23.7056 26.1698C24.3471 27.328 25.3175 28.1104 26.6716 28.2342C27.9175 28.3461 29.0613 27.9837 30.0524 27.2027C30.2494 27.048 30.4198 26.8771 30.5665 26.6914C30.5665 26.6914 30.5709 26.6856 30.5739 26.6826C30.5872 26.6649 30.6006 26.6458 30.6139 26.6281C30.645 26.5854 30.6746 26.5426 30.7028 26.4984C30.7146 26.4807 30.7265 26.4631 30.7383 26.4439C30.7739 26.3864 30.805 26.3275 30.8361 26.2686C30.845 26.2509 30.8539 26.2317 30.8628 26.2126C30.888 26.1581 30.9132 26.1021 30.9354 26.0446C30.9398 26.0328 30.9458 26.021 30.9502 26.0092C30.9754 25.9415 30.9961 25.8722 31.0154 25.8015C31.0198 25.7838 31.0243 25.7661 31.0287 25.7484C31.0465 25.6748 31.0643 25.5996 31.0761 25.523C31.1487 25.0751 31.2228 24.6286 31.2954 24.1807C31.3443 24.1718 31.3828 24.1615 31.4198 24.1571C31.4317 24.1556 31.4435 24.1541 31.4554 24.1541C32.6258 24.0908 33.7947 24.0289 34.9651 23.967C36.1355 23.9051 37.3044 23.8418 38.4748 23.7769C38.5371 23.774 38.5845 23.7813 38.6215 23.8034C38.6585 23.8256 38.6867 23.8624 38.7134 23.9199C38.8778 24.2794 39.0467 24.636 39.2156 24.994C39.223 25.0102 39.2349 25.0367 39.2526 25.0721C39.2986 25.1694 39.4719 25.4331 39.4823 25.4419C39.4867 25.4449 39.5326 25.5009 39.5341 25.5009M31.6939 20.0667C31.4984 20.1213 31.3058 20.1419 31.1132 20.1286C31.1058 20.1286 31.0983 20.1272 31.0909 20.1257C31.0258 20.1198 30.9606 20.1109 30.8969 20.0977C30.7769 20.0726 30.6583 20.0373 30.5428 19.9857C30.0168 19.7544 29.7709 19.2224 29.9146 18.6714C30.0094 18.3104 30.2168 18.0407 30.4998 17.8875C30.5502 17.861 30.602 17.8359 30.6569 17.8168C30.6895 17.805 30.7235 17.7947 30.7576 17.7858C30.8969 17.7505 31.0465 17.7372 31.2065 17.749C31.2628 17.7534 31.3176 17.7667 31.3724 17.7755C31.4406 17.7858 31.5043 17.8005 31.5665 17.8168C31.688 17.8506 31.7947 17.8963 31.8895 17.9508C31.9369 17.9774 31.9799 18.0083 32.0199 18.0393C32.0791 18.0849 32.128 18.1365 32.1739 18.191C32.5028 18.5815 32.4939 19.1547 32.2791 19.5908C32.2495 19.6512 32.2139 19.7072 32.1739 19.7573C32.0539 19.9076 31.891 20.0122 31.6939 20.0667ZM28.1709 21.0584C28.1827 21.079 28.1931 21.1011 28.2064 21.1262C28.2198 21.1512 28.2346 21.1807 28.2538 21.2175C27.8257 21.1483 27.4301 21.0908 27.039 21.0142C27.0316 21.0127 27.0242 21.0098 27.0153 21.0068C26.9916 20.9965 26.9679 20.9759 26.9471 20.9523C26.919 20.9199 26.8953 20.8816 26.8819 20.8477C26.716 20.4012 26.5427 19.9577 26.3871 19.5068C26.3353 19.3565 26.2849 19.2062 26.2375 19.0545C26.0197 18.3605 25.8508 17.6488 25.2034 17.1729C25.6464 17.0771 26.0064 17.108 26.2967 17.2701C26.3619 17.3055 26.4227 17.3497 26.4805 17.3983C26.5101 17.4233 26.5382 17.4499 26.5649 17.4779C26.6464 17.5618 26.7219 17.6606 26.7901 17.7755C26.8123 17.8138 26.8345 17.8536 26.8553 17.8949C26.8894 17.9612 26.9219 18.0289 26.9531 18.0967C27.0464 18.3015 27.1279 18.5137 27.1886 18.7288C27.3886 19.4464 27.6775 20.1227 28.0198 20.7784C28.0686 20.8727 28.119 20.9656 28.1694 21.0584M28.2049 25.6762C27.8746 26.4704 27.2153 26.8432 26.3412 26.7622C25.7352 26.7047 25.2552 26.4336 24.9219 25.9341C24.2908 24.9866 24.1737 23.9744 24.6389 22.9282C24.9026 22.3344 25.3471 21.969 25.8597 21.8555C25.9027 21.8467 25.9441 21.8364 25.9871 21.8305C26.0049 21.8275 26.0241 21.8275 26.0419 21.8261C26.0864 21.8216 26.1293 21.8172 26.1738 21.8157C26.193 21.8157 26.2138 21.8157 26.233 21.8172C26.276 21.8172 26.3205 21.8172 26.3649 21.8231C26.3871 21.8246 26.4093 21.829 26.4316 21.8334C26.4745 21.8393 26.516 21.8437 26.559 21.8526C26.5842 21.8585 26.6108 21.8658 26.636 21.8717C26.676 21.8821 26.7145 21.8909 26.7545 21.9027C26.7856 21.913 26.8153 21.9248 26.8464 21.9366C26.8819 21.9498 26.916 21.9601 26.9516 21.9764C26.9901 21.9926 27.0286 22.0132 27.0686 22.0323C27.0953 22.0456 27.122 22.0574 27.1486 22.0721C27.2138 22.1075 27.2805 22.1473 27.3442 22.1915C27.3916 22.2239 27.4375 22.2563 27.4805 22.2902C28.1353 22.7956 28.3961 23.5102 28.4361 24.3265C28.4449 24.493 28.4316 24.6595 28.4198 24.8305C28.4153 24.8879 28.4124 24.9454 28.4094 25.0029C28.402 25.0279 28.3946 25.0544 28.3857 25.0809C28.3294 25.2784 28.279 25.4832 28.199 25.6748M39.4186 15.1321C39.4186 15.1321 39.423 15.1409 39.423 15.1468C39.4275 15.163 39.4275 15.1837 39.4349 15.222C36.9296 14.8728 34.4303 14.5191 31.9102 14.3718C31.6495 14.3571 31.3902 14.3438 31.1295 14.3335C29.8761 14.2834 28.6168 14.2878 27.3486 14.3762C27.3279 13.4553 27.3086 12.5491 27.2894 11.6356C27.282 11.3306 27.276 11.0256 27.2686 10.7176C27.4094 10.7206 27.5457 10.7235 27.6805 10.7264C27.8138 10.7294 27.9457 10.7323 28.0775 10.7338C29.9605 10.7662 31.8273 10.946 33.6866 11.1994C33.8555 11.223 34.0244 11.2466 34.1932 11.2702C34.6999 11.3424 35.2066 11.4204 35.7118 11.5015C35.8807 11.528 36.0496 11.556 36.217 11.584C36.3755 11.6105 36.534 11.6415 36.6911 11.6798C36.8481 11.7181 37.0022 11.7652 37.1518 11.8227C37.2007 11.8419 37.2481 11.864 37.2955 11.8905C37.4378 11.9686 37.5711 12.0791 37.663 12.2014C38.3459 13.1193 38.906 14.111 39.4171 15.1321M26.1249 10.4642C25.8953 10.5393 25.6671 10.6204 25.4404 10.7043C25.2137 10.7883 24.9871 10.8723 24.7604 10.9548C24.7397 10.9622 24.7204 10.9696 24.7026 10.9755C24.6997 10.9755 24.6952 10.9769 24.6923 10.9784C24.6774 10.9843 24.6626 10.9887 24.6493 10.9931C24.6463 10.9931 24.6419 10.9961 24.6389 10.9961C24.6256 11.0005 24.6123 11.0049 24.5989 11.0079L24.5915 11.0108C24.5767 11.0152 24.5619 11.0182 24.5471 11.0211C24.4863 11.0344 24.4315 11.0388 24.3693 11.0329C24.2848 11.0256 24.1871 11.002 24.0389 10.9607C24.2271 10.8532 24.4123 10.7471 24.596 10.6425C24.7382 10.5614 24.8789 10.4804 25.0197 10.3993C25.0849 10.361 25.1515 10.3242 25.2167 10.2873C25.4078 10.1783 25.5975 10.0693 25.7886 9.96024C25.8108 9.94845 25.8315 9.93519 25.8538 9.9234C25.8834 9.9072 25.919 9.9013 25.959 9.90572C25.9708 9.9072 25.9841 9.91162 25.9975 9.91456C26.0108 9.91751 26.0227 9.92193 26.036 9.92635C26.1145 9.95582 26.1916 10.0133 26.2419 10.087C26.2553 10.1061 26.2656 10.1267 26.2745 10.1488C26.3101 10.2402 26.3175 10.3168 26.2716 10.3758C26.2449 10.4111 26.1975 10.4406 26.1264 10.4642M25.193 14.0476C25.193 14.0638 25.19 14.0786 25.1871 14.0918C25.1797 14.1331 25.1663 14.164 25.1426 14.1861C25.113 14.2156 25.0671 14.2303 25.0019 14.2348C24.9219 14.2407 24.8419 14.248 24.7619 14.2554C24.7382 14.2583 24.713 14.2598 24.6893 14.2628C24.63 14.2687 24.5723 14.2745 24.5115 14.2819C24.4952 14.2834 24.4774 14.2863 24.4597 14.2878C24.3545 14.2996 24.2478 14.3114 24.1382 14.3246C24.11 14.3276 24.0804 14.3305 24.0522 14.3335C24.0537 14.2171 24.0567 14.1007 24.0597 13.9857C24.0819 13.8826 24.1026 13.7795 24.1234 13.6778C24.2137 13.2431 24.3011 12.8202 24.3885 12.3988C24.3915 12.3841 24.3945 12.3694 24.3974 12.3546C24.4567 12.0673 24.5145 11.78 24.5767 11.4926C24.6063 11.3556 24.7026 11.2436 24.8256 11.1817C24.8997 11.1449 24.9841 11.1243 25.0686 11.1287C25.2345 11.1346 25.2597 11.2554 25.2656 11.3748C25.2656 11.3762 25.2656 11.3792 25.2656 11.3807C25.2863 11.7903 25.3204 12.1999 25.3071 12.6081C25.2908 13.0884 25.2256 13.5673 25.1901 14.0476M28.8924 8.27607C29.0731 8.30996 29.2094 8.39247 29.2939 8.51183C29.3768 8.63118 29.4065 8.78441 29.3739 8.95976C29.3576 9.0408 29.3309 9.113 29.2939 9.17489C29.2005 9.3296 29.045 9.42095 28.8642 9.42243C28.8272 9.42243 28.7901 9.41948 28.7531 9.41211C28.7309 9.40769 28.7101 9.40327 28.6894 9.39738C28.3798 9.31339 28.1975 9.05111 28.2494 8.75642C28.279 8.58844 28.362 8.45289 28.4775 8.36742C28.5916 8.28196 28.7383 8.24513 28.8953 8.2746M29.5842 8.88019C29.5872 8.83009 29.5872 8.77705 29.5842 8.72106C29.8494 8.76379 30.1117 8.81094 30.3694 8.85662C30.7146 8.91703 31.0539 8.97449 31.3947 9.01575C31.4806 9.02606 31.565 9.0349 31.651 9.04374C32.1087 9.08648 32.3888 9.23972 32.4628 9.70828C32.4851 9.84826 32.5562 9.98087 32.6169 10.1547C32.1754 10.0825 31.7695 10.0177 31.3754 9.95287C31.4347 9.87331 31.5354 9.78637 31.5858 9.68765C31.5976 9.66555 31.6065 9.64197 31.611 9.61692C31.6139 9.60072 31.6154 9.58303 31.6169 9.56535C31.6243 9.44158 31.5784 9.29276 31.5072 9.19699C31.4984 9.1852 31.488 9.17488 31.4776 9.16457C31.4761 9.1631 31.4747 9.16162 31.4732 9.16015C31.4717 9.15868 31.4687 9.1572 31.4673 9.15573C31.448 9.13805 31.4272 9.12184 31.4035 9.10858C31.3769 9.09237 31.3472 9.07763 31.3161 9.06585C31.2332 9.03343 31.1384 9.01722 31.0421 9.01575C30.8969 9.01427 30.7502 9.04816 30.6495 9.11594C30.448 9.25298 30.4035 9.4239 30.5161 9.72448C30.5324 9.76722 30.5517 9.81289 30.5739 9.86152C30.5087 9.8512 30.4435 9.84089 30.3798 9.83057C30.1887 9.79963 30.0035 9.77016 29.8198 9.73922C29.7368 9.72596 29.6539 9.7127 29.5694 9.69944C29.4687 9.68323 29.365 9.66555 29.2553 9.64787C29.1872 9.63755 29.1176 9.62576 29.0435 9.61397C29.3902 9.45926 29.562 9.23235 29.5828 8.88019M32.9221 10.4509C32.9621 10.4524 33.0036 10.4568 33.0465 10.4627C33.7636 10.5629 34.4821 10.6498 35.2007 10.7353C35.7488 10.8001 36.2985 10.8635 36.8467 10.9298C36.8526 10.9298 36.8585 10.9313 36.8659 10.9327C36.9341 10.9416 37.0007 10.9548 37.0674 10.9651C36.82 11.0521 36.5859 11.1655 36.3326 11.2201C36.3074 11.2259 36.2822 11.2304 36.2555 11.2348C36.2037 11.2436 36.1518 11.2481 36.0985 11.251C36.0185 11.2539 35.9355 11.251 35.8496 11.2348C35.2718 11.1375 34.6925 11.0506 34.1132 10.9681C33.534 10.8856 32.9532 10.806 32.3739 10.722C32.3013 10.7117 32.2302 10.6984 32.1176 10.6808C32.1576 10.6587 32.1962 10.638 32.2347 10.6189C32.4658 10.5039 32.6777 10.4421 32.9206 10.4539M36.2392 9.33844C36.3207 9.3517 36.3903 9.37527 36.4496 9.40769C36.5089 9.44011 36.5548 9.48284 36.5903 9.53441C36.66 9.63755 36.6822 9.77459 36.6526 9.94403C36.6392 10.0221 36.6155 10.0914 36.5829 10.1503C36.5015 10.2991 36.3666 10.3846 36.2007 10.3905C36.1681 10.3905 36.134 10.3905 36.0985 10.3846C35.9992 10.3699 35.9059 10.3198 35.8318 10.252C35.7325 10.1606 35.6644 10.0354 35.654 9.9072C35.6511 9.87478 35.6525 9.84383 35.657 9.81142C35.6762 9.69207 35.7222 9.58893 35.7874 9.50936C35.897 9.37675 36.06 9.31044 36.2392 9.33844ZM36.7844 10.2579C36.8215 10.2019 36.8481 10.1385 36.8718 10.0722C36.8837 10.0398 36.8955 10.0059 36.9074 9.97203C36.9192 9.93814 36.9311 9.90425 36.9459 9.87036C37.0585 9.88804 37.183 9.90277 37.3044 9.93077C37.3444 9.93961 37.3963 9.97645 37.4096 10.0118C37.4926 10.2461 37.5652 10.4848 37.6556 10.7618C37.2496 10.6955 36.8807 10.6366 36.497 10.5732C36.5681 10.4966 36.6526 10.4244 36.7222 10.3433C36.7459 10.3168 36.7666 10.2873 36.7859 10.2579M29.1072 9.95435C30.045 10.0752 30.9798 10.196 31.9221 10.3183C31.7132 10.473 31.4984 10.5511 31.2776 10.5835C31.248 10.5879 31.2184 10.5924 31.1872 10.5953C31.1354 10.5997 31.085 10.6041 31.0332 10.6056C31.002 10.6056 30.9724 10.6056 30.9413 10.6056C30.8272 10.6056 30.7117 10.5968 30.5961 10.585C30.165 10.5452 29.7339 10.5084 29.3027 10.4745C28.6983 10.4259 28.0953 10.3816 27.4908 10.3404C27.3071 10.3271 27.2464 10.2608 27.2449 10.0914C27.2449 10.0457 27.2405 9.99855 27.236 9.94992C27.2286 9.87625 27.2182 9.79816 27.2094 9.70828C27.8464 9.79079 28.479 9.87183 29.1101 9.95435M35.4362 10.4818C35.3325 10.4656 35.2288 10.448 35.1266 10.4318C34.9577 10.4052 34.7918 10.3772 34.6273 10.3507C34.4895 10.3286 34.3518 10.3065 34.2184 10.2844C34.2718 10.2152 34.3755 10.1326 34.4199 10.031C34.4258 10.0162 34.4318 10.0015 34.4347 9.98676C34.4629 9.86888 34.4258 9.70533 34.3562 9.60219C34.2866 9.50052 34.1177 9.45042 33.9473 9.44895C33.8155 9.44895 33.6821 9.47842 33.5947 9.53883C33.3962 9.67586 33.3962 9.87478 33.6125 10.2535C33.5784 10.2476 33.5458 10.2431 33.5132 10.2387C33.3547 10.2137 33.211 10.1945 33.0717 10.1621C33.0228 10.1503 32.9606 10.0973 32.9443 10.0486C32.851 9.77311 32.7695 9.49315 32.6777 9.19404C33.531 9.33254 34.3621 9.46663 35.2081 9.60513C35.1162 9.93666 35.1903 10.2181 35.4348 10.4833M28.0775 9.52262C27.5427 9.43569 27.0568 9.3576 26.556 9.27655C26.5427 9.11447 26.5293 8.95239 26.5145 8.78736C26.5012 8.62233 26.4864 8.45436 26.4716 8.28049C26.5679 8.2967 26.6642 8.31143 26.759 8.32764C27.1057 8.38363 27.4449 8.43962 27.799 8.49709C27.6242 8.8964 27.7827 9.21025 28.0761 9.5241M26.3723 11.1346C26.3856 11.4042 26.3975 11.6739 26.4108 11.945C26.4493 12.7554 26.4893 13.5702 26.5293 14.4013C26.4079 14.4013 26.3086 14.4013 26.1767 14.4013C26.2019 13.5776 26.2256 12.7628 26.2493 11.9494C26.2567 11.6783 26.2656 11.4087 26.273 11.1375C26.3056 11.1375 26.3397 11.1375 26.3723 11.1361M24.1811 10.1518C24.5397 9.86152 24.8908 9.56388 25.2434 9.26476C25.4671 9.07469 25.6908 8.88461 25.916 8.69453C25.9678 8.65033 26.0227 8.60907 26.1027 8.54424C26.1441 8.79768 26.1841 9.02606 26.2138 9.25592C26.2138 9.26329 26.2167 9.27213 26.2167 9.2795C26.2167 9.28834 26.2167 9.30013 26.2123 9.31192C26.2034 9.33549 26.1871 9.36054 26.1679 9.37969C26.1575 9.39001 26.1486 9.39738 26.1382 9.40327C25.593 9.72301 25.0449 10.0398 24.4967 10.3566C24.3485 10.4421 24.1989 10.529 24.0508 10.6145C24.0404 10.6204 24.0241 10.6145 24.0093 10.613C23.9663 10.4214 24.0167 10.2844 24.1811 10.1518ZM23.6004 14.2377C23.5737 14.3659 23.5174 14.4263 23.39 14.4543C23.0981 14.5206 22.8107 14.6002 22.4848 14.6842C22.59 14.3394 22.6804 14.0255 22.7826 13.7146C22.9204 13.2976 23.0774 12.8865 23.2063 12.4681C23.3663 11.9479 23.8063 11.752 24.2611 11.5044C24.1056 12.1483 23.9589 12.7554 23.8107 13.3625C23.7396 13.6542 23.6611 13.943 23.6019 14.2362M44.1965 18.3163C44.2379 18.3089 44.2794 18.3059 44.3209 18.3074C44.3224 18.3074 44.3254 18.3074 44.3283 18.3074C44.3742 18.3104 44.4217 18.3192 44.4676 18.3339C44.5861 18.3708 44.7017 18.4459 44.8039 18.5594C44.8765 18.6404 44.9328 18.7377 44.9713 18.8511C45.0335 19.0397 45.0454 19.2696 44.9995 19.5392C44.9861 19.582 44.9654 19.6792 44.9239 19.7662C44.7994 20.027 44.592 20.1743 44.3224 20.2067C44.2898 20.2111 44.2557 20.2141 44.2217 20.2141C44.075 20.2156 43.9639 20.164 43.875 20.0815C43.7861 20.0004 43.7194 19.8885 43.6616 19.7735C43.5564 19.5599 43.5387 19.2902 43.5935 19.0383C43.6128 18.9543 43.6394 18.8718 43.6735 18.7951C43.6854 18.7686 43.6972 18.7436 43.7105 18.72C43.7505 18.6463 43.7965 18.5785 43.8513 18.5196C43.8779 18.4901 43.9046 18.4651 43.9342 18.443C43.9609 18.4209 43.9876 18.4017 44.0157 18.3855C44.0735 18.3516 44.1342 18.3295 44.1965 18.3163Z" fill="white"/>
<path d="M45.7051 17.914C45.6992 17.8271 45.6933 17.7401 45.6844 17.6532C45.671 17.5191 45.6473 17.3939 45.6103 17.2775C45.4547 16.7721 45.0873 16.4273 44.5377 16.246C44.2191 16.14 43.8888 16.0648 43.5599 15.9985C42.3821 15.7642 41.2013 15.5417 40.025 15.303C40.0027 15.2986 39.979 15.2898 39.9553 15.278C39.9198 15.2603 39.8857 15.2353 39.8561 15.2073C39.8368 15.1881 39.8175 15.1675 39.8027 15.1468C39.7953 15.1365 39.7879 15.1262 39.782 15.1159C39.7464 15.0525 39.7109 14.9877 39.6738 14.9229C39.3064 14.2672 38.9523 13.6041 38.5805 12.9514C38.459 12.7377 38.3331 12.5255 38.1923 12.3296C37.8827 11.8978 37.4975 11.5383 36.9108 11.3836C37.3093 11.2687 37.7079 11.1537 38.1094 11.0373C38.0353 10.8237 37.9479 10.6292 37.8886 10.4332C37.8693 10.3684 37.8516 10.3021 37.8397 10.2373C37.7538 9.77606 37.5212 9.53294 37.0723 9.5241C37.0427 9.5241 37.0115 9.5241 36.979 9.5241C36.9523 9.5241 36.9212 9.51967 36.8901 9.51231C36.8441 9.50052 36.8026 9.47989 36.7745 9.45337C36.7701 9.44895 36.7627 9.44453 36.7597 9.44011C36.6693 9.31928 36.5389 9.24119 36.3952 9.19846C36.3715 9.19109 36.3463 9.1852 36.3226 9.17931C36.2486 9.1631 36.1715 9.15425 36.096 9.15425C35.9449 9.15131 35.7952 9.17783 35.6752 9.22056C35.5922 9.25003 35.4959 9.26771 35.4041 9.26624C35.373 9.26624 35.3434 9.26329 35.3152 9.25887C33.4352 8.96123 31.5551 8.65917 29.6765 8.35121C29.5521 8.33059 29.4336 8.27165 29.3121 8.22892C29.2839 8.2186 29.2558 8.20829 29.2262 8.2024C29.1091 8.17293 28.9847 8.12872 28.8662 8.11104C28.801 8.1022 28.7387 8.10073 28.681 8.11546C28.4884 8.16556 28.3032 8.16703 28.1195 8.14935C28.0098 8.13904 27.8987 8.12283 27.7876 8.10662C27.3772 8.04621 26.9683 7.98285 26.5565 7.93128C26.4824 7.92244 26.3831 7.93864 26.3283 7.98285C26.1757 8.10957 26.0231 8.23629 25.8705 8.363C25.8364 8.49414 25.7935 8.65181 25.7475 8.83452C25.8053 8.78442 25.8646 8.73579 25.9224 8.68569C25.9742 8.64149 26.029 8.60023 26.1105 8.5354C26.152 8.78883 26.192 9.01722 26.2216 9.24708C26.2216 9.25445 26.2246 9.26329 26.2246 9.27066C26.2246 9.28097 26.2246 9.29129 26.2202 9.30308C26.2113 9.32665 26.195 9.3517 26.1757 9.36938C26.1653 9.37969 26.1564 9.38706 26.1461 9.39296C25.9372 9.51525 25.7283 9.63608 25.5194 9.7569C25.4883 9.88657 25.4572 10.0236 25.4261 10.1651C25.549 10.0943 25.6705 10.0251 25.7935 9.95582C25.8157 9.94403 25.8364 9.93077 25.8587 9.91898C25.8883 9.90278 25.9253 9.89688 25.9639 9.9013C25.9757 9.9013 25.989 9.9072 26.0024 9.91014C26.0157 9.91309 26.0276 9.91751 26.0409 9.92193C26.1194 9.9514 26.1964 10.0089 26.2468 10.0825C26.2602 10.1017 26.2705 10.1223 26.2794 10.1444C26.315 10.2358 26.3224 10.3109 26.2764 10.3713C26.2483 10.4067 26.2024 10.4362 26.1313 10.4597C25.9016 10.5349 25.6735 10.6159 25.4468 10.6999C25.3979 10.7176 25.349 10.7353 25.3001 10.7544C25.272 10.8929 25.2438 11.0359 25.2157 11.1817C25.2586 11.2289 25.269 11.2996 25.2735 11.3718C25.2735 11.3733 25.2735 11.3762 25.2735 11.3777C25.2942 11.7859 25.3298 12.197 25.3149 12.6051C25.2986 13.0855 25.2335 13.5643 25.1979 14.0447C25.1979 14.0609 25.1949 14.0756 25.192 14.0904C25.1846 14.1316 25.1698 14.1626 25.1475 14.1847C25.1179 14.2141 25.072 14.2289 25.0068 14.2333C24.9327 14.2392 24.8572 14.2451 24.7831 14.2524C24.7401 14.7431 24.7075 15.2485 24.6927 15.7642H24.6972C24.6972 15.7642 24.7016 15.7642 24.7046 15.7642C24.9046 15.779 25.1061 15.7981 25.3061 15.8187H25.3135C25.512 15.8408 25.7105 15.8644 25.909 15.8895C25.9135 15.8895 25.9164 15.8895 25.9209 15.8909C26.1209 15.9175 26.3224 15.9455 26.5209 15.9764C27.2009 16.081 27.8706 16.2431 28.5491 16.3624C28.7091 16.3904 28.8706 16.4096 29.035 16.4258C29.1165 16.4332 29.1995 16.4405 29.2839 16.4494C29.3669 16.4568 29.4513 16.4656 29.5373 16.4744C29.5388 16.4111 29.5402 16.3625 29.5402 16.3212C29.5402 16.3006 29.5402 16.2814 29.5417 16.2637C29.5417 16.246 29.5417 16.2284 29.5432 16.2122C29.5565 15.9528 29.6528 15.8585 29.9121 15.8703C30.6825 15.9086 31.4529 15.9573 32.2248 15.9897C32.2618 15.9911 32.2973 15.9941 32.3329 15.997C32.5774 16.0236 32.7581 16.112 32.7803 16.3757C34.5389 16.445 36.2723 16.4803 37.9997 16.5894C38.4338 16.6159 38.8679 16.6483 39.302 16.6822C39.9524 16.7338 40.6028 16.7927 41.2517 16.8516C41.902 16.9106 42.5509 16.971 43.2013 17.027C43.2902 16.747 43.3125 16.6763 43.4873 16.6837C43.5317 16.6851 43.5851 16.691 43.6517 16.6999C43.6739 16.7028 43.6976 16.7058 43.7228 16.7102C43.8695 16.7308 44.0147 16.7544 44.1599 16.778C44.3051 16.8001 44.4517 16.8207 44.5984 16.834C44.7569 16.8487 44.8547 16.9135 44.9125 17.0388C44.9214 17.0565 44.9288 17.0756 44.9347 17.0962C44.9658 17.1891 45.0044 17.2804 45.0236 17.3747C45.0755 17.6237 44.9999 17.7608 44.7851 17.777C44.754 17.7799 44.7214 17.7799 44.6843 17.777C44.4888 17.7637 44.2932 17.746 44.0977 17.7239C43.9999 17.7136 43.9021 17.7018 43.8043 17.6886C43.7065 17.6753 43.6102 17.6621 43.5125 17.6488C43.5006 17.6473 43.4888 17.6429 43.4769 17.6385C43.4221 17.6164 43.3599 17.5663 43.3317 17.5191C43.3228 17.5044 43.3169 17.4911 43.3169 17.4793C43.3065 17.3453 43.2606 17.2701 43.1895 17.2288C43.1539 17.2082 43.1124 17.195 43.0665 17.1876C43.0206 17.1802 42.9717 17.1773 42.9184 17.1773C42.8591 17.1773 42.7998 17.1714 42.7406 17.1655C42.6813 17.1596 42.6221 17.1522 42.5613 17.1478C41.8798 17.0889 41.1983 17.0226 40.5153 16.9622C39.8338 16.9003 39.1509 16.8443 38.4679 16.806C37.2856 16.7397 36.1004 16.7249 34.9152 16.7014C34.7463 16.6984 34.5759 16.694 34.407 16.691C34.2781 16.6881 34.1478 16.6866 34.0189 16.6851C33.6307 16.6822 33.2426 16.6851 32.8588 16.6851C32.844 16.7338 32.8292 16.778 32.8144 16.8192C32.7448 17.0005 32.6559 17.0977 32.5062 17.1404H32.5033C32.4381 17.1581 32.3611 17.167 32.2692 17.167C32.2455 17.167 32.2218 17.167 32.1951 17.1655C31.5507 17.139 30.9047 17.0889 30.2603 17.08C29.9728 17.0756 29.7432 17.024 29.6306 16.8133C29.6143 16.7839 29.601 16.75 29.5891 16.7131C29.2202 16.6719 28.8869 16.6468 28.555 16.5938C28.5195 16.5879 28.4884 16.5864 28.4617 16.5879C28.4587 16.5879 28.4558 16.5879 28.4528 16.5879C28.4306 16.5908 28.4098 16.5967 28.3935 16.607C28.3787 16.6159 28.3669 16.6292 28.355 16.6454C28.3387 16.6689 28.3254 16.6999 28.315 16.7411C28.3076 16.7691 28.3002 16.7971 28.2913 16.8251C28.2617 16.9224 28.2261 17.0181 28.1935 17.1183C28.0972 17.1021 28.0217 17.0903 27.9461 17.0786C26.8557 16.9003 25.7683 16.6955 24.6749 16.5422C24.6779 18.3236 24.8868 20.2038 25.4616 21.9985C25.5861 21.9336 25.7164 21.8835 25.8527 21.8541C25.8957 21.8452 25.9372 21.8349 25.9801 21.829C25.9979 21.8261 26.0172 21.8261 26.0364 21.8246C26.0809 21.8202 26.1239 21.8157 26.1683 21.8143C26.1876 21.8143 26.2083 21.8143 26.2276 21.8157C26.272 21.8157 26.315 21.8158 26.3594 21.8216C26.3816 21.8231 26.4039 21.8275 26.4261 21.832C26.469 21.8378 26.5105 21.8423 26.5535 21.8511C26.5787 21.857 26.6053 21.8644 26.6305 21.8717C26.6705 21.8821 26.7091 21.8894 26.7491 21.9027C26.7802 21.913 26.8098 21.9248 26.8409 21.9366C26.8765 21.9498 26.9105 21.9602 26.9461 21.9764C26.9846 21.9926 27.0231 22.0132 27.0631 22.0338C27.0898 22.0471 27.1165 22.0589 27.1431 22.0736C27.2083 22.109 27.275 22.1488 27.3387 22.193C27.3861 22.2254 27.4306 22.2578 27.475 22.2917C28.1298 22.7971 28.3891 23.5117 28.4306 24.328C28.4395 24.4945 28.4261 24.661 28.4158 24.8319C28.4128 24.8894 28.4084 24.9469 28.4054 25.0043C28.398 25.0309 28.3906 25.0559 28.3817 25.0824C28.3254 25.2799 28.275 25.4847 28.195 25.6762C28.0958 25.9135 27.9669 26.1139 27.8128 26.2745C28.2484 26.7784 28.7417 27.2558 29.2943 27.6993C29.5521 27.5593 29.8025 27.3943 30.0425 27.2057C30.2395 27.051 30.4099 26.88 30.5566 26.6944C30.5566 26.6944 30.561 26.6885 30.564 26.6841C30.5773 26.6664 30.5906 26.6487 30.604 26.6296C30.6351 26.5868 30.6647 26.5441 30.6929 26.4999C30.7047 26.4822 30.7166 26.4645 30.7284 26.4454C30.764 26.3879 30.7951 26.329 30.8262 26.27C30.8351 26.2524 30.844 26.2332 30.8529 26.2141C30.8781 26.1595 30.9032 26.1035 30.9255 26.0461C30.9299 26.0343 30.9358 26.0225 30.9403 26.0107C30.9655 25.9429 30.9862 25.8737 31.0055 25.8029C31.0099 25.7853 31.0144 25.7676 31.0188 25.7499C31.0366 25.6762 31.0544 25.6011 31.0662 25.5245C31.1388 25.0765 31.2129 24.6301 31.2855 24.1821C31.3344 24.1733 31.3729 24.163 31.4099 24.1586C31.4218 24.1571 31.4336 24.1556 31.4455 24.1541C32.6159 24.0908 33.7848 24.0289 34.9552 23.967C36.1241 23.9051 37.2945 23.8418 38.4649 23.7769C38.5271 23.774 38.5746 23.7814 38.6116 23.8035C38.6486 23.8256 38.6768 23.8624 38.7034 23.9199C38.8679 24.2794 39.0383 24.636 39.2057 24.994C39.2131 25.0102 39.2249 25.0368 39.2427 25.0721C39.2886 25.1694 39.462 25.4331 39.4724 25.4419C39.4768 25.4449 39.5242 25.5009 39.5242 25.5009C40.0072 26.0947 41.1035 26.9287 43.3273 26.5117C44.0354 26.2538 44.6043 25.8796 44.9955 25.3418C45.2295 25.0191 45.3999 24.6389 45.4992 24.191C45.6533 23.4911 45.6473 22.8295 45.3214 22.2254C45.2458 22.0869 45.154 21.9498 45.0429 21.8172C45.031 21.804 45.0207 21.7907 45.0088 21.7789C44.9303 21.6949 44.8518 21.6478 44.711 21.6537C43.7717 21.6876 42.8324 21.7008 41.8917 21.7244C40.7687 21.7524 39.6472 21.7819 38.5242 21.8099C37.4012 21.8379 36.2797 21.8658 35.1567 21.8879C35.0752 21.8894 34.9922 21.8924 34.9108 21.8968C34.8693 21.8983 34.8293 21.8997 34.7878 21.9027C34.5419 21.9145 34.2944 21.9277 34.0485 21.9248C33.7611 21.9204 33.4737 21.8924 33.1892 21.8099C33.1137 21.7878 33.0351 21.7789 32.9537 21.7774C32.9137 21.7774 32.8722 21.7774 32.8322 21.7774C32.7922 21.7774 32.7507 21.7804 32.7107 21.7819C32.0233 21.8084 31.3373 21.8511 30.6514 21.8673C30.5625 21.8688 30.4721 21.8585 30.3832 21.8393C30.2929 21.8202 30.2054 21.7922 30.121 21.7612C29.998 21.7156 29.8973 21.5874 29.844 21.4444C29.8128 21.359 29.7995 21.2691 29.8084 21.1895C29.8336 20.9715 29.998 20.8875 30.1803 20.8403C30.3492 20.7976 30.524 20.7578 30.6973 20.7578C31.1092 20.7563 31.5196 20.7578 31.9314 20.7608C32.3344 20.7637 32.7359 20.7681 33.1389 20.7725C33.3389 20.7755 33.5389 20.7814 33.7389 20.7873C33.7507 20.7873 33.7641 20.7873 33.7759 20.7873C33.9759 20.7932 34.1759 20.8005 34.3759 20.8064C34.3804 20.7917 34.3848 20.7784 34.3878 20.7652C34.3996 20.7269 34.4085 20.6974 34.4159 20.6679C34.5789 20.0181 34.7359 19.3668 34.9063 18.7185C35.0871 18.0334 35.2722 17.7121 35.7034 17.581C35.8604 17.5324 36.05 17.5103 36.2841 17.5029C36.3419 17.5014 36.4041 17.5014 36.4678 17.5014C36.7286 17.5014 36.9908 17.5059 37.2516 17.5088C37.7745 17.5162 38.2975 17.5294 38.819 17.5471C39.0798 17.556 39.342 17.5648 39.6027 17.5751C39.9287 17.5884 40.2546 17.6075 40.5805 17.6326C40.9065 17.6576 41.2309 17.69 41.5554 17.7269C42.108 17.7902 42.4769 18.1115 42.6428 18.6448C42.705 18.8452 42.7643 19.0471 42.8028 19.2519C42.8265 19.3772 42.8502 19.5024 42.8724 19.6277C42.9406 20.0049 43.0043 20.3865 43.0739 20.7858C43.4784 20.7784 43.8828 20.7696 44.2888 20.7622C44.6873 20.7549 45.0888 20.746 45.4977 20.7386C45.5407 20.3054 45.5866 19.8826 45.6281 19.4641C45.6533 19.2121 45.6755 18.9616 45.6933 18.7112C45.711 18.4518 45.7096 18.1881 45.6933 17.9273M36.3315 11.2259C36.3063 11.2318 36.2812 11.2363 36.2545 11.2407C36.2026 11.2495 36.1508 11.2539 36.0975 11.2569C36.0175 11.2598 35.9345 11.2569 35.8485 11.2407C35.2708 11.1434 34.6915 11.0565 34.1122 10.974C33.5329 10.8915 32.9522 10.8119 32.3729 10.7279C32.3003 10.7176 32.2292 10.7043 32.1166 10.6867C32.1566 10.6646 32.1951 10.6439 32.2336 10.6248C32.4648 10.5084 32.6766 10.448 32.9196 10.4597C32.9596 10.4612 33.0011 10.4656 33.044 10.4715C33.7611 10.5717 34.4796 10.6587 35.1982 10.7441C35.7463 10.809 36.296 10.8723 36.8441 10.9386C36.8501 10.9386 36.8575 10.9401 36.8634 10.9416C36.9315 10.9504 36.9982 10.9637 37.0649 10.974C36.8175 11.0609 36.5834 11.1744 36.33 11.2289M36.7182 10.3492C36.7419 10.3227 36.7627 10.2932 36.7819 10.2638C36.819 10.2078 36.8456 10.1444 36.8693 10.0781C36.8812 10.0457 36.893 10.0118 36.9049 9.97792C36.9167 9.94403 36.9286 9.91014 36.9434 9.87625C37.056 9.89393 37.1804 9.90867 37.3004 9.93666C37.3404 9.94551 37.3923 9.98235 37.4056 10.0177C37.4886 10.252 37.5612 10.4907 37.6516 10.7662C37.2456 10.6999 36.8752 10.641 36.493 10.5791C36.5656 10.5025 36.6486 10.4303 36.7182 10.3492ZM35.6545 9.81731C35.6737 9.69796 35.7197 9.59482 35.7848 9.51526C35.8945 9.38264 36.0575 9.31634 36.2367 9.34433C36.3182 9.35759 36.3878 9.38117 36.4471 9.41359C36.5049 9.446 36.5523 9.48873 36.5878 9.5403C36.6575 9.64197 36.6797 9.78048 36.6501 9.94846C36.6367 10.0265 36.613 10.0958 36.5804 10.1547C36.5004 10.3036 36.3641 10.389 36.1982 10.3949C36.1656 10.3949 36.13 10.3949 36.0945 10.389C35.9952 10.3743 35.9019 10.3257 35.8278 10.2564C35.7286 10.1651 35.6604 10.0398 35.65 9.91162C35.6471 9.8792 35.6486 9.84826 35.653 9.81584M35.1997 9.60956C35.1078 9.94109 35.1819 10.2225 35.4263 10.4877C35.3226 10.4715 35.2189 10.4539 35.1167 10.4376C34.9478 10.4096 34.7819 10.3831 34.6174 10.3566C34.4796 10.3345 34.3419 10.3124 34.2085 10.2903C34.2618 10.2225 34.3656 10.1385 34.41 10.0369C34.4159 10.0221 34.4218 10.0074 34.4248 9.99266C34.453 9.87478 34.4159 9.70975 34.3463 9.60808C34.2767 9.50642 34.1078 9.45632 33.9374 9.45484C33.8055 9.45484 33.6722 9.48431 33.5848 9.54472C33.3863 9.68175 33.3863 9.88067 33.6026 10.2594C33.5685 10.2535 33.5359 10.249 33.5033 10.2446C33.3448 10.2196 33.2011 10.2004 33.0618 10.168C33.0129 10.1562 32.9507 10.1032 32.9344 10.0545C32.8411 9.77901 32.7596 9.49905 32.6677 9.20141C33.5211 9.33991 34.3522 9.474 35.1982 9.6125M30.3595 8.8684C30.7047 8.92881 31.044 8.98628 31.3847 9.02754C31.4692 9.03785 31.5551 9.04669 31.641 9.05554C32.0988 9.09827 32.3788 9.2515 32.4529 9.72007C32.4751 9.86004 32.5462 9.99266 32.607 10.1665C32.1655 10.0943 31.761 10.0295 31.3655 9.96466C31.4262 9.88509 31.527 9.79816 31.5759 9.69944C31.5877 9.67734 31.5966 9.65376 31.601 9.63019C31.604 9.61398 31.607 9.5963 31.607 9.57861C31.6144 9.45484 31.5684 9.30602 31.4973 9.21025C31.4884 9.19846 31.4781 9.18814 31.4677 9.17636C31.4662 9.17488 31.4647 9.17341 31.4633 9.17194C31.4618 9.17046 31.4588 9.16899 31.4573 9.16604C31.4381 9.14836 31.4173 9.13363 31.3936 9.11889C31.367 9.10268 31.3373 9.08795 31.3062 9.07616C31.2232 9.04375 31.1284 9.02754 31.0321 9.02606C30.8869 9.02459 30.7403 9.05848 30.6395 9.12626C30.438 9.26329 30.3936 9.43274 30.5062 9.7348C30.5225 9.77753 30.5417 9.82321 30.564 9.87183C30.4988 9.86152 30.4336 9.8512 30.3699 9.84089C30.1788 9.80995 29.9936 9.78048 29.8099 9.74954C29.7269 9.73628 29.644 9.72301 29.5595 9.70828C29.4588 9.69207 29.3551 9.67586 29.2454 9.65671C29.1773 9.64492 29.1076 9.6346 29.0336 9.62282C29.3802 9.4681 29.5521 9.24119 29.5728 8.88903C29.5758 8.83893 29.5758 8.78589 29.5728 8.7299C29.838 8.77263 30.0988 8.81978 30.358 8.86546M28.2395 8.76526C28.2691 8.59729 28.3521 8.46173 28.4676 8.37626C28.5817 8.2908 28.7284 8.25397 28.8854 8.28344C29.0662 8.31733 29.2025 8.39984 29.2854 8.51919C29.3684 8.63854 29.398 8.79178 29.3654 8.96713C29.3506 9.04817 29.3225 9.12037 29.2854 9.18225C29.1921 9.33696 29.0365 9.42832 28.8558 9.42979C28.8202 9.42979 28.7817 9.42684 28.7447 9.41948C28.7224 9.41506 28.7017 9.41064 28.681 9.40475C28.3713 9.31928 28.1891 9.05848 28.2409 8.76379M26.1698 14.4013C26.1935 13.5776 26.2187 12.7628 26.2424 11.9494C26.2498 11.6783 26.2587 11.4087 26.2661 11.1375C26.2987 11.1375 26.3328 11.1375 26.3653 11.1361C26.3787 11.4057 26.3905 11.6754 26.4039 11.9465C26.4424 12.7569 26.4824 13.5717 26.5224 14.4027C26.4009 14.4027 26.3016 14.4027 26.1698 14.4027M26.5076 8.79031C26.4942 8.62528 26.4794 8.4573 26.4646 8.28344C26.5609 8.29964 26.6572 8.31438 26.752 8.33059C27.0987 8.38658 27.438 8.44257 27.7921 8.50004C27.6172 8.89934 27.7772 9.21319 28.0706 9.52852C27.5357 9.44158 27.0498 9.36349 26.5491 9.28098C26.5357 9.11889 26.5224 8.95681 26.5076 8.79178M27.2276 9.9573C27.2202 9.88362 27.2098 9.80553 27.2009 9.71564C27.838 9.79816 28.4706 9.8792 29.1017 9.96172C30.0395 10.0825 30.9744 10.2034 31.9166 10.3257C31.7077 10.4804 31.4929 10.5585 31.2721 10.5909C31.2425 10.5953 31.2114 10.5997 31.1818 10.6027C31.1299 10.6086 31.0795 10.61 31.0262 10.613C30.9951 10.613 30.9655 10.613 30.9343 10.613C30.8203 10.613 30.7047 10.6041 30.5892 10.5924C30.158 10.5526 29.7269 10.5157 29.2958 10.4818C28.6913 10.4332 28.0884 10.389 27.4839 10.3478C27.3002 10.3345 27.2394 10.2682 27.238 10.0987C27.238 10.0531 27.2335 10.0059 27.2291 9.9573M31.9033 14.3821C31.6425 14.3674 31.3818 14.3541 31.121 14.3438C29.8677 14.2937 28.6084 14.2981 27.3402 14.3865C27.3194 13.4656 27.3002 12.5594 27.2809 11.6459C27.275 11.3409 27.2676 11.0359 27.2617 10.7279C27.4024 10.7309 27.5387 10.7338 27.6735 10.7368C27.8069 10.7397 27.9387 10.7427 28.0706 10.7441C29.9536 10.7765 31.8203 10.9563 33.6796 11.2097C33.8485 11.2333 34.0174 11.2569 34.1863 11.2805C34.693 11.3527 35.1996 11.4308 35.7048 11.5118C35.8737 11.5383 36.0426 11.5663 36.21 11.5943C36.3686 11.6208 36.5286 11.6518 36.6841 11.6901C36.8412 11.7284 36.9952 11.7755 37.1449 11.833C37.1923 11.8522 37.2412 11.8743 37.2886 11.9008C37.4308 11.9789 37.5642 12.0894 37.656 12.2117C38.339 13.1297 38.899 14.1213 39.4101 15.1424C39.4131 15.1468 39.4146 15.1513 39.4146 15.1572C39.419 15.1734 39.419 15.194 39.4264 15.2323C36.9212 14.8831 34.4219 14.5295 31.9018 14.3836M27.0217 21.023C27.0143 21.0215 27.0068 21.0186 26.9979 21.0157C26.9742 21.0053 26.9505 20.9847 26.9298 20.9611C26.9017 20.9287 26.878 20.8904 26.8646 20.8565C26.6987 20.4101 26.5253 19.9666 26.3698 19.5171C26.3179 19.3669 26.2676 19.2166 26.2202 19.0648C26.0024 18.3693 25.835 17.6591 25.1861 17.1832C25.629 17.0874 25.989 17.1183 26.2794 17.2804C26.3446 17.3173 26.4053 17.36 26.4631 17.4086C26.4928 17.4337 26.5209 17.4602 26.5476 17.4882C26.6291 17.5722 26.7046 17.6709 26.7728 17.7858C26.795 17.8241 26.8172 17.8639 26.838 17.9052C26.872 17.9715 26.9046 18.0393 26.9357 18.107C27.0305 18.3118 27.1106 18.524 27.1713 18.7392C27.3713 19.4567 27.6617 20.1331 28.0024 20.7902C28.0513 20.8845 28.1017 20.9773 28.1521 21.0702C28.1639 21.0908 28.1743 21.1129 28.1876 21.138C28.2009 21.163 28.2158 21.1925 28.235 21.2293C27.8069 21.1601 27.4113 21.1026 27.0202 21.026M32.2618 19.6041C32.2322 19.6645 32.1966 19.7205 32.1566 19.7706C32.0366 19.9209 31.8736 20.0255 31.6766 20.08C31.481 20.1345 31.2884 20.1552 31.0958 20.1419C31.0884 20.1419 31.081 20.1404 31.0736 20.1389C31.0084 20.133 30.9432 20.1227 30.8795 20.1109C30.7595 20.0859 30.6425 20.0505 30.5254 19.999C29.9995 19.7676 29.7536 19.2357 29.8973 18.6846C29.9921 18.3222 30.1995 18.054 30.4825 17.9007C30.5329 17.8742 30.5847 17.8492 30.6395 17.83C30.6721 17.8182 30.7062 17.8079 30.7418 17.7991C30.8795 17.7637 31.0307 17.7505 31.1907 17.7622C31.247 17.7667 31.3018 17.7799 31.3566 17.7888C31.4247 17.7991 31.4899 17.8138 31.5492 17.83C31.6707 17.8639 31.7788 17.9096 31.8722 17.9641C31.9196 17.9906 31.9625 18.0216 32.0025 18.0525C32.0618 18.0982 32.1107 18.1498 32.1566 18.2043C32.4855 18.5948 32.4766 19.1679 32.2618 19.6041ZM44.9895 19.551C44.9762 19.5938 44.9555 19.691 44.914 19.7779C44.7895 20.0402 44.5821 20.1861 44.3125 20.2185C44.2799 20.2229 44.2458 20.2259 44.2117 20.2259C44.0651 20.2274 43.9539 20.1758 43.8651 20.0933C43.7762 20.0122 43.7095 19.9002 43.6517 19.7853C43.5451 19.5717 43.5273 19.302 43.5836 19.05C43.6028 18.9661 43.6295 18.8836 43.6636 18.8069C43.6754 18.7819 43.6873 18.7554 43.7006 18.7318C43.7406 18.6581 43.788 18.5903 43.8414 18.5314C43.868 18.5019 43.8947 18.4769 43.9243 18.4548C43.951 18.4327 43.9777 18.4135 44.0058 18.3973C44.0636 18.3634 44.1243 18.3413 44.1866 18.3295C44.228 18.3222 44.2695 18.3177 44.311 18.3207C44.314 18.3207 44.3154 18.3207 44.3184 18.3207C44.3643 18.3236 44.4117 18.3325 44.4577 18.3472C44.5762 18.384 44.6917 18.4592 44.794 18.5726C44.8666 18.6537 44.9229 18.7509 44.9614 18.8644C45.0236 19.053 45.0355 19.2829 44.991 19.5525" fill="white"/>
</svg>
