<svg width="65" height="65" viewBox="0 0 65 65" fill="none" xmlns="http://www.w3.org/2000/svg">
<path d="M10.4518 10.4479C10.7725 10.1273 10.8685 9.64551 10.6949 9.22677C10.5213 8.80806 10.1131 8.53491 9.65989 8.53491C9.20665 8.53491 8.79793 8.80806 8.62435 9.22677C8.45125 9.64549 8.54681 10.1272 8.86747 10.4479C9.30521 10.8847 10.0141 10.8847 10.4518 10.4479H10.4518Z" fill="#FF0000"/>
<path d="M13.7331 7.63334C18.2076 4.36505 23.5503 2.49666 29.0872 2.26499C34.6232 2.03336 40.104 3.44862 44.8357 6.33166C49.5677 9.21473 53.3383 13.436 55.6709 18.4621C58.0037 23.4883 58.7931 29.0933 57.9402 34.568C57.8947 34.8621 57.9677 35.1618 58.1438 35.4019C58.3194 35.642 58.583 35.8021 58.8772 35.8477C58.9342 35.8562 58.9922 35.8607 59.0503 35.8607C59.6016 35.8597 60.0708 35.457 60.1554 34.9117C61.0764 28.999 60.2229 22.9457 57.7035 17.5175C55.1841 12.089 51.1115 7.53019 46.0013 4.41737C40.8906 1.30378 34.9719 -0.224072 28.9926 0.0265574C23.0138 0.277187 17.2433 2.29528 12.4116 5.82561C12.171 6.0007 12.0099 6.26384 11.9638 6.558C11.9178 6.85166 11.9909 7.15182 12.1664 7.39194C12.342 7.63207 12.6057 7.79216 12.8998 7.83768C13.1935 7.88271 13.4937 7.80917 13.7333 7.63307L13.7331 7.63334Z" fill="#FF0000"/>
<path d="M34.5735 57.9368C29.0981 58.7907 23.4927 58.0013 18.4664 55.6691C13.4397 53.3368 9.21744 49.5659 6.3345 44.8339C3.45092 40.1019 2.03577 34.621 2.26783 29.0841C2.49989 23.5472 4.3684 18.2043 7.63772 13.73C8.00342 13.2307 7.89486 12.5299 7.3956 12.1641C6.89634 11.7984 6.19546 11.9065 5.82971 12.4057C1.4079 18.454 -0.611732 25.9284 0.161672 33.3807C0.935088 40.8327 4.44696 47.7333 10.0164 52.7446C15.5863 57.7558 22.8177 60.5213 30.3101 60.5058C31.8519 60.5063 33.3916 60.3882 34.915 60.1526C35.2087 60.1071 35.4728 59.947 35.6484 59.7074C35.824 59.4677 35.8975 59.1681 35.852 58.8744C35.7509 58.2671 35.1836 57.8509 34.5738 57.9374L34.5735 57.9368Z" fill="#FF0000"/>
<path d="M54.7109 33.6155C55.007 33.644 55.3027 33.553 55.5313 33.3629C55.7604 33.1723 55.904 32.8986 55.93 32.602C56 31.8315 56.0351 31.0502 56.0351 30.2577V30.2582C56.0351 23.4225 53.3196 16.8674 48.4861 12.0341C43.6526 7.20054 37.097 4.48511 30.262 4.48511C23.427 4.48511 16.8712 7.20054 12.0379 12.0341C7.20438 16.8676 4.48895 23.4232 4.48895 30.2582C4.48895 37.0932 7.20438 43.649 12.0379 48.4823C16.8715 53.3158 23.427 56.0312 30.262 56.0312C31.0519 56.0312 31.8334 55.9962 32.6063 55.9262C33.2226 55.8691 33.6764 55.3234 33.6193 54.707C33.5628 54.0907 33.017 53.637 32.4002 53.6935C31.6978 53.758 30.982 53.79 30.2621 53.79C24.0208 53.79 18.0351 51.3108 13.6222 46.8974C9.20886 42.4846 6.72959 36.4989 6.72959 30.2575C6.72959 24.0163 9.20886 18.0305 13.6222 13.6176C18.0351 9.20429 24.0207 6.72502 30.2621 6.72502C36.5035 6.72502 42.4891 9.20429 46.902 13.6176C51.3153 18.0305 53.7946 24.0161 53.7946 30.2575C53.7946 30.9789 53.7641 31.6933 53.6981 32.3956C53.671 32.6918 53.7621 32.9864 53.9522 33.2151C54.1423 33.4437 54.4154 33.5878 54.7116 33.6148L54.7109 33.6155Z" fill="#FF0000"/>
<path d="M30.2614 15.6898C29.9643 15.6893 29.6791 15.8073 29.469 16.0179C29.2589 16.228 29.1408 16.5132 29.1408 16.8104V27.1023V27.1018C28.0538 27.4845 27.2388 28.398 26.9832 29.522C26.7275 30.6456 27.0667 31.8217 27.8816 32.6366C28.6966 33.4516 29.8732 33.7912 30.9968 33.5356C32.1209 33.28 33.0343 32.465 33.4166 31.3779H39.2262C39.845 31.3779 40.3468 30.8761 40.3468 30.2573C40.3468 29.6385 39.845 29.1367 39.2262 29.1367H33.4166C33.0784 28.1872 32.3315 27.4403 31.382 27.1016V16.8102C31.382 16.513 31.2639 16.2279 31.0538 16.0178C30.8437 15.8071 30.5585 15.6891 30.2614 15.6896L30.2614 15.6898ZM30.2614 31.3781C29.8082 31.3781 29.3995 31.105 29.2264 30.6862C29.0528 30.2675 29.1484 29.7858 29.469 29.4651C29.7897 29.1444 30.2714 29.0489 30.6902 29.222C31.1089 29.3956 31.382 29.8043 31.382 30.2575C31.381 30.8758 30.8798 31.3771 30.2614 31.3781Z" fill="#FF0000"/>
<path d="M50.4322 35.8606C46.5687 35.8606 42.8632 37.3954 40.1312 40.1273C37.3993 42.8593 35.8645 46.5648 35.8645 50.4283C35.8645 54.2919 37.3993 57.9974 40.1312 60.7294C42.8632 63.4613 46.5687 64.9961 50.4322 64.9961C54.2958 64.9961 58.0013 63.4613 60.7333 60.7294C63.4652 57.9974 65 54.2919 65 50.4283C64.9955 46.5658 63.4592 42.8634 60.7283 40.1323C57.9974 37.4014 54.2944 35.8651 50.4322 35.8606ZM50.4322 38.1018C53.5665 38.0998 56.5835 39.2929 58.8692 41.4376C61.1545 43.5822 62.5367 46.5173 62.7343 49.6455C62.9319 52.7731 61.9294 55.8588 59.9318 58.274C58.5265 56.5711 56.6881 55.2794 54.61 54.5341C56.0772 53.3705 56.9927 51.6475 57.1364 49.7806C57.2794 47.9131 56.6376 46.0711 55.3654 44.6969C54.0928 43.3231 52.3049 42.5423 50.4322 42.5423C48.5596 42.5423 46.7718 43.3232 45.4991 44.6969C44.2269 46.0711 43.5851 47.9131 43.7281 49.7806C43.8717 51.6475 44.7872 53.3704 46.2545 54.5341C44.1764 55.2795 42.338 56.5711 40.9327 58.274C38.9351 55.8588 37.9325 52.7731 38.1302 49.6455C38.3278 46.5173 39.71 43.5822 41.9952 41.4376C44.281 39.2929 47.298 38.0999 50.4322 38.1018ZM45.9499 49.3077C45.9499 48.1186 46.4221 46.9784 47.2626 46.1381C48.1035 45.2976 49.2436 44.8254 50.4322 44.8254C51.6208 44.8254 52.761 45.2976 53.6019 46.1381C54.4424 46.9785 54.9146 48.1186 54.9146 49.3077C54.9146 50.4964 54.4424 51.6365 53.6019 52.4769C52.761 53.3179 51.6208 53.7901 50.4322 53.7901C49.2436 53.7886 48.1045 53.3159 47.2641 52.4754C46.4241 51.6354 45.9514 50.4958 45.9499 49.3077ZM42.5301 59.8763C44.434 57.449 47.3476 56.0313 50.4322 56.0313C53.5169 56.0313 56.4304 57.449 58.3344 59.8763C56.1208 61.7353 53.3227 62.7549 50.4322 62.7549C47.5417 62.7549 44.7437 61.7354 42.5301 59.8763Z" fill="#FF0000"/>
</svg>
