<svg width="65" height="65" viewBox="0 0 65 65" fill="none" xmlns="http://www.w3.org/2000/svg">
<path d="M42.6833 16.9112C42.6292 16.6079 42.4343 16.3371 42.1741 16.1746C40.6356 15.2644 38.9676 14.5714 37.2125 14.1163C36.9093 14.0403 36.5843 14.0945 36.3241 14.2681C36.0639 14.4413 35.8908 14.7232 35.8584 15.0371C35.6523 16.7269 34.2116 18.0057 32.5 18.0057C30.7885 18.0057 29.3477 16.7275 29.1417 15.0371C29.0982 14.7227 28.9357 14.4519 28.676 14.2681C28.4158 14.095 28.0908 14.0408 27.7875 14.1163C26.0435 14.5714 24.3751 15.2644 22.826 16.1746C22.5552 16.3371 22.3709 16.5973 22.3167 16.9112C22.2625 17.2144 22.3385 17.5394 22.5334 17.7778C23.5843 19.1214 23.4649 21.0385 22.2519 22.2519C21.0496 23.4654 19.132 23.5844 17.7885 22.5334C17.5394 22.3385 17.225 22.2626 16.9218 22.3167C16.6186 22.3709 16.3477 22.5658 16.1852 22.826C15.275 24.3645 14.582 26.0324 14.1269 27.7876C14.051 28.0908 14.1051 28.4158 14.2788 28.676C14.4519 28.9362 14.7339 29.1093 15.0477 29.1417C16.7375 29.3478 18.0163 30.7885 18.0163 32.5001C18.0163 34.2116 16.7381 35.6524 15.0477 35.8584C14.7334 35.9019 14.4625 36.0644 14.2788 36.3241C14.1056 36.5843 14.0515 36.9093 14.1269 37.2126C14.582 38.9565 15.275 40.625 16.1852 42.1741C16.3477 42.4449 16.6079 42.6292 16.9218 42.6834C17.225 42.7375 17.55 42.6616 17.7885 42.4667C19.132 41.4158 21.0491 41.5352 22.2626 42.7482C23.476 43.9505 23.595 45.868 22.544 47.2116C22.3491 47.4607 22.2732 47.7751 22.3274 48.0783C22.3815 48.3815 22.5764 48.6524 22.8366 48.8149C24.3751 49.7251 26.043 50.4181 27.7982 50.8732C28.1014 50.9491 28.4264 50.895 28.6866 50.7213C28.9468 50.5482 29.1199 50.2662 29.1523 49.9524C29.3584 48.2626 30.7991 46.9838 32.5107 46.9838C34.2222 46.9838 35.663 48.262 35.869 49.9524C35.9125 50.2667 36.075 50.5376 36.3347 50.7213C36.519 50.8403 36.7245 50.9056 36.9412 50.9056C37.0278 50.9056 37.1255 50.895 37.212 50.8732C38.956 50.4181 40.6245 49.7251 42.1736 48.8149C42.4444 48.6524 42.6287 48.3922 42.6828 48.0783C42.737 47.775 42.6611 47.4501 42.4662 47.2116C41.4153 45.868 41.5347 43.951 42.7477 42.7375C43.95 41.5241 45.8675 41.4051 47.2111 42.456C47.4602 42.6509 47.7745 42.7269 48.0778 42.6727C48.381 42.6185 48.6518 42.4236 48.8143 42.1634C49.7245 40.625 50.4176 38.957 50.8727 37.2019C50.9486 36.8987 50.8944 36.5737 50.7208 36.3135C50.5477 36.0533 50.2657 35.8801 49.9518 35.8477C48.2621 35.6417 46.9833 34.2009 46.9833 32.4894C46.9833 30.7779 48.2615 29.3371 49.9518 29.1311C50.2662 29.0875 50.537 28.925 50.7208 28.6653C50.8939 28.4051 50.9481 28.0801 50.8727 27.7769C50.4176 26.0329 49.7245 24.3645 48.8143 22.8154C48.6518 22.5445 48.3916 22.3603 48.0778 22.3061C47.7634 22.2413 47.4495 22.3279 47.2111 22.5228C45.8675 23.5737 43.9505 23.4542 42.737 22.2413C41.5236 21.039 41.4046 19.1214 42.4555 17.7778C42.6504 17.5288 42.7264 17.2144 42.6722 16.9112L42.6833 16.9112ZM47.4824 24.8954C47.8722 25.6644 48.2084 26.4663 48.4792 27.2894C46.3343 28.0695 44.8283 30.1278 44.8283 32.5112C44.8283 34.8945 46.3232 36.9422 48.4792 37.733C48.2084 38.5561 47.8727 39.358 47.4824 40.1269C45.4135 39.1626 42.8889 39.5635 41.2209 41.2427C39.5418 42.9113 39.1408 45.4352 40.1052 47.5042C39.3362 47.894 38.5343 48.2302 37.7112 48.501C36.9311 46.3561 34.8727 44.8501 32.4894 44.8501C30.1061 44.8501 28.0584 46.345 27.2676 48.501C26.4445 48.2302 25.6426 47.8945 24.8736 47.5042C25.838 45.4352 25.437 42.9106 23.7579 41.2427C22.0893 39.5636 19.5653 39.1626 17.4963 40.1269C17.1065 39.358 16.7704 38.556 16.4996 37.733C18.6445 36.9529 20.1505 34.8945 20.1505 32.5112C20.1505 30.1278 18.6556 28.0802 16.4996 27.2894C16.7704 26.4662 17.106 25.6644 17.4963 24.8954C19.5653 25.8598 22.0899 25.4588 23.7579 23.7797C25.437 22.1111 25.838 19.5871 24.8736 17.5181C25.6426 17.1283 26.4445 16.7922 27.2676 16.5214C28.0477 18.6662 30.1061 20.1723 32.4894 20.1723C34.8727 20.1723 36.9204 18.6774 37.7112 16.5214C38.5343 16.7922 39.3362 17.1278 40.1052 17.5181C39.1408 19.5871 39.5417 22.1117 41.2209 23.7797C42.8895 25.4588 45.4135 25.8598 47.4824 24.8954Z" fill="#FF0000"/>
<path d="M37.8411 31.6112C37.8953 31.8926 37.917 32.1964 37.917 32.4996C37.917 32.8028 37.8953 33.1061 37.8411 33.388L39.9753 33.789C40.0513 33.3774 40.0943 32.9441 40.0943 32.5108C40.0943 32.0774 40.0508 31.6441 39.9753 31.2325L37.8411 31.6335V31.6112Z" fill="#FF0000"/>
<path d="M32.5 37.9166C29.5103 37.9166 27.0833 35.4897 27.0833 32.5C27.0833 29.5102 29.5103 27.0833 32.5 27.0833C34.4282 27.0833 36.2269 28.1231 37.1801 29.7916L39.0542 28.7083C37.7107 26.3685 35.1978 24.9166 32.4895 24.9166C28.3081 24.9166 24.9062 28.3185 24.9062 32.5C24.9062 36.6814 28.3081 40.0833 32.4895 40.0833C35.1872 40.0833 37.7001 38.6314 39.0542 36.2916L37.1801 35.2083C36.2158 36.8769 34.4282 37.9166 32.5 37.9166Z" fill="#FF0000"/>
<path d="M31.3301 33.0422L30.0195 31.7316L28.4921 33.2589L30.6588 35.4256C30.8648 35.6316 31.1357 35.7399 31.4278 35.7399H31.4926C31.7958 35.7182 32.0884 35.5774 32.2833 35.339L36.6167 29.9223L34.9269 28.5681L31.3519 33.0422L31.3301 33.0422Z" fill="#FF0000"/>
<path d="M32.5 54.1667V56.3333C45.6411 56.3333 56.3333 45.6408 56.3333 32.5H54.1667C54.1667 44.4491 44.4491 54.1667 32.5 54.1667Z" fill="#FF0000"/>
<path d="M32.4999 10.8333V8.66663C19.3588 8.66663 8.6666 19.3592 8.6666 32.5H10.8333C10.8333 20.5509 20.5508 10.8333 32.4999 10.8333Z" fill="#FF0000"/>
<path d="M6.49984 32.5H4.33318C4.33318 48.0356 16.9642 60.6667 32.4998 60.6667V58.5C18.1677 58.5 6.49984 46.8324 6.49984 32.5Z" fill="#FF0000"/>
<path d="M32.5 4.33313V6.4998C46.8322 6.4998 58.5 18.1674 58.5 32.4998H60.6667C60.6667 16.9642 48.0356 4.33313 32.5 4.33313Z" fill="#FF0000"/>
<path d="M32.5 0C14.581 0 0 14.581 0 32.5C0 50.419 14.581 65 32.5 65C50.419 65 65 50.419 65 32.5C65 14.581 50.419 0 32.5 0ZM32.5 62.8333C15.7733 62.8333 2.16667 49.2267 2.16667 32.5C2.16667 15.7733 15.7733 2.16667 32.5 2.16667C49.2267 2.16667 62.8333 15.7733 62.8333 32.5C62.8333 49.2267 49.2267 62.8333 32.5 62.8333Z" fill="#FF0000"/>
</svg>
