<svg width="65" height="61" viewBox="0 0 65 61" fill="none" xmlns="http://www.w3.org/2000/svg">
<path d="M34.6677 0C24.0511 0 14.0733 5.69573 8.62444 14.866L10.4879 15.9876C15.5471 7.47105 24.8201 2.18954 34.6679 2.18954C50.2035 2.18954 62.8345 14.8874 62.8345 30.5051C62.8345 46.1229 50.2035 58.8207 34.6679 58.8207C19.1323 58.8207 6.50124 46.1229 6.50124 30.5051C6.50124 30.1565 6.50124 29.7972 6.523 29.4486C6.523 29.1545 6.42531 28.8715 6.21977 28.6537C6.01374 28.4466 5.73227 28.327 5.43967 28.327H3.16467L8.66787 20.4207L11.723 24.8095C11.723 24.8095 11.7772 24.9077 11.8096 24.951L14.1605 28.3271H11.9396C11.3655 28.3271 10.8886 28.7734 10.8562 29.351C10.8345 29.7322 10.8238 30.1134 10.8238 30.5052C10.8238 43.7159 21.5164 54.4646 34.6571 54.4646C47.7982 54.4646 58.4904 43.7155 58.4904 30.5052C58.4904 17.2946 47.7979 6.54587 34.6571 6.54587C25.102 6.54587 16.5005 12.2416 12.7515 21.0634L14.7451 21.9239C18.1575 13.9087 25.9682 8.73571 34.6561 8.73571C46.6052 8.73571 56.3228 18.5047 56.3228 30.5169C56.3228 42.5292 46.6052 52.2982 34.6561 52.2982C22.7071 52.2982 12.9895 42.5292 12.9895 30.5169H16.2395C16.6404 30.5169 17.0196 30.2884 17.2039 29.9286C17.3881 29.5694 17.3664 29.1337 17.1279 28.7958L13.6613 23.83C13.6613 23.83 13.6071 23.7317 13.5747 23.6885L9.54458 17.9057C9.14365 17.3286 8.17983 17.3286 7.76767 17.9057L0.194995 28.7852C-0.0323069 29.1226 -0.0652032 29.5475 0.119065 29.918C0.30333 30.2773 0.671366 30.5063 1.08343 30.5063H4.33342C4.33342 47.3214 17.9401 61 34.6667 61C51.3934 61 65 47.3214 65 30.5063C65 13.6912 51.3934 0.00134414 34.6667 0.00134414L34.6677 0Z" fill="#FF0000"/>
<path d="M34.6675 47.9187C44.2226 47.9187 52.0008 40.0994 52.0008 30.4937C52.0008 20.8881 44.2226 13.0687 34.6675 13.0687C25.1124 13.0687 17.3342 20.8881 17.3342 30.4937C17.3342 40.0994 25.1124 47.9187 34.6675 47.9187ZM19.5554 29.4047C19.7938 26.0179 21.1368 22.9466 23.2169 20.5289L24.7118 22.0316L26.2391 20.4963L24.7442 18.9935C27.1493 16.8916 30.2151 15.5523 33.5733 15.3126V17.4362H35.74V15.3126C39.1089 15.5523 42.1641 16.9023 44.5691 18.9935L43.0742 20.4963L44.6015 22.0316L46.0964 20.5289C48.1871 22.9467 49.5195 26.0287 49.7579 29.4047H47.6455V31.5828H49.7579C49.5195 34.9696 48.1765 38.0408 46.0964 40.4586L44.6015 38.9558L43.0742 40.4912L44.5691 41.994C42.1639 44.0958 39.0982 45.4351 35.74 45.6749V43.5513H33.5733V45.6749C30.2043 45.4352 27.1492 44.0851 24.7442 41.994L26.2391 40.4912L24.7118 38.9558L23.2169 40.4586C21.1261 38.0407 19.7938 34.9587 19.5554 31.5828H21.6678V29.4047H19.5554Z" fill="#FF0000"/>
<path d="M34.6679 33.761C36.4554 33.761 37.9179 32.2908 37.9179 30.4938C37.9179 29.078 37.0077 27.88 35.7512 27.4225V19.6031H33.5845V27.4225C32.6637 27.7492 31.9489 28.479 31.6128 29.4047H26.0012V31.5828H31.6128C32.0567 32.8459 33.2484 33.761 34.6679 33.761ZM34.6679 29.4047C35.2637 29.4047 35.7512 29.8948 35.7512 30.4938C35.7512 31.0928 35.2637 31.5828 34.6679 31.5828C34.072 31.5828 33.5845 31.0928 33.5845 30.4938C33.5845 29.8948 34.072 29.4047 34.6679 29.4047Z" fill="#FF0000"/>
</svg>
