<svg width="12" height="8" viewBox="0 0 12 8" fill="none" xmlns="http://www.w3.org/2000/svg">
<path d="M10.421 0.294205L4.81232 5.85192L1.56548 2.60837V2.60865C1.21133 2.25696 0.632685 2.25253 0.272859 2.59895C-0.0869521 2.94538 -0.0914812 3.51139 0.262668 3.86336L4.17111 7.74606V7.74579C4.23113 7.79674 4.29794 7.83938 4.36984 7.87289C4.399 7.8956 4.43043 7.91554 4.46327 7.93243C4.57141 7.97619 4.68719 7.99889 4.80411 8C4.92132 7.99945 5.0371 7.97646 5.14496 7.93243C5.18403 7.91222 5.22083 7.8884 5.2548 7.86099C5.32076 7.83108 5.38219 7.79231 5.43739 7.74579L11.7077 1.53702C11.8897 1.37308 11.9953 1.14324 11.9999 0.900933C12.0041 0.658904 11.907 0.425467 11.7306 0.255435C11.5546 0.0854102 11.3148 -0.00680379 11.0674 0.000391644C10.8199 0.00786851 10.5864 0.113931 10.421 0.294199L10.421 0.294205Z" fill="#E22547"/>
</svg>
