<svg width="40" height="54" viewBox="0 0 40 54" fill="none" xmlns="http://www.w3.org/2000/svg">
<path fill-rule="evenodd" clip-rule="evenodd" d="M20 53.0769C20 53.0769 0 31.3018 0 20.142C0 8.98225 8.98649 0 20 0C31.0135 0 40 9.0503 40 20.142C39.9995 31.3018 20 53.0769 20 53.0769ZM20 9.52663C14.1892 9.52663 9.45958 14.2898 9.45958 20.1419C9.45958 25.994 14.1892 30.7572 20 30.7572C25.8108 30.7572 30.5404 25.994 30.5404 20.1419C30.5404 14.2898 25.8108 9.52663 20 9.52663ZM20 26.5385C16.4864 26.5385 13.6485 23.6805 13.6485 20.1419C13.6485 16.6033 16.4864 13.7453 20 13.7453C23.5136 13.7453 26.3515 16.6033 26.3515 20.1419C26.3515 23.6805 23.5136 26.5385 20 26.5385Z" fill="#B50000"/>
</svg>
