<svg width="170" height="35" viewBox="0 0 170 35" fill="none" xmlns="http://www.w3.org/2000/svg">
<path d="M3.66824 24.2337H0L5.96608 14.7092H11.2803L11.3144 24.2337H7.61057L7.67872 22.193H4.86679L3.66676 24.2337H3.66824ZM5.692 20.8462H7.74983L7.85206 17.7844C7.85206 17.4027 7.93206 16.9901 8.09206 16.5466H8.02391C7.8402 17.027 7.65798 17.4396 7.47575 17.7844L5.69348 20.8462H5.692Z" fill="white"/>
<path d="M18.9948 24.2337H12.6865L15.6347 14.7092H21.7727C22.9846 14.7092 23.9209 14.8389 24.5846 15.0968C25.2469 15.3546 25.5209 15.6979 25.4069 16.1238L24.7891 18.0157C24.6513 18.5874 23.9194 19.0044 22.5949 19.2667C23.8513 19.5201 24.3772 19.9518 24.1727 20.5589L23.5209 22.7367C23.3846 23.1817 22.8986 23.5412 22.0645 23.8182C21.2304 24.0952 20.2067 24.2337 18.9963 24.2337M17.0763 22.887H18.8245C19.2808 22.887 19.5326 22.7971 19.5785 22.6144L20.3326 20.2333C20.3786 20.052 20.1726 19.9607 19.7149 19.9607H18.0007L17.0748 22.8855L17.0763 22.887ZM19.2022 16.056L18.4141 18.6139H19.9578C20.4141 18.6139 20.666 18.524 20.7119 18.3413L21.3638 16.3271C21.4319 16.1459 21.2275 16.0545 20.7475 16.0545H19.2052L19.2022 16.056Z" fill="white"/>
<path d="M36.2064 16.0574H33.2581L30.7203 24.2337H26.7424L29.2803 16.0574H26.332L26.7424 14.7092H36.6182L36.2064 16.0574Z" fill="white"/>
<path d="M114.941 24.1793H110.965L113.913 14.6548H124.301L121.353 24.1793H117.341L119.879 16.003H117.479L114.941 24.1793Z" fill="white"/>
<path d="M126.429 24.1793H122.761L128.727 14.6548H134.041L134.075 24.1793H130.371L130.439 22.1385H127.628L126.428 24.1793H126.429ZM128.453 20.7918H130.511L130.613 17.7299C130.613 17.3483 130.693 16.9357 130.853 16.4922H130.785C130.601 16.9725 130.419 17.3851 130.236 17.7299L128.454 20.7918H128.453Z" fill="white"/>
<path d="M139.183 24.2336C137.971 24.2336 137.035 24.0863 136.371 23.7916C135.708 23.4969 135.457 23.1094 135.617 22.6275L137.605 16.2047C137.765 15.7243 138.262 15.3368 139.097 15.0421C139.931 14.7474 140.965 14.6001 142.201 14.6001H144.429C145.641 14.6001 146.573 14.7474 147.223 15.0421C147.875 15.3368 148.132 15.7243 147.995 16.2047L147.447 17.9596H143.435L143.949 16.327C144.017 16.1458 143.823 16.0544 143.367 16.0544H142.339C141.881 16.0544 141.619 16.1458 141.551 16.327L139.665 22.5038C139.596 22.685 139.791 22.7764 140.247 22.7764H141.275C141.731 22.7764 141.995 22.6865 142.063 22.5038L142.509 20.9389H146.521L145.973 22.6261C145.835 23.1064 145.345 23.4954 144.499 23.7901C143.653 24.0848 142.625 24.2321 141.413 24.2321H139.185L139.183 24.2336Z" fill="white"/>
<path d="M156.944 24.1791H147.412L148.098 21.9335C148.28 21.353 148.909 20.8491 149.984 20.4232L154.51 18.4915C154.784 18.3913 154.967 18.2425 155.058 18.0421L155.572 16.4228C155.641 16.0957 155.401 15.9336 154.852 15.9336H154.51C154.258 15.9336 154.036 15.9793 153.842 16.0691C153.648 16.1605 153.538 16.2784 153.516 16.4228L153.138 17.606H149.436L149.882 16.1635C150.042 15.6919 150.528 15.3133 151.338 15.0274C152.149 14.7416 153.15 14.5986 154.338 14.5986H155.882C157.07 14.5986 157.978 14.7416 158.608 15.0274C159.236 15.3133 159.47 15.6919 159.312 16.1635L158.764 17.8771C158.626 18.44 158.01 18.9527 156.912 19.4139L152.386 21.3456C152.112 21.4458 151.928 21.5946 151.838 21.795L151.529 22.8294H157.392L156.946 24.1762L156.944 24.1791Z" fill="white"/>
<path d="M48.2532 20.8947H46.1036L47.591 16.2606C47.7273 15.7803 47.471 15.3927 46.8191 15.0966C46.1673 14.8019 45.2369 14.6545 44.025 14.6545H41.7968C40.5627 14.6545 39.5271 14.8019 38.693 15.0966C37.8589 15.3913 37.3611 15.7788 37.2011 16.2606L35.2129 22.6835C35.0529 23.1638 35.3033 23.5528 35.967 23.846C36.6292 24.1407 37.567 24.2881 38.7789 24.2881H41.0071C42.219 24.2881 43.2472 24.1407 44.0931 23.846C44.9391 23.5513 45.431 23.1638 45.5673 22.6835L45.7243 22.2503C46.9599 21.5975 48.2518 20.8961 48.2518 20.8961M43.5435 16.3844L41.6575 22.5612C41.5894 22.7424 41.3257 22.8338 40.8693 22.8338H39.8412C39.3834 22.8338 39.1893 22.7424 39.2589 22.5612L41.1449 16.3844C41.2131 16.2032 41.4753 16.1118 41.9331 16.1118H42.9613C43.419 16.1118 43.6131 16.2032 43.545 16.3844" fill="white"/>
<path d="M102.633 24.176C101.422 24.176 100.484 24.0287 99.8215 23.734C99.1578 23.4393 98.9074 23.0518 99.0674 22.5699L101.056 16.1471C101.216 15.6667 101.712 15.2792 102.548 14.9831C103.382 14.6884 104.416 14.541 105.651 14.541H107.879C109.091 14.541 110.023 14.6884 110.674 14.9831C111.326 15.2777 111.582 15.6653 111.446 16.1471L110.897 17.902H106.885L107.399 16.2694C107.468 16.0882 107.274 15.9968 106.817 15.9968H105.789C105.331 15.9968 105.069 16.0882 105.001 16.2694L103.115 22.4462C103.047 22.6274 103.241 22.7188 103.697 22.7188H104.725C105.182 22.7188 105.445 22.6289 105.513 22.4462L105.959 20.8813H109.971L109.423 22.5685C109.285 23.0488 108.795 23.4378 107.949 23.7325C107.103 24.0272 106.075 24.1745 104.863 24.1745H102.635L102.633 24.176Z" fill="white"/>
<path d="M71.9598 0.58738C71.379 0.465082 70.7672 0.354572 70.1345 0.264691C67.893 2.59277 62.3017 9.31914 62.1669 18.6329C62.1699 20.1697 62.278 21.3235 62.3432 21.8922C62.3595 22.0219 62.3758 22.153 62.3936 22.2827C62.3936 22.2827 62.3729 22.1457 62.3432 21.8922C62.2055 20.7753 62.1506 19.6879 62.1669 18.6329C62.1654 17.8461 62.1906 16.9591 62.2632 15.9998C62.2632 15.9998 60.5328 16.5892 59.3728 18.8937C59.3728 18.8937 59.7506 15.5578 62.4351 14.3024C62.5077 13.7277 62.5995 13.1354 62.7121 12.5313L62.524 12.546C61.9328 12.5902 61.3639 12.7877 60.875 13.1192L59.1461 14.2862L60.7521 12.4959C61.0543 12.1585 61.441 11.908 61.8721 11.7666L62.9418 11.4188C63.0366 10.9989 63.1433 10.5731 63.2603 10.1443L61.6884 10.0397L59.2602 11.1831L60.9032 9.60499C61.1802 9.38397 61.5239 9.26314 61.878 9.26314H63.5181C63.681 8.74006 63.8633 8.21404 64.0648 7.68654L62.4706 7.58045L60.1713 8.35549L61.6869 7.14577C61.964 6.92475 62.3077 6.80393 62.6618 6.80393H64.4233C64.6677 6.2337 64.9374 5.66494 65.2352 5.1006L63.767 5.00336L61.4676 5.7784L62.9833 4.56868C63.2603 4.34766 63.604 4.22684 63.9581 4.22684H65.7211C66.0367 3.68755 66.3804 3.15563 66.7537 2.63108L66.7404 2.64876L65.1048 2.54119L62.8055 3.31624L64.3211 2.10652C64.5981 1.8855 64.9418 1.76468 65.2959 1.76468H67.4056C67.8545 1.19887 68.3419 0.644842 68.8693 0.109974C67.3834 -0.0285318 65.81 -0.0491608 64.2351 0.123235C61.5995 2.16546 52.5207 10.9016 58.035 31.0896C58.035 31.0896 49.1118 14.1108 62.1403 0.47392C61.764 0.560855 61.3891 0.658106 61.0188 0.771563C59.8187 1.13846 58.7046 1.69543 57.7061 2.40564C57.9402 2.58098 58.232 2.84473 58.2853 3.09374C58.2853 3.09374 57.7357 2.81968 57.3283 2.68559C56.8749 3.03775 56.4483 3.42233 56.0512 3.83637C56.346 4.00287 56.706 4.22831 56.786 4.33587C56.9223 4.51711 57.0809 5.39825 57.0809 5.39825C57.0809 5.39825 56.5075 4.66004 56.0364 4.51711C55.8764 4.46849 55.7149 4.41691 55.5712 4.36829C55.2112 4.79265 54.8808 5.24353 54.583 5.71799C54.9608 6.00973 55.463 6.4282 55.5608 6.66248C55.7193 7.04705 55.9697 8.28918 55.9697 8.28918C55.9697 8.28918 54.6986 6.57849 54.1519 6.46209C53.9919 6.76267 53.8452 7.06915 53.7104 7.38447C53.6245 7.58634 53.5415 7.79115 53.46 8.00039C53.74 8.29655 54.1963 8.80932 54.4615 9.10991C54.6008 9.26757 54.7045 9.4547 54.7638 9.65656L55.1964 11.1138L54.4541 10.1207C54.1682 9.7376 53.7712 9.4488 53.3163 9.29409L53.0348 9.19831C52.8363 9.81275 52.6585 10.4567 52.503 11.1344L53.2719 11.8579C53.4156 11.9935 53.5297 12.1585 53.6037 12.3412L54.3549 14.1875L53.2926 12.8481C53.1267 12.6389 52.9 12.4827 52.6437 12.4031L52.2689 12.2852C52.143 12.991 52.0407 13.7307 51.9681 14.5028L53.0482 15.5769C53.3089 15.8363 53.4971 16.1575 53.5963 16.5096L54.2408 18.8186L53.0052 17.0165C52.7163 16.5966 52.3237 16.2562 51.8659 16.0293C51.7489 18.8569 52.0081 22.0941 52.7993 25.7925C53.4749 28.9486 55.4349 31.6893 58.2187 33.3469C58.2335 33.3558 58.2498 33.3646 58.2646 33.3735C62.4055 35.8297 71.5168 34.7747 71.5168 34.7747C56.5772 15.7803 71.9613 0.578535 71.9613 0.578535" fill="white"/>
<path d="M73.564 24.0508C72.6439 22.402 72.0632 19.9958 72.0632 17.3141C72.0632 12.5489 73.8944 8.65014 76.21 8.33776C76.5344 8.00771 76.8959 7.62608 76.9744 7.48905C77.0796 7.30634 80.8842 7.77196 83.099 8.06076C82.5242 6.46647 81.7375 4.97532 80.6175 3.61089C77.9196 0.322113 74.4825 0.344215 71.7476 3.61089C71.3328 4.10597 70.9772 4.65705 70.6498 5.21402C68.752 8.4468 67.9994 12.0185 67.8023 15.6859C67.509 21.1834 68.1268 26.5528 71.3787 31.2325C74.1862 35.2727 78.2619 35.1976 81.0857 31.175C81.8901 30.0287 82.5079 28.8175 82.9909 27.5503C81.0205 28.8219 79.2486 29.1578 79.2486 29.1578C74.8159 29.8135 73.7966 25.7954 73.5625 24.0523" fill="white"/>
<path d="M90.5341 25.492C91.0156 26.0858 92.1134 26.9198 94.3372 26.5028C95.0454 26.245 95.6143 25.8707 96.0054 25.3344C96.2395 25.0117 96.4098 24.6315 96.5091 24.1836C96.6632 23.4837 96.6572 22.8221 96.3313 22.218C96.2558 22.0795 96.1639 21.9425 96.0528 21.8099C96.0409 21.7966 96.0306 21.7833 96.0187 21.7715C95.9402 21.6876 95.8617 21.6404 95.7209 21.6463C94.7816 21.6802 93.8424 21.6934 92.9016 21.717C91.7786 21.745 90.6571 21.773 89.5341 21.8025C88.4111 21.832 87.2896 21.8585 86.1666 21.8806C86.0851 21.8821 86.0022 21.885 85.9207 21.8894C85.8792 21.8909 85.8392 21.8924 85.7977 21.8953C85.5518 21.9071 85.3044 21.9204 85.0584 21.9174C84.771 21.913 84.4836 21.885 84.1992 21.8025C84.1251 21.7804 84.0451 21.773 83.9636 21.7701C83.9236 21.7701 83.8821 21.7701 83.8421 21.7701C83.8021 21.7701 83.7606 21.773 83.7206 21.7745C83.0347 21.801 82.3487 21.8423 81.6613 21.8599C81.5724 21.8614 81.482 21.8511 81.3932 21.832C81.3043 21.8128 81.2154 21.7848 81.1309 21.7539C81.008 21.7082 80.9072 21.5785 80.8539 21.4371C80.8228 21.3516 80.8094 21.2617 80.8183 21.1822C80.8435 20.9641 81.008 20.8801 81.1902 20.8329C81.3591 20.7902 81.5339 20.7504 81.7072 20.7504C82.1191 20.749 82.5295 20.7504 82.9413 20.7534C83.3443 20.7563 83.7458 20.7607 84.1488 20.7652C84.3488 20.7681 84.5488 20.7725 84.7488 20.7799C84.7606 20.7799 84.774 20.7799 84.7858 20.7799C84.9858 20.7858 85.1858 20.7932 85.3858 20.7991C85.3903 20.7843 85.3947 20.7711 85.3977 20.7578C85.4095 20.7195 85.4184 20.69 85.4258 20.6606C85.5888 20.0108 85.7444 19.358 85.9162 18.7112C86.097 18.026 86.2822 17.7048 86.7133 17.5736C86.8703 17.525 87.06 17.5029 87.294 17.4955C87.3518 17.4941 87.414 17.4926 87.4777 17.4941C87.7385 17.4941 88.0007 17.4985 88.2615 17.5014C88.7845 17.5088 89.3074 17.5221 89.8289 17.5397C90.0897 17.5486 90.3519 17.5574 90.6126 17.5677C90.9386 17.581 91.2645 17.6002 91.5904 17.6252C91.9164 17.6503 92.2408 17.6827 92.5653 17.7195C93.1179 17.7829 93.4868 18.1041 93.6527 18.6375C93.715 18.8364 93.7742 19.0397 93.8127 19.2445C93.8364 19.3698 93.8601 19.495 93.8824 19.6203C93.9505 19.9975 94.0142 20.3791 94.0853 20.7784C94.4898 20.7711 94.8942 20.7622 95.3002 20.7548C95.6987 20.7475 96.1002 20.7386 96.5091 20.7313C96.5521 20.2981 96.598 19.8752 96.6395 19.4567C96.6632 19.2048 96.6869 18.9543 96.7047 18.7038C96.7224 18.4445 96.721 18.1807 96.7047 17.9199C96.6987 17.833 96.6928 17.746 96.6839 17.6591C96.6706 17.525 96.6469 17.3998 96.6098 17.2834C96.4543 16.778 96.0869 16.4332 95.5372 16.2519C95.2187 16.1458 94.8883 16.0707 94.5594 16.0044C93.3816 15.7686 92.2023 15.5476 91.0245 15.3089C91.0023 15.3045 90.9786 15.2957 90.9549 15.2839C90.9208 15.2662 90.8853 15.2411 90.8556 15.2117C90.8364 15.1925 90.8171 15.1719 90.8023 15.1513C90.7949 15.1409 90.7875 15.1306 90.7815 15.1203C90.746 15.0555 90.7104 14.9921 90.6734 14.9273C90.306 14.2716 89.9519 13.6085 89.58 12.9558C89.4585 12.7421 89.3326 12.53 89.1919 12.334C88.8822 11.9023 88.497 11.5427 87.9104 11.388C88.3089 11.2731 88.7074 11.1582 89.1089 11.0418C89.0348 10.8281 88.9474 10.6336 88.8882 10.4376C88.8689 10.3728 88.8511 10.3065 88.8393 10.2402C88.7533 9.779 88.5207 9.53588 88.0718 9.52704C88.0422 9.52704 88.0111 9.52704 87.9785 9.52704C87.9518 9.52704 87.9207 9.52262 87.8896 9.51526C87.8437 9.50347 87.8022 9.48284 87.7741 9.45484C87.7696 9.45042 87.7622 9.446 87.7592 9.44158C87.6689 9.32076 87.5385 9.24266 87.3948 9.19993C87.3711 9.19256 87.3459 9.18667 87.3222 9.18078C87.2481 9.16457 87.1711 9.1572 87.0955 9.15573C86.9429 9.15278 86.7948 9.1793 86.6748 9.22203C86.5918 9.2515 86.4955 9.26918 86.4036 9.26771C86.3725 9.26771 86.3429 9.26476 86.3133 9.26034C84.4332 8.9627 82.5532 8.66064 80.6746 8.35269C80.5502 8.33206 80.4316 8.27312 80.3102 8.23039C80.282 8.22008 80.2539 8.20976 80.2242 8.20387C80.1087 8.1744 79.9827 8.13019 79.8642 8.11251C79.799 8.10367 79.7368 8.1022 79.679 8.11693C79.4864 8.16703 79.3012 8.16851 79.1175 8.15082C79.0079 8.14051 78.8968 8.1243 78.7857 8.10662C78.3753 8.04621 77.9664 7.98285 77.5545 7.93128C77.4805 7.92244 77.3812 7.93864 77.3279 7.98285C76.4849 8.67832 75.6463 9.38117 74.8093 10.0855C74.7648 10.1223 74.7145 10.1827 74.7115 10.2343C74.6937 10.5378 74.6893 10.8428 74.6804 11.1434C74.7945 11.1817 74.8848 11.2127 75.0078 11.2539C74.8567 11.3276 74.7426 11.3924 74.6196 11.4425C74.2878 11.5796 74.0878 11.8094 73.9752 12.1587C73.6522 13.1695 73.2966 14.1699 72.9588 15.1763C72.9011 15.3472 72.8581 15.5226 72.8077 15.7082C72.8077 15.7333 72.8077 15.7583 72.8077 15.7834C73.5796 15.7082 74.3411 15.6964 75.0967 15.7303C75.2967 15.7392 75.4967 15.751 75.6967 15.7657C75.6997 15.7657 75.7011 15.7657 75.7041 15.7657C75.9041 15.7804 76.1056 15.7996 76.3056 15.8202H76.313C76.5115 15.8423 76.7101 15.8659 76.9086 15.8909H76.9204C77.1204 15.9189 77.3204 15.9469 77.5205 15.9779C78.2005 16.0825 78.8701 16.2446 79.5487 16.3639C79.7087 16.3919 79.8701 16.4111 80.0346 16.4258C80.1161 16.4332 80.199 16.4405 80.2835 16.4494C80.3664 16.4568 80.4509 16.4656 80.5368 16.4744C80.5383 16.4111 80.5398 16.3625 80.5413 16.3212C80.5413 16.3006 80.5413 16.2814 80.5428 16.2637C80.5428 16.246 80.5428 16.2284 80.5457 16.2122C80.5591 15.9528 80.6553 15.8585 80.9146 15.8703C81.685 15.9086 82.4569 15.9572 83.2273 15.9897C83.2643 15.9911 83.2999 15.9941 83.3354 15.997C83.5799 16.0236 83.7606 16.112 83.7828 16.3757C85.5414 16.445 87.2748 16.4803 89.0037 16.5894C89.4378 16.6159 89.8719 16.6483 90.3045 16.6822C90.9549 16.7338 91.6053 16.7927 92.2542 16.8516C92.9046 16.9106 93.5535 16.971 94.2039 17.027C94.2927 16.747 94.315 16.6763 94.4898 16.6822C94.5342 16.6837 94.5876 16.6896 94.6542 16.6984C94.6765 16.7013 94.7002 16.7043 94.7253 16.7087C94.872 16.7293 95.0172 16.7529 95.1624 16.7765C95.3076 16.7986 95.4543 16.8192 95.6009 16.8325C95.7595 16.8472 95.8572 16.9121 95.915 17.0373C95.9239 17.055 95.9313 17.0741 95.9372 17.0948C95.9683 17.1876 96.0069 17.2789 96.0261 17.3733C96.078 17.6223 96.0024 17.7593 95.7876 17.7755C95.7565 17.7785 95.7239 17.7785 95.6869 17.7755C95.4913 17.7622 95.2957 17.7446 95.1002 17.7225C95.0024 17.7121 94.9046 17.7004 94.8068 17.6871C94.709 17.6753 94.6127 17.6606 94.515 17.6473C94.5031 17.6458 94.4913 17.6414 94.4794 17.637C94.4246 17.6149 94.3624 17.5648 94.3342 17.5176C94.3253 17.5029 94.3194 17.4896 94.3194 17.4779C94.309 17.3438 94.2631 17.2686 94.192 17.2274C94.1564 17.2067 94.115 17.1935 94.069 17.1861C94.0231 17.1788 93.9742 17.1758 93.9209 17.1758C93.8616 17.1758 93.8024 17.1699 93.7431 17.164C93.6838 17.1581 93.6246 17.1508 93.5653 17.1463C92.8838 17.0874 92.2023 17.0211 91.5193 16.9607C90.8378 16.8988 90.1549 16.8428 89.4719 16.8045C88.2896 16.7382 87.1029 16.7235 85.9192 16.6999C85.7503 16.6969 85.5814 16.6925 85.411 16.6896C85.2821 16.6866 85.1518 16.6851 85.0229 16.6837C84.6347 16.6807 84.2466 16.6837 83.8628 16.6837C83.848 16.7323 83.8332 16.7765 83.8184 16.8178C83.7488 16.999 83.6599 17.0962 83.5102 17.139H83.5073C83.4421 17.1566 83.3651 17.1655 83.2732 17.1655C83.2495 17.1655 83.2258 17.1655 83.2006 17.164C82.5547 17.1375 81.9102 17.0874 81.2657 17.0786C80.9798 17.0741 80.7487 17.0226 80.6361 16.8119C80.6198 16.7824 80.6065 16.7485 80.5946 16.7117C80.2257 16.6704 79.8924 16.6439 79.5605 16.5923C79.525 16.5864 79.4938 16.5849 79.4672 16.5864C79.4642 16.5864 79.4612 16.5864 79.4583 16.5879C79.4361 16.5908 79.4153 16.5967 79.399 16.607C79.3842 16.6159 79.3724 16.6292 79.362 16.6454C79.3457 16.6689 79.3324 16.6999 79.322 16.7411C79.3146 16.7691 79.3072 16.7971 79.2983 16.8251C79.2686 16.9224 79.2331 17.0181 79.2005 17.1169C79.1042 17.1021 79.0286 17.0889 78.9531 17.0771C77.7338 16.8767 76.5175 16.6454 75.2922 16.4877C75.2463 16.4818 75.1989 16.4774 75.153 16.4715C74.393 16.3845 73.6226 16.3845 72.8566 16.3448C72.8403 16.3448 72.824 16.3448 72.8077 16.3448C72.8151 17.528 72.8818 18.8865 73.0833 20.1537C73.2196 20.7106 73.3959 21.219 73.6166 21.5564L74.6774 22.1149C74.4567 22.5731 74.3041 23.0343 74.227 23.4984C74.2048 23.6045 74.1974 23.7018 74.1974 23.7018C74.1011 24.521 74.2493 25.3447 74.7056 26.1698C75.3471 27.328 76.3175 28.1104 77.6716 28.2342C78.9175 28.3461 80.0613 27.9837 81.0524 27.2027C81.2494 27.048 81.4198 26.8771 81.5665 26.6914C81.5665 26.6914 81.5709 26.6856 81.5739 26.6826C81.5872 26.6649 81.6006 26.6458 81.6139 26.6281C81.645 26.5854 81.6746 26.5426 81.7028 26.4984C81.7146 26.4807 81.7265 26.4631 81.7383 26.4439C81.7739 26.3864 81.805 26.3275 81.8361 26.2686C81.845 26.2509 81.8539 26.2317 81.8628 26.2126C81.888 26.1581 81.9132 26.1021 81.9354 26.0446C81.9398 26.0328 81.9458 26.021 81.9502 26.0092C81.9754 25.9415 81.9961 25.8722 82.0154 25.8015C82.0198 25.7838 82.0243 25.7661 82.0287 25.7484C82.0465 25.6748 82.0643 25.5996 82.0761 25.523C82.1487 25.0751 82.2228 24.6286 82.2954 24.1807C82.3443 24.1718 82.3828 24.1615 82.4198 24.1571C82.4317 24.1556 82.4435 24.1541 82.4554 24.1541C83.6258 24.0908 84.7947 24.0289 85.9651 23.967C87.1355 23.9051 88.3044 23.8418 89.4748 23.7769C89.5371 23.774 89.5845 23.7813 89.6215 23.8034C89.6585 23.8256 89.6867 23.8624 89.7134 23.9199C89.8778 24.2794 90.0467 24.636 90.2156 24.994C90.223 25.0102 90.2349 25.0367 90.2526 25.0721C90.2986 25.1694 90.4719 25.4331 90.4823 25.4419C90.4867 25.4449 90.5326 25.5009 90.5341 25.5009M82.6939 20.0667C82.4984 20.1213 82.3058 20.1419 82.1132 20.1286C82.1058 20.1286 82.0983 20.1272 82.0909 20.1257C82.0258 20.1198 81.9606 20.1109 81.8969 20.0977C81.7769 20.0726 81.6583 20.0373 81.5428 19.9857C81.0168 19.7544 80.7709 19.2224 80.9146 18.6714C81.0094 18.3104 81.2168 18.0407 81.4998 17.8875C81.5502 17.861 81.602 17.8359 81.6569 17.8168C81.6895 17.805 81.7235 17.7947 81.7576 17.7858C81.8969 17.7505 82.0465 17.7372 82.2065 17.749C82.2628 17.7534 82.3176 17.7667 82.3724 17.7755C82.4406 17.7858 82.5043 17.8005 82.5665 17.8168C82.688 17.8506 82.7947 17.8963 82.8895 17.9508C82.9369 17.9774 82.9799 18.0083 83.0199 18.0393C83.0791 18.0849 83.128 18.1365 83.1739 18.191C83.5028 18.5815 83.4939 19.1547 83.2791 19.5908C83.2495 19.6512 83.2139 19.7072 83.1739 19.7573C83.0539 19.9076 82.891 20.0122 82.6939 20.0667ZM79.1709 21.0584C79.1827 21.079 79.1931 21.1011 79.2064 21.1262C79.2198 21.1512 79.2346 21.1807 79.2538 21.2175C78.8257 21.1483 78.4301 21.0908 78.039 21.0142C78.0316 21.0127 78.0242 21.0098 78.0153 21.0068C77.9916 20.9965 77.9679 20.9759 77.9471 20.9523C77.919 20.9199 77.8953 20.8816 77.8819 20.8477C77.716 20.4012 77.5427 19.9577 77.3871 19.5068C77.3353 19.3565 77.2849 19.2062 77.2375 19.0545C77.0197 18.3605 76.8508 17.6488 76.2034 17.1729C76.6464 17.0771 77.0064 17.108 77.2967 17.2701C77.3619 17.3055 77.4227 17.3497 77.4805 17.3983C77.5101 17.4233 77.5382 17.4499 77.5649 17.4779C77.6464 17.5618 77.7219 17.6606 77.7901 17.7755C77.8123 17.8138 77.8345 17.8536 77.8553 17.8949C77.8894 17.9612 77.9219 18.0289 77.9531 18.0967C78.0464 18.3015 78.1279 18.5137 78.1886 18.7288C78.3886 19.4464 78.6775 20.1227 79.0198 20.7784C79.0686 20.8727 79.119 20.9656 79.1694 21.0584M79.2049 25.6762C78.8746 26.4704 78.2153 26.8432 77.3412 26.7622C76.7352 26.7047 76.2552 26.4336 75.9219 25.9341C75.2908 24.9866 75.1737 23.9744 75.6389 22.9282C75.9026 22.3344 76.3471 21.969 76.8597 21.8555C76.9027 21.8467 76.9441 21.8364 76.9871 21.8305C77.0049 21.8275 77.0241 21.8275 77.0419 21.8261C77.0864 21.8216 77.1293 21.8172 77.1738 21.8157C77.193 21.8157 77.2138 21.8157 77.233 21.8172C77.276 21.8172 77.3205 21.8172 77.3649 21.8231C77.3871 21.8246 77.4093 21.829 77.4316 21.8334C77.4745 21.8393 77.516 21.8437 77.559 21.8526C77.5842 21.8585 77.6108 21.8658 77.636 21.8717C77.676 21.8821 77.7145 21.8909 77.7545 21.9027C77.7856 21.913 77.8153 21.9248 77.8464 21.9366C77.8819 21.9498 77.916 21.9601 77.9516 21.9764C77.9901 21.9926 78.0286 22.0132 78.0686 22.0323C78.0953 22.0456 78.122 22.0574 78.1486 22.0721C78.2138 22.1075 78.2805 22.1473 78.3442 22.1915C78.3916 22.2239 78.4375 22.2563 78.4805 22.2902C79.1353 22.7956 79.3961 23.5102 79.4361 24.3265C79.4449 24.493 79.4316 24.6595 79.4198 24.8305C79.4153 24.8879 79.4124 24.9454 79.4094 25.0029C79.402 25.0279 79.3946 25.0544 79.3857 25.0809C79.3294 25.2784 79.279 25.4832 79.199 25.6748M90.4186 15.1321C90.4186 15.1321 90.423 15.1409 90.423 15.1468C90.4275 15.163 90.4275 15.1837 90.4349 15.222C87.9296 14.8728 85.4303 14.5191 82.9102 14.3718C82.6495 14.3571 82.3902 14.3438 82.1295 14.3335C80.8761 14.2834 79.6168 14.2878 78.3486 14.3762C78.3279 13.4553 78.3086 12.5491 78.2894 11.6356C78.282 11.3306 78.276 11.0256 78.2686 10.7176C78.4094 10.7206 78.5457 10.7235 78.6805 10.7264C78.8138 10.7294 78.9457 10.7323 79.0775 10.7338C80.9605 10.7662 82.8273 10.946 84.6866 11.1994C84.8555 11.223 85.0244 11.2466 85.1932 11.2702C85.6999 11.3424 86.2066 11.4204 86.7118 11.5015C86.8807 11.528 87.0496 11.556 87.217 11.584C87.3755 11.6105 87.534 11.6415 87.6911 11.6798C87.8481 11.7181 88.0022 11.7652 88.1518 11.8227C88.2007 11.8419 88.2481 11.864 88.2955 11.8905C88.4378 11.9686 88.5711 12.0791 88.663 12.2014C89.3459 13.1193 89.906 14.111 90.4171 15.1321M77.1249 10.4642C76.8953 10.5393 76.6671 10.6204 76.4404 10.7043C76.2137 10.7883 75.9871 10.8723 75.7604 10.9548C75.7397 10.9622 75.7204 10.9696 75.7026 10.9755C75.6997 10.9755 75.6952 10.9769 75.6923 10.9784C75.6774 10.9843 75.6626 10.9887 75.6493 10.9931C75.6463 10.9931 75.6419 10.9961 75.6389 10.9961C75.6256 11.0005 75.6123 11.0049 75.5989 11.0079L75.5915 11.0108C75.5767 11.0152 75.5619 11.0182 75.5471 11.0211C75.4863 11.0344 75.4315 11.0388 75.3693 11.0329C75.2848 11.0256 75.1871 11.002 75.0389 10.9607C75.2271 10.8532 75.4123 10.7471 75.596 10.6425C75.7382 10.5614 75.8789 10.4804 76.0197 10.3993C76.0849 10.361 76.1515 10.3242 76.2167 10.2873C76.4078 10.1783 76.5975 10.0693 76.7886 9.96024C76.8108 9.94845 76.8315 9.93519 76.8538 9.9234C76.8834 9.9072 76.919 9.9013 76.959 9.90572C76.9708 9.9072 76.9841 9.91162 76.9975 9.91456C77.0108 9.91751 77.0227 9.92193 77.036 9.92635C77.1145 9.95582 77.1916 10.0133 77.2419 10.087C77.2553 10.1061 77.2656 10.1267 77.2745 10.1488C77.3101 10.2402 77.3175 10.3168 77.2716 10.3758C77.2449 10.4111 77.1975 10.4406 77.1264 10.4642M76.193 14.0476C76.193 14.0638 76.19 14.0786 76.1871 14.0918C76.1797 14.1331 76.1663 14.164 76.1426 14.1861C76.113 14.2156 76.0671 14.2303 76.0019 14.2348C75.9219 14.2407 75.8419 14.248 75.7619 14.2554C75.7382 14.2583 75.713 14.2598 75.6893 14.2628C75.63 14.2687 75.5723 14.2745 75.5115 14.2819C75.4952 14.2834 75.4774 14.2863 75.4597 14.2878C75.3545 14.2996 75.2478 14.3114 75.1382 14.3246C75.11 14.3276 75.0804 14.3305 75.0522 14.3335C75.0537 14.2171 75.0567 14.1007 75.0597 13.9857C75.0819 13.8826 75.1026 13.7795 75.1234 13.6778C75.2137 13.2431 75.3011 12.8202 75.3885 12.3988C75.3915 12.3841 75.3945 12.3694 75.3974 12.3546C75.4567 12.0673 75.5145 11.78 75.5767 11.4926C75.6063 11.3556 75.7026 11.2436 75.8256 11.1817C75.8997 11.1449 75.9841 11.1243 76.0686 11.1287C76.2345 11.1346 76.2597 11.2554 76.2656 11.3748C76.2656 11.3762 76.2656 11.3792 76.2656 11.3807C76.2863 11.7903 76.3204 12.1999 76.3071 12.6081C76.2908 13.0884 76.2256 13.5673 76.1901 14.0476M79.8924 8.27607C80.0731 8.30996 80.2094 8.39247 80.2939 8.51183C80.3768 8.63118 80.4065 8.78441 80.3739 8.95976C80.3576 9.0408 80.3309 9.113 80.2939 9.17489C80.2005 9.3296 80.045 9.42095 79.8642 9.42243C79.8272 9.42243 79.7901 9.41948 79.7531 9.41211C79.7309 9.40769 79.7101 9.40327 79.6894 9.39738C79.3798 9.31339 79.1975 9.05111 79.2494 8.75642C79.279 8.58844 79.362 8.45289 79.4775 8.36742C79.5916 8.28196 79.7383 8.24513 79.8953 8.2746M80.5842 8.88019C80.5872 8.83009 80.5872 8.77705 80.5842 8.72106C80.8494 8.76379 81.1117 8.81094 81.3694 8.85662C81.7146 8.91703 82.0539 8.97449 82.3947 9.01575C82.4806 9.02606 82.565 9.0349 82.651 9.04374C83.1087 9.08648 83.3888 9.23972 83.4628 9.70828C83.4851 9.84826 83.5562 9.98087 83.6169 10.1547C83.1754 10.0825 82.7695 10.0177 82.3754 9.95287C82.4347 9.87331 82.5354 9.78637 82.5858 9.68765C82.5976 9.66555 82.6065 9.64197 82.611 9.61692C82.6139 9.60072 82.6154 9.58303 82.6169 9.56535C82.6243 9.44158 82.5784 9.29276 82.5072 9.19699C82.4984 9.1852 82.488 9.17488 82.4776 9.16457C82.4761 9.1631 82.4747 9.16162 82.4732 9.16015C82.4717 9.15868 82.4687 9.1572 82.4673 9.15573C82.448 9.13805 82.4272 9.12184 82.4035 9.10858C82.3769 9.09237 82.3472 9.07763 82.3161 9.06585C82.2332 9.03343 82.1384 9.01722 82.0421 9.01575C81.8969 9.01427 81.7502 9.04816 81.6495 9.11594C81.448 9.25298 81.4035 9.4239 81.5161 9.72448C81.5324 9.76722 81.5517 9.81289 81.5739 9.86152C81.5087 9.8512 81.4435 9.84089 81.3798 9.83057C81.1887 9.79963 81.0035 9.77016 80.8198 9.73922C80.7368 9.72596 80.6539 9.7127 80.5694 9.69944C80.4687 9.68323 80.365 9.66555 80.2553 9.64787C80.1872 9.63755 80.1176 9.62576 80.0435 9.61397C80.3902 9.45926 80.562 9.23235 80.5828 8.88019M83.9221 10.4509C83.9621 10.4524 84.0036 10.4568 84.0465 10.4627C84.7636 10.5629 85.4821 10.6498 86.2007 10.7353C86.7488 10.8001 87.2985 10.8635 87.8467 10.9298C87.8526 10.9298 87.8585 10.9313 87.8659 10.9327C87.9341 10.9416 88.0007 10.9548 88.0674 10.9651C87.82 11.0521 87.5859 11.1655 87.3326 11.2201C87.3074 11.2259 87.2822 11.2304 87.2555 11.2348C87.2037 11.2436 87.1518 11.2481 87.0985 11.251C87.0185 11.2539 86.9355 11.251 86.8496 11.2348C86.2718 11.1375 85.6925 11.0506 85.1132 10.9681C84.534 10.8856 83.9532 10.806 83.3739 10.722C83.3013 10.7117 83.2302 10.6984 83.1176 10.6808C83.1576 10.6587 83.1962 10.638 83.2347 10.6189C83.4658 10.5039 83.6777 10.4421 83.9206 10.4539M87.2392 9.33844C87.3207 9.3517 87.3903 9.37527 87.4496 9.40769C87.5089 9.44011 87.5548 9.48284 87.5903 9.53441C87.66 9.63755 87.6822 9.77459 87.6526 9.94403C87.6392 10.0221 87.6155 10.0914 87.5829 10.1503C87.5015 10.2991 87.3666 10.3846 87.2007 10.3905C87.1681 10.3905 87.134 10.3905 87.0985 10.3846C86.9992 10.3699 86.9059 10.3198 86.8318 10.252C86.7325 10.1606 86.6644 10.0354 86.654 9.9072C86.6511 9.87478 86.6525 9.84383 86.657 9.81142C86.6762 9.69207 86.7222 9.58893 86.7874 9.50936C86.897 9.37675 87.06 9.31044 87.2392 9.33844ZM87.7844 10.2579C87.8215 10.2019 87.8481 10.1385 87.8718 10.0722C87.8837 10.0398 87.8955 10.0059 87.9074 9.97203C87.9192 9.93814 87.9311 9.90425 87.9459 9.87036C88.0585 9.88804 88.183 9.90277 88.3044 9.93077C88.3444 9.93961 88.3963 9.97645 88.4096 10.0118C88.4926 10.2461 88.5652 10.4848 88.6556 10.7618C88.2496 10.6955 87.8807 10.6366 87.497 10.5732C87.5681 10.4966 87.6526 10.4244 87.7222 10.3433C87.7459 10.3168 87.7666 10.2873 87.7859 10.2579M80.1072 9.95435C81.045 10.0752 81.9798 10.196 82.9221 10.3183C82.7132 10.473 82.4984 10.5511 82.2776 10.5835C82.248 10.5879 82.2184 10.5924 82.1872 10.5953C82.1354 10.5997 82.085 10.6041 82.0332 10.6056C82.002 10.6056 81.9724 10.6056 81.9413 10.6056C81.8272 10.6056 81.7117 10.5968 81.5961 10.585C81.165 10.5452 80.7339 10.5084 80.3027 10.4745C79.6983 10.4259 79.0953 10.3816 78.4908 10.3404C78.3071 10.3271 78.2464 10.2608 78.2449 10.0914C78.2449 10.0457 78.2405 9.99855 78.236 9.94992C78.2286 9.87625 78.2182 9.79816 78.2094 9.70828C78.8464 9.79079 79.479 9.87183 80.1101 9.95435M86.4362 10.4818C86.3325 10.4656 86.2288 10.448 86.1266 10.4318C85.9577 10.4052 85.7918 10.3772 85.6273 10.3507C85.4895 10.3286 85.3518 10.3065 85.2184 10.2844C85.2718 10.2152 85.3755 10.1326 85.4199 10.031C85.4258 10.0162 85.4318 10.0015 85.4347 9.98676C85.4629 9.86888 85.4258 9.70533 85.3562 9.60219C85.2866 9.50052 85.1177 9.45042 84.9473 9.44895C84.8155 9.44895 84.6821 9.47842 84.5947 9.53883C84.3962 9.67586 84.3962 9.87478 84.6125 10.2535C84.5784 10.2476 84.5458 10.2431 84.5132 10.2387C84.3547 10.2137 84.211 10.1945 84.0717 10.1621C84.0228 10.1503 83.9606 10.0973 83.9443 10.0486C83.851 9.77311 83.7695 9.49315 83.6777 9.19404C84.531 9.33254 85.3621 9.46663 86.2081 9.60513C86.1162 9.93666 86.1903 10.2181 86.4348 10.4833M79.0775 9.52262C78.5427 9.43569 78.0568 9.3576 77.556 9.27655C77.5427 9.11447 77.5293 8.95239 77.5145 8.78736C77.5012 8.62233 77.4864 8.45436 77.4716 8.28049C77.5679 8.2967 77.6642 8.31143 77.759 8.32764C78.1057 8.38363 78.4449 8.43962 78.799 8.49709C78.6242 8.8964 78.7827 9.21025 79.0761 9.5241M77.3723 11.1346C77.3856 11.4042 77.3975 11.6739 77.4108 11.945C77.4493 12.7554 77.4893 13.5702 77.5293 14.4013C77.4079 14.4013 77.3086 14.4013 77.1767 14.4013C77.2019 13.5776 77.2256 12.7628 77.2493 11.9494C77.2567 11.6783 77.2656 11.4087 77.273 11.1375C77.3056 11.1375 77.3397 11.1375 77.3723 11.1361M75.1811 10.1518C75.5397 9.86152 75.8908 9.56388 76.2434 9.26476C76.4671 9.07469 76.6908 8.88461 76.916 8.69453C76.9678 8.65033 77.0227 8.60907 77.1027 8.54424C77.1441 8.79768 77.1841 9.02606 77.2138 9.25592C77.2138 9.26329 77.2167 9.27213 77.2167 9.2795C77.2167 9.28834 77.2167 9.30013 77.2123 9.31192C77.2034 9.33549 77.1871 9.36054 77.1679 9.37969C77.1575 9.39001 77.1486 9.39738 77.1382 9.40327C76.593 9.72301 76.0449 10.0398 75.4967 10.3566C75.3485 10.4421 75.1989 10.529 75.0508 10.6145C75.0404 10.6204 75.0241 10.6145 75.0093 10.613C74.9663 10.4214 75.0167 10.2844 75.1811 10.1518ZM74.6004 14.2377C74.5737 14.3659 74.5174 14.4263 74.39 14.4543C74.0981 14.5206 73.8107 14.6002 73.4848 14.6842C73.59 14.3394 73.6804 14.0255 73.7826 13.7146C73.9204 13.2976 74.0774 12.8865 74.2063 12.4681C74.3663 11.9479 74.8063 11.752 75.2611 11.5044C75.1056 12.1483 74.9589 12.7554 74.8107 13.3625C74.7396 13.6542 74.6611 13.943 74.6019 14.2362M95.1965 18.3163C95.2379 18.3089 95.2794 18.3059 95.3209 18.3074C95.3224 18.3074 95.3254 18.3074 95.3283 18.3074C95.3742 18.3104 95.4217 18.3192 95.4676 18.3339C95.5861 18.3708 95.7017 18.4459 95.8039 18.5594C95.8765 18.6404 95.9328 18.7377 95.9713 18.8511C96.0335 19.0397 96.0454 19.2696 95.9995 19.5392C95.9861 19.582 95.9654 19.6792 95.9239 19.7662C95.7994 20.027 95.592 20.1743 95.3224 20.2067C95.2898 20.2111 95.2557 20.2141 95.2217 20.2141C95.075 20.2156 94.9639 20.164 94.875 20.0815C94.7861 20.0004 94.7194 19.8885 94.6616 19.7735C94.5564 19.5599 94.5387 19.2902 94.5935 19.0383C94.6128 18.9543 94.6394 18.8718 94.6735 18.7951C94.6854 18.7686 94.6972 18.7436 94.7105 18.72C94.7505 18.6463 94.7965 18.5785 94.8513 18.5196C94.8779 18.4901 94.9046 18.4651 94.9342 18.443C94.9609 18.4209 94.9876 18.4017 95.0157 18.3855C95.0735 18.3516 95.1342 18.3295 95.1965 18.3163Z" fill="white"/>
<path d="M93.0807 18.4692C93.0303 18.394 92.9681 18.3307 92.897 18.2776C92.7696 18.1833 92.6126 18.12 92.4303 18.092C92.2644 18.0669 92.0955 18.0522 91.9266 18.0463C91.3607 18.0271 90.7947 18.008 90.2303 17.9903C90.0777 17.9859 89.9236 17.9815 89.771 17.977C89.3399 17.9638 88.9087 17.952 88.4776 17.9431C88.045 17.9343 87.6095 17.952 87.1783 17.9918C86.8509 18.0227 86.6287 18.2246 86.5324 18.5443C86.5131 18.6106 86.4924 18.6784 86.4717 18.7447C86.4524 18.811 86.4317 18.8788 86.4124 18.9451C86.3828 19.0453 86.3561 19.147 86.3309 19.2486C86.322 19.2825 86.3131 19.3164 86.3057 19.3503C86.2939 19.4004 86.282 19.4505 86.2716 19.5006C86.1813 19.8984 86.0983 20.2992 86.0079 20.7147C88.5295 20.6794 91.017 20.6455 93.5341 20.6101C93.4807 20.2992 93.4333 19.9913 93.3829 19.6863C93.3326 19.3812 93.2792 19.0807 93.217 18.7801C93.1918 18.6593 93.1459 18.5561 93.0852 18.4662" fill="white"/>
<path d="M77.71 23.6471C77.4581 23.6058 77.2641 23.7502 77.2166 24.014C77.1544 24.3603 77.3307 24.6461 77.6389 24.7021C77.8774 24.7448 78.0567 24.6049 78.1085 24.3367C78.1796 23.9654 78.027 23.7002 77.71 23.6486" fill="white"/>
<path d="M96.7051 17.914C96.6992 17.8271 96.6933 17.7401 96.6844 17.6532C96.671 17.5191 96.6473 17.3939 96.6103 17.2775C96.4547 16.7721 96.0873 16.4273 95.5377 16.246C95.2191 16.14 94.8888 16.0648 94.5599 15.9985C93.3821 15.7642 92.2013 15.5417 91.025 15.303C91.0027 15.2986 90.979 15.2898 90.9553 15.278C90.9198 15.2603 90.8857 15.2353 90.8561 15.2073C90.8368 15.1881 90.8175 15.1675 90.8027 15.1468C90.7953 15.1365 90.7879 15.1262 90.782 15.1159C90.7464 15.0525 90.7109 14.9877 90.6738 14.9229C90.3064 14.2672 89.9523 13.6041 89.5805 12.9514C89.459 12.7377 89.3331 12.5255 89.1923 12.3296C88.8827 11.8978 88.4975 11.5383 87.9108 11.3836C88.3093 11.2687 88.7079 11.1537 89.1094 11.0373C89.0353 10.8237 88.9479 10.6292 88.8886 10.4332C88.8693 10.3684 88.8516 10.3021 88.8397 10.2373C88.7538 9.77606 88.5212 9.53294 88.0723 9.5241C88.0427 9.5241 88.0115 9.5241 87.979 9.5241C87.9523 9.5241 87.9212 9.51967 87.8901 9.51231C87.8441 9.50052 87.8026 9.47989 87.7745 9.45337C87.7701 9.44895 87.7627 9.44453 87.7597 9.44011C87.6693 9.31928 87.5389 9.24119 87.3952 9.19846C87.3715 9.19109 87.3463 9.1852 87.3226 9.17931C87.2486 9.1631 87.1715 9.15425 87.096 9.15425C86.9449 9.15131 86.7952 9.17783 86.6752 9.22056C86.5922 9.25003 86.4959 9.26771 86.4041 9.26624C86.373 9.26624 86.3434 9.26329 86.3152 9.25887C84.4352 8.96123 82.5551 8.65917 80.6765 8.35121C80.5521 8.33059 80.4336 8.27165 80.3121 8.22892C80.2839 8.2186 80.2558 8.20829 80.2262 8.2024C80.1091 8.17293 79.9847 8.12872 79.8662 8.11104C79.801 8.1022 79.7387 8.10073 79.681 8.11546C79.4884 8.16556 79.3032 8.16703 79.1195 8.14935C79.0098 8.13904 78.8987 8.12283 78.7876 8.10662C78.3772 8.04621 77.9683 7.98285 77.5565 7.93128C77.4824 7.92244 77.3831 7.93864 77.3283 7.98285C77.1757 8.10957 77.0231 8.23629 76.8705 8.363C76.8364 8.49414 76.7935 8.65181 76.7475 8.83452C76.8053 8.78442 76.8646 8.73579 76.9224 8.68569C76.9742 8.64149 77.029 8.60023 77.1105 8.5354C77.152 8.78883 77.192 9.01722 77.2216 9.24708C77.2216 9.25445 77.2246 9.26329 77.2246 9.27066C77.2246 9.28097 77.2246 9.29129 77.2202 9.30308C77.2113 9.32665 77.195 9.3517 77.1757 9.36938C77.1653 9.37969 77.1564 9.38706 77.1461 9.39296C76.9372 9.51525 76.7283 9.63608 76.5194 9.7569C76.4883 9.88657 76.4572 10.0236 76.4261 10.1651C76.549 10.0943 76.6705 10.0251 76.7935 9.95582C76.8157 9.94403 76.8364 9.93077 76.8587 9.91898C76.8883 9.90278 76.9253 9.89688 76.9639 9.9013C76.9757 9.9013 76.989 9.9072 77.0024 9.91014C77.0157 9.91309 77.0276 9.91751 77.0409 9.92193C77.1194 9.9514 77.1964 10.0089 77.2468 10.0825C77.2602 10.1017 77.2705 10.1223 77.2794 10.1444C77.315 10.2358 77.3224 10.3109 77.2764 10.3713C77.2483 10.4067 77.2024 10.4362 77.1313 10.4597C76.9016 10.5349 76.6735 10.6159 76.4468 10.6999C76.3979 10.7176 76.349 10.7353 76.3001 10.7544C76.272 10.8929 76.2438 11.0359 76.2157 11.1817C76.2586 11.2289 76.269 11.2996 76.2735 11.3718C76.2735 11.3733 76.2735 11.3762 76.2735 11.3777C76.2942 11.7859 76.3298 12.197 76.3149 12.6051C76.2986 13.0855 76.2335 13.5643 76.1979 14.0447C76.1979 14.0609 76.1949 14.0756 76.192 14.0904C76.1846 14.1316 76.1698 14.1626 76.1475 14.1847C76.1179 14.2141 76.072 14.2289 76.0068 14.2333C75.9327 14.2392 75.8572 14.2451 75.7831 14.2524C75.7401 14.7431 75.7075 15.2485 75.6927 15.7642H75.6972C75.6972 15.7642 75.7016 15.7642 75.7046 15.7642C75.9046 15.779 76.1061 15.7981 76.3061 15.8187H76.3135C76.512 15.8408 76.7105 15.8644 76.909 15.8895C76.9135 15.8895 76.9164 15.8895 76.9209 15.8909C77.1209 15.9175 77.3224 15.9455 77.5209 15.9764C78.2009 16.081 78.8706 16.2431 79.5491 16.3624C79.7091 16.3904 79.8706 16.4096 80.035 16.4258C80.1165 16.4332 80.1995 16.4405 80.2839 16.4494C80.3669 16.4568 80.4513 16.4656 80.5373 16.4744C80.5388 16.4111 80.5402 16.3625 80.5402 16.3212C80.5402 16.3006 80.5402 16.2814 80.5417 16.2637C80.5417 16.246 80.5417 16.2284 80.5432 16.2122C80.5565 15.9528 80.6528 15.8585 80.9121 15.8703C81.6825 15.9086 82.4529 15.9573 83.2248 15.9897C83.2618 15.9911 83.2973 15.9941 83.3329 15.997C83.5774 16.0236 83.7581 16.112 83.7803 16.3757C85.5389 16.445 87.2723 16.4803 88.9997 16.5894C89.4338 16.6159 89.8679 16.6483 90.302 16.6822C90.9524 16.7338 91.6028 16.7927 92.2517 16.8516C92.902 16.9106 93.5509 16.971 94.2013 17.027C94.2902 16.747 94.3125 16.6763 94.4873 16.6837C94.5317 16.6851 94.5851 16.691 94.6517 16.6999C94.6739 16.7028 94.6976 16.7058 94.7228 16.7102C94.8695 16.7308 95.0147 16.7544 95.1599 16.778C95.3051 16.8001 95.4517 16.8207 95.5984 16.834C95.7569 16.8487 95.8547 16.9135 95.9125 17.0388C95.9214 17.0565 95.9288 17.0756 95.9347 17.0962C95.9658 17.1891 96.0044 17.2804 96.0236 17.3747C96.0755 17.6237 95.9999 17.7608 95.7851 17.777C95.754 17.7799 95.7214 17.7799 95.6843 17.777C95.4888 17.7637 95.2932 17.746 95.0977 17.7239C94.9999 17.7136 94.9021 17.7018 94.8043 17.6886C94.7065 17.6753 94.6102 17.6621 94.5125 17.6488C94.5006 17.6473 94.4888 17.6429 94.4769 17.6385C94.4221 17.6164 94.3599 17.5663 94.3317 17.5191C94.3228 17.5044 94.3169 17.4911 94.3169 17.4793C94.3065 17.3453 94.2606 17.2701 94.1895 17.2288C94.1539 17.2082 94.1124 17.195 94.0665 17.1876C94.0206 17.1802 93.9717 17.1773 93.9184 17.1773C93.8591 17.1773 93.7998 17.1714 93.7406 17.1655C93.6813 17.1596 93.6221 17.1522 93.5613 17.1478C92.8798 17.0889 92.1983 17.0226 91.5153 16.9622C90.8338 16.9003 90.1509 16.8443 89.4679 16.806C88.2856 16.7397 87.1004 16.7249 85.9152 16.7014C85.7463 16.6984 85.5759 16.694 85.407 16.691C85.2781 16.6881 85.1478 16.6866 85.0189 16.6851C84.6307 16.6822 84.2426 16.6851 83.8588 16.6851C83.844 16.7338 83.8292 16.778 83.8144 16.8192C83.7448 17.0005 83.6559 17.0977 83.5062 17.1404H83.5033C83.4381 17.1581 83.3611 17.167 83.2692 17.167C83.2455 17.167 83.2218 17.167 83.1951 17.1655C82.5507 17.139 81.9047 17.0889 81.2603 17.08C80.9728 17.0756 80.7432 17.024 80.6306 16.8133C80.6143 16.7839 80.601 16.75 80.5891 16.7131C80.2202 16.6719 79.8869 16.6468 79.555 16.5938C79.5195 16.5879 79.4884 16.5864 79.4617 16.5879C79.4587 16.5879 79.4558 16.5879 79.4528 16.5879C79.4306 16.5908 79.4098 16.5967 79.3935 16.607C79.3787 16.6159 79.3669 16.6292 79.355 16.6454C79.3387 16.6689 79.3254 16.6999 79.315 16.7411C79.3076 16.7691 79.3002 16.7971 79.2913 16.8251C79.2617 16.9224 79.2261 17.0181 79.1935 17.1183C79.0972 17.1021 79.0217 17.0903 78.9461 17.0786C77.8557 16.9003 76.7683 16.6955 75.6749 16.5422C75.6779 18.3236 75.8868 20.2038 76.4616 21.9985C76.5861 21.9336 76.7164 21.8835 76.8527 21.8541C76.8957 21.8452 76.9372 21.8349 76.9801 21.829C76.9979 21.8261 77.0172 21.8261 77.0364 21.8246C77.0809 21.8202 77.1239 21.8157 77.1683 21.8143C77.1876 21.8143 77.2083 21.8143 77.2276 21.8157C77.272 21.8157 77.315 21.8158 77.3594 21.8216C77.3816 21.8231 77.4039 21.8275 77.4261 21.832C77.469 21.8378 77.5105 21.8423 77.5535 21.8511C77.5787 21.857 77.6053 21.8644 77.6305 21.8717C77.6705 21.8821 77.7091 21.8894 77.7491 21.9027C77.7802 21.913 77.8098 21.9248 77.8409 21.9366C77.8765 21.9498 77.9105 21.9602 77.9461 21.9764C77.9846 21.9926 78.0231 22.0132 78.0631 22.0338C78.0898 22.0471 78.1165 22.0589 78.1431 22.0736C78.2083 22.109 78.275 22.1488 78.3387 22.193C78.3861 22.2254 78.4306 22.2578 78.475 22.2917C79.1298 22.7971 79.3891 23.5117 79.4306 24.328C79.4395 24.4945 79.4261 24.661 79.4158 24.8319C79.4128 24.8894 79.4084 24.9469 79.4054 25.0043C79.398 25.0309 79.3906 25.0559 79.3817 25.0824C79.3254 25.2799 79.275 25.4847 79.195 25.6762C79.0958 25.9135 78.9669 26.1139 78.8128 26.2745C79.2484 26.7784 79.7417 27.2558 80.2943 27.6993C80.5521 27.5593 80.8025 27.3943 81.0425 27.2057C81.2395 27.051 81.4099 26.88 81.5566 26.6944C81.5566 26.6944 81.561 26.6885 81.564 26.6841C81.5773 26.6664 81.5906 26.6487 81.604 26.6296C81.6351 26.5868 81.6647 26.5441 81.6929 26.4999C81.7047 26.4822 81.7166 26.4645 81.7284 26.4454C81.764 26.3879 81.7951 26.329 81.8262 26.27C81.8351 26.2524 81.844 26.2332 81.8529 26.2141C81.8781 26.1595 81.9032 26.1035 81.9255 26.0461C81.9299 26.0343 81.9358 26.0225 81.9403 26.0107C81.9655 25.9429 81.9862 25.8737 82.0055 25.8029C82.0099 25.7853 82.0144 25.7676 82.0188 25.7499C82.0366 25.6762 82.0544 25.6011 82.0662 25.5245C82.1388 25.0765 82.2129 24.6301 82.2855 24.1821C82.3344 24.1733 82.3729 24.163 82.4099 24.1586C82.4218 24.1571 82.4336 24.1556 82.4455 24.1541C83.6159 24.0908 84.7848 24.0289 85.9552 23.967C87.1241 23.9051 88.2945 23.8418 89.4649 23.7769C89.5271 23.774 89.5746 23.7814 89.6116 23.8035C89.6486 23.8256 89.6768 23.8624 89.7034 23.9199C89.8679 24.2794 90.0383 24.636 90.2057 24.994C90.2131 25.0102 90.2249 25.0368 90.2427 25.0721C90.2886 25.1694 90.462 25.4331 90.4724 25.4419C90.4768 25.4449 90.5242 25.5009 90.5242 25.5009C91.0072 26.0947 92.1035 26.9287 94.3273 26.5117C95.0354 26.2538 95.6043 25.8796 95.9955 25.3418C96.2295 25.0191 96.3999 24.6389 96.4992 24.191C96.6533 23.4911 96.6473 22.8295 96.3214 22.2254C96.2458 22.0869 96.154 21.9498 96.0429 21.8172C96.031 21.804 96.0207 21.7907 96.0088 21.7789C95.9303 21.6949 95.8518 21.6478 95.711 21.6537C94.7717 21.6876 93.8324 21.7008 92.8917 21.7244C91.7687 21.7524 90.6472 21.7819 89.5242 21.8099C88.4012 21.8379 87.2797 21.8658 86.1567 21.8879C86.0752 21.8894 85.9922 21.8924 85.9108 21.8968C85.8693 21.8983 85.8293 21.8997 85.7878 21.9027C85.5419 21.9145 85.2944 21.9277 85.0485 21.9248C84.7611 21.9204 84.4737 21.8924 84.1892 21.8099C84.1137 21.7878 84.0351 21.7789 83.9537 21.7774C83.9137 21.7774 83.8722 21.7774 83.8322 21.7774C83.7922 21.7774 83.7507 21.7804 83.7107 21.7819C83.0233 21.8084 82.3373 21.8511 81.6514 21.8673C81.5625 21.8688 81.4721 21.8585 81.3832 21.8393C81.2929 21.8202 81.2054 21.7922 81.121 21.7612C80.998 21.7156 80.8973 21.5874 80.844 21.4444C80.8128 21.359 80.7995 21.2691 80.8084 21.1895C80.8336 20.9715 80.998 20.8875 81.1803 20.8403C81.3492 20.7976 81.524 20.7578 81.6973 20.7578C82.1092 20.7563 82.5196 20.7578 82.9314 20.7608C83.3344 20.7637 83.7359 20.7681 84.1389 20.7725C84.3389 20.7755 84.5389 20.7814 84.7389 20.7873C84.7507 20.7873 84.7641 20.7873 84.7759 20.7873C84.9759 20.7932 85.1759 20.8005 85.3759 20.8064C85.3804 20.7917 85.3848 20.7784 85.3878 20.7652C85.3996 20.7269 85.4085 20.6974 85.4159 20.6679C85.5789 20.0181 85.7359 19.3668 85.9063 18.7185C86.0871 18.0334 86.2722 17.7121 86.7034 17.581C86.8604 17.5324 87.05 17.5103 87.2841 17.5029C87.3419 17.5014 87.4041 17.5014 87.4678 17.5014C87.7286 17.5014 87.9908 17.5059 88.2516 17.5088C88.7745 17.5162 89.2975 17.5294 89.819 17.5471C90.0798 17.556 90.342 17.5648 90.6027 17.5751C90.9287 17.5884 91.2546 17.6075 91.5805 17.6326C91.9065 17.6576 92.2309 17.69 92.5554 17.7269C93.108 17.7902 93.4769 18.1115 93.6428 18.6448C93.705 18.8452 93.7643 19.0471 93.8028 19.2519C93.8265 19.3772 93.8502 19.5024 93.8724 19.6277C93.9406 20.0049 94.0043 20.3865 94.0739 20.7858C94.4784 20.7784 94.8828 20.7696 95.2888 20.7622C95.6873 20.7549 96.0888 20.746 96.4977 20.7386C96.5407 20.3054 96.5866 19.8826 96.6281 19.4641C96.6533 19.2121 96.6755 18.9616 96.6933 18.7112C96.711 18.4518 96.7096 18.1881 96.6933 17.9273M87.3315 11.2259C87.3063 11.2318 87.2812 11.2363 87.2545 11.2407C87.2026 11.2495 87.1508 11.2539 87.0975 11.2569C87.0175 11.2598 86.9345 11.2569 86.8485 11.2407C86.2708 11.1434 85.6915 11.0565 85.1122 10.974C84.5329 10.8915 83.9522 10.8119 83.3729 10.7279C83.3003 10.7176 83.2292 10.7043 83.1166 10.6867C83.1566 10.6646 83.1951 10.6439 83.2336 10.6248C83.4648 10.5084 83.6766 10.448 83.9196 10.4597C83.9596 10.4612 84.0011 10.4656 84.044 10.4715C84.7611 10.5717 85.4796 10.6587 86.1982 10.7441C86.7463 10.809 87.296 10.8723 87.8441 10.9386C87.8501 10.9386 87.8575 10.9401 87.8634 10.9416C87.9315 10.9504 87.9982 10.9637 88.0649 10.974C87.8175 11.0609 87.5834 11.1744 87.33 11.2289M87.7182 10.3492C87.7419 10.3227 87.7627 10.2932 87.7819 10.2638C87.819 10.2078 87.8456 10.1444 87.8693 10.0781C87.8812 10.0457 87.893 10.0118 87.9049 9.97792C87.9167 9.94403 87.9286 9.91014 87.9434 9.87625C88.056 9.89393 88.1804 9.90867 88.3004 9.93666C88.3404 9.94551 88.3923 9.98235 88.4056 10.0177C88.4886 10.252 88.5612 10.4907 88.6516 10.7662C88.2456 10.6999 87.8752 10.641 87.493 10.5791C87.5656 10.5025 87.6486 10.4303 87.7182 10.3492ZM86.6545 9.81731C86.6737 9.69796 86.7197 9.59482 86.7848 9.51526C86.8945 9.38264 87.0575 9.31634 87.2367 9.34433C87.3182 9.35759 87.3878 9.38117 87.4471 9.41359C87.5049 9.446 87.5523 9.48873 87.5878 9.5403C87.6575 9.64197 87.6797 9.78048 87.6501 9.94846C87.6367 10.0265 87.613 10.0958 87.5804 10.1547C87.5004 10.3036 87.3641 10.389 87.1982 10.3949C87.1656 10.3949 87.13 10.3949 87.0945 10.389C86.9952 10.3743 86.9019 10.3257 86.8278 10.2564C86.7286 10.1651 86.6604 10.0398 86.65 9.91162C86.6471 9.8792 86.6486 9.84826 86.653 9.81584M86.1997 9.60956C86.1078 9.94109 86.1819 10.2225 86.4263 10.4877C86.3226 10.4715 86.2189 10.4539 86.1167 10.4376C85.9478 10.4096 85.7819 10.3831 85.6174 10.3566C85.4796 10.3345 85.3419 10.3124 85.2085 10.2903C85.2618 10.2225 85.3656 10.1385 85.41 10.0369C85.4159 10.0221 85.4218 10.0074 85.4248 9.99266C85.453 9.87478 85.4159 9.70975 85.3463 9.60808C85.2767 9.50642 85.1078 9.45632 84.9374 9.45484C84.8055 9.45484 84.6722 9.48431 84.5848 9.54472C84.3863 9.68175 84.3863 9.88067 84.6026 10.2594C84.5685 10.2535 84.5359 10.249 84.5033 10.2446C84.3448 10.2196 84.2011 10.2004 84.0618 10.168C84.0129 10.1562 83.9507 10.1032 83.9344 10.0545C83.8411 9.77901 83.7596 9.49905 83.6677 9.20141C84.5211 9.33991 85.3522 9.474 86.1982 9.6125M81.3595 8.8684C81.7047 8.92881 82.044 8.98628 82.3847 9.02754C82.4692 9.03785 82.5551 9.04669 82.641 9.05554C83.0988 9.09827 83.3788 9.2515 83.4529 9.72007C83.4751 9.86004 83.5462 9.99266 83.607 10.1665C83.1655 10.0943 82.761 10.0295 82.3655 9.96466C82.4262 9.88509 82.527 9.79816 82.5759 9.69944C82.5877 9.67734 82.5966 9.65376 82.601 9.63019C82.604 9.61398 82.607 9.5963 82.607 9.57861C82.6144 9.45484 82.5684 9.30602 82.4973 9.21025C82.4884 9.19846 82.4781 9.18814 82.4677 9.17636C82.4662 9.17488 82.4647 9.17341 82.4633 9.17194C82.4618 9.17046 82.4588 9.16899 82.4573 9.16604C82.4381 9.14836 82.4173 9.13363 82.3936 9.11889C82.367 9.10268 82.3373 9.08795 82.3062 9.07616C82.2232 9.04374 82.1284 9.02754 82.0321 9.02606C81.8869 9.02459 81.7403 9.05848 81.6395 9.12626C81.438 9.26329 81.3936 9.43274 81.5062 9.7348C81.5225 9.77753 81.5417 9.82321 81.564 9.87183C81.4988 9.86152 81.4336 9.8512 81.3699 9.84089C81.1788 9.80995 80.9936 9.78048 80.8099 9.74954C80.7269 9.73628 80.644 9.72301 80.5595 9.70828C80.4588 9.69207 80.3551 9.67586 80.2454 9.65671C80.1773 9.64492 80.1076 9.6346 80.0336 9.62282C80.3802 9.4681 80.5521 9.24119 80.5728 8.88903C80.5758 8.83893 80.5758 8.78589 80.5728 8.7299C80.838 8.77263 81.0988 8.81978 81.358 8.86546M79.2395 8.76526C79.2691 8.59729 79.3521 8.46173 79.4676 8.37626C79.5817 8.2908 79.7284 8.25397 79.8854 8.28344C80.0662 8.31733 80.2025 8.39984 80.2854 8.51919C80.3684 8.63854 80.398 8.79178 80.3654 8.96713C80.3506 9.04817 80.3225 9.12037 80.2854 9.18225C80.1921 9.33696 80.0365 9.42832 79.8558 9.42979C79.8202 9.42979 79.7817 9.42684 79.7447 9.41948C79.7224 9.41506 79.7017 9.41064 79.681 9.40475C79.3713 9.31928 79.1891 9.05848 79.2409 8.76379M77.1698 14.4013C77.1935 13.5776 77.2187 12.7628 77.2424 11.9494C77.2498 11.6783 77.2587 11.4087 77.2661 11.1375C77.2987 11.1375 77.3328 11.1375 77.3653 11.1361C77.3787 11.4057 77.3905 11.6754 77.4039 11.9465C77.4424 12.7569 77.4824 13.5717 77.5224 14.4027C77.4009 14.4027 77.3016 14.4027 77.1698 14.4027M77.5076 8.79031C77.4942 8.62528 77.4794 8.4573 77.4646 8.28344C77.5609 8.29964 77.6572 8.31438 77.752 8.33059C78.0987 8.38658 78.438 8.44257 78.7921 8.50004C78.6172 8.89934 78.7772 9.21319 79.0706 9.52852C78.5357 9.44158 78.0498 9.36349 77.5491 9.28098C77.5357 9.11889 77.5224 8.95681 77.5076 8.79178M78.2276 9.9573C78.2202 9.88362 78.2098 9.80553 78.2009 9.71564C78.838 9.79816 79.4706 9.8792 80.1017 9.96172C81.0395 10.0825 81.9744 10.2034 82.9166 10.3257C82.7077 10.4804 82.4929 10.5585 82.2721 10.5909C82.2425 10.5953 82.2114 10.5997 82.1818 10.6027C82.1299 10.6086 82.0795 10.61 82.0262 10.613C81.9951 10.613 81.9655 10.613 81.9343 10.613C81.8203 10.613 81.7047 10.6041 81.5892 10.5924C81.158 10.5526 80.7269 10.5157 80.2958 10.4818C79.6913 10.4332 79.0884 10.389 78.4839 10.3478C78.3002 10.3345 78.2394 10.2682 78.238 10.0987C78.238 10.0531 78.2335 10.0059 78.2291 9.9573M82.9033 14.3821C82.6425 14.3674 82.3818 14.3541 82.121 14.3438C80.8677 14.2937 79.6084 14.2981 78.3402 14.3865C78.3194 13.4656 78.3002 12.5594 78.2809 11.6459C78.275 11.3409 78.2676 11.0359 78.2617 10.7279C78.4024 10.7309 78.5387 10.7338 78.6735 10.7368C78.8069 10.7397 78.9387 10.7427 79.0706 10.7441C80.9536 10.7765 82.8203 10.9563 84.6796 11.2097C84.8485 11.2333 85.0174 11.2569 85.1863 11.2805C85.693 11.3527 86.1996 11.4308 86.7048 11.5118C86.8737 11.5383 87.0426 11.5663 87.21 11.5943C87.3686 11.6208 87.5286 11.6518 87.6841 11.6901C87.8412 11.7284 87.9952 11.7755 88.1449 11.833C88.1923 11.8522 88.2412 11.8743 88.2886 11.9008C88.4308 11.9789 88.5642 12.0894 88.656 12.2117C89.339 13.1297 89.899 14.1213 90.4101 15.1424C90.4131 15.1468 90.4146 15.1513 90.4146 15.1572C90.419 15.1734 90.419 15.194 90.4264 15.2323C87.9212 14.8831 85.4219 14.5295 82.9018 14.3836M78.0217 21.023C78.0143 21.0215 78.0068 21.0186 77.9979 21.0157C77.9742 21.0053 77.9505 20.9847 77.9298 20.9611C77.9017 20.9287 77.878 20.8904 77.8646 20.8565C77.6987 20.4101 77.5253 19.9666 77.3698 19.5171C77.3179 19.3669 77.2676 19.2166 77.2202 19.0648C77.0024 18.3693 76.835 17.6591 76.1861 17.1832C76.629 17.0874 76.989 17.1183 77.2794 17.2804C77.3446 17.3173 77.4053 17.36 77.4631 17.4086C77.4928 17.4337 77.5209 17.4602 77.5476 17.4882C77.6291 17.5722 77.7046 17.6709 77.7728 17.7858C77.795 17.8241 77.8172 17.8639 77.838 17.9052C77.872 17.9715 77.9046 18.0393 77.9357 18.107C78.0305 18.3118 78.1106 18.524 78.1713 18.7392C78.3713 19.4567 78.6617 20.1331 79.0024 20.7902C79.0513 20.8845 79.1017 20.9773 79.1521 21.0702C79.1639 21.0908 79.1743 21.1129 79.1876 21.138C79.2009 21.163 79.2158 21.1925 79.235 21.2293C78.8069 21.1601 78.4113 21.1026 78.0202 21.026M83.2618 19.6041C83.2322 19.6645 83.1966 19.7205 83.1566 19.7706C83.0366 19.9209 82.8736 20.0255 82.6766 20.08C82.481 20.1345 82.2884 20.1552 82.0958 20.1419C82.0884 20.1419 82.081 20.1404 82.0736 20.1389C82.0084 20.133 81.9432 20.1227 81.8795 20.1109C81.7595 20.0859 81.6425 20.0505 81.5254 19.999C80.9995 19.7676 80.7536 19.2357 80.8973 18.6846C80.9921 18.3222 81.1995 18.054 81.4825 17.9007C81.5329 17.8742 81.5847 17.8492 81.6395 17.83C81.6721 17.8182 81.7062 17.8079 81.7418 17.7991C81.8795 17.7637 82.0307 17.7505 82.1907 17.7622C82.247 17.7667 82.3018 17.7799 82.3566 17.7888C82.4247 17.7991 82.4899 17.8138 82.5492 17.83C82.6707 17.8639 82.7788 17.9096 82.8722 17.9641C82.9196 17.9906 82.9625 18.0216 83.0025 18.0525C83.0618 18.0982 83.1107 18.1498 83.1566 18.2043C83.4855 18.5948 83.4766 19.1679 83.2618 19.6041ZM95.9895 19.551C95.9762 19.5938 95.9555 19.691 95.914 19.7779C95.7895 20.0402 95.5821 20.1861 95.3125 20.2185C95.2799 20.2229 95.2458 20.2259 95.2117 20.2259C95.0651 20.2274 94.9539 20.1758 94.8651 20.0933C94.7762 20.0122 94.7095 19.9002 94.6517 19.7853C94.5451 19.5717 94.5273 19.302 94.5836 19.05C94.6028 18.9661 94.6295 18.8836 94.6636 18.8069C94.6754 18.7819 94.6873 18.7554 94.7006 18.7318C94.7406 18.6581 94.788 18.5903 94.8414 18.5314C94.868 18.5019 94.8947 18.4769 94.9243 18.4548C94.951 18.4327 94.9777 18.4135 95.0058 18.3973C95.0636 18.3634 95.1243 18.3413 95.1866 18.3295C95.228 18.3222 95.2695 18.3177 95.311 18.3207C95.314 18.3207 95.3154 18.3207 95.3184 18.3207C95.3643 18.3236 95.4117 18.3325 95.4577 18.3472C95.5762 18.384 95.6917 18.4592 95.794 18.5726C95.8666 18.6537 95.9229 18.7509 95.9614 18.8644C96.0236 19.053 96.0355 19.2829 95.991 19.5525" fill="white"/>
<path d="M169.048 20.9006H167.71L169.63 14.656H164.452L158.384 20.9006L157.938 22.234H163.596L162.978 24.179H166.68L167.262 22.234H168.6C168.633 22.1338 170 20.9006 170 20.9006H169.046H169.048ZM165.002 17.7444L164.007 20.9006H161.573L164.591 17.7164C164.887 17.4438 165.209 17.0415 165.551 16.5052L165.619 16.5185C165.253 17.0725 165.047 17.4806 165.003 17.7429" fill="white"/>
</svg>
